<?xml version="1.0" encoding="utf-8"?>
<!-- Generator: Adobe Illustrator 24.0.0, SVG Export Plug-In . SVG Version: 6.00 Build 0)  -->
<svg version="1.1" id="Layer_1" xmlns="http://www.w3.org/2000/svg" xmlns:xlink="http://www.w3.org/1999/xlink" x="0px" y="0px"
	 viewBox="0 0 1108.2 648.8" style="enable-background:new 0 0 1108.2 648.8;" xml:space="preserve">
<style type="text/css">
	.st0{fill:#666666;}
</style>
<polygon class="st0" points="262.8,648.8 267.1,648.8 267.1,629.5 286.1,629.5 286.1,625.9 267.1,625.9 267.1,611.4 287.7,611.4 
	287.7,607.8 262.8,607.8 "/>
<rect x="322.2" y="607.8" class="st0" width="4.1" height="41"/>
<polygon class="st0" points="393.2,642.8 393,642.8 369.1,607.8 363.9,607.8 363.9,648.8 368.1,648.8 368.1,613.5 368.1,613.5 
	392.1,648.8 397.3,648.8 397.3,607.8 393.2,607.8 "/>
<polygon class="st0" points="439.1,629.4 459.1,629.4 459.1,625.7 439.1,625.7 439.1,611.4 460.4,611.4 460.4,607.8 435,607.8 
	435,648.8 461.1,648.8 461.1,645.2 439.1,645.2 "/>
<polygon class="st0" points="541.3,607.8 537.2,607.8 537.2,648.8 560.5,648.8 560.5,645.2 541.3,645.2 "/>
<rect x="593.4" y="607.8" class="st0" width="4.1" height="41"/>
<polygon class="st0" points="647.9,643.4 647.9,643.4 634.4,607.8 630,607.8 645.7,648.8 650,648.8 665.8,607.8 661.4,607.8 "/>
<rect x="698.1" y="607.8" class="st0" width="4.1" height="41"/>
<polygon class="st0" points="769.1,642.8 768.9,642.8 745,607.8 739.8,607.8 739.8,648.8 744.1,648.8 744.1,613.5 744.2,613.5 
	768.1,648.8 773.2,648.8 773.2,607.8 769.1,607.8 "/>
<path class="st0" d="M831.7,631.1h9.5v12.5c-2.4,1.6-6.5,2.7-11.1,2.7c-10.6,0-17.1-8.2-17.1-17.9c0-9.5,6.5-17.9,17.1-17.9
	c4.5-0.2,8.8,1.6,11.9,4.8l2.8-2.9c-3.5-3.5-8.4-5.5-14.9-5.5c-12.2,0-21.4,9.2-21.4,21.5c0,12.5,9,21.5,21.4,21.5
	c5.4,0.1,10.7-1.3,15.4-4v-18.5h-13.8v3.7H831.7z"/>
<path class="st0" d="M136.7,519.3c0,8.2-0.8,13.8-2.4,16.5c-1.6,2.9-4.1,4.3-7.9,4.3c-2.4,0-4.7-0.6-6.8-1.7
	c-2.7-1.5-5.1-3.4-7.1-5.7l-8.2,8.2c2.7,3.2,5.9,5.9,9.7,7.8c3.6,1.7,7.6,2.6,11.6,2.5c8.1,0,13.9-2.1,17.9-6.3
	c3.8-4.3,5.9-10.6,5.9-19.5v-81.4h-12.5V519.3z"/>
<path class="st0" d="M553.5,455.1c-4.7-3.6-10.2-6.1-16-7.4c-6-1.4-16.5-2.2-31.4-2.2h-20v104.2h24.4c12.4,0,21.4-0.8,27.2-2.2
	c5.6-1.4,10.9-3.9,15.5-7.5c6-4.5,10.7-10.6,13.6-17.6c6.1-15.9,6.1-33.5,0-49.4C564.1,465.9,559.5,459.8,553.5,455.1z M555.4,516.9
	c-2,5.4-5.4,10.1-9.8,13.8c-3.6,2.8-7.9,4.8-12.4,5.7c-4.9,1.1-13.8,1.7-26.6,1.7h-7.9V457h7.9c12.5,0,21.4,0.6,26.5,1.8
	c4.6,0.9,8.9,2.9,12.5,5.9c4.4,3.7,7.7,8.4,9.8,13.8c2.3,6.2,3.5,12.8,3.3,19.4C558.8,504.3,557.7,510.8,555.4,516.9L555.4,516.9z"
	/>
<path class="st0" d="M691,486.5c3.8-8.8,3.8-18.8,0-27.6c-1.7-3.9-4.4-7.3-7.8-9.8c-2.8-1.9-6-3.3-9.3-4c-3.6-0.8-9.2-1.3-16.9-1.3
	H635v104.6h12v-46.7h9.8c7.8,0,13.3-0.5,16.9-1.3c3.4-0.7,6.6-2.1,9.3-4.1C686.6,493.8,689.3,490.4,691,486.5z M675,486.5
	c-3.6,2.5-10.8,3.8-21.5,3.8h-6.3v-34.8h6.3c10.4,0,17.6,1.4,21.4,4.1s5.7,7.4,5.7,14.1C680.4,479.7,678.6,484.1,675,486.5z"/>
<polygon class="st0" points="792.4,444 792.4,548.4 844.2,548.4 844.2,536.5 804.7,536.5 804.7,444 "/>
<path class="st0" d="M970.9,465.8c7.8-8.1,18.6-12.6,29.8-12.7c6.5-0.1,12.9,1.3,18.7,4c5.7,2.5,10.9,6.7,16,12v-16.2
	c-5.2-3.6-10.8-6.5-16.8-8.5c-5.7-1.8-11.6-2.8-17.6-2.7c-7.3-0.1-14.5,1.2-21.2,3.8c-6.6,2.6-12.7,6.5-17.7,11.6
	c-5.3,5.1-9.5,11.2-12.3,17.9c-2.7,7-4.1,14.4-4,21.9c-0.1,8.8,2,17.5,6,25.3c4,7.8,9.8,14.1,17.4,19.5c4.5,3.1,9.5,5.5,14.7,7.1
	c5.2,1.6,10.7,2.5,16.2,2.5c6.3,0,12.5-1,18.5-2.8c6-1.9,11.6-4.8,16.6-8.6v-16.5c-4.3,5.1-9.6,9.3-15.5,12.4
	c-12.2,5.7-26.3,5.5-38.3-0.6c-10-5.2-17.4-14.2-20.8-25c-1.3-4.4-1.8-8.9-1.8-13.5c-0.1-5.8,0.9-11.6,3-17
	C963.8,474.4,966.9,469.7,970.9,465.8z"/>
<polygon class="st0" points="321.7,441.9 274.4,549.7 287.2,549.7 305.1,507.7 310.5,495.5 310.5,495.5 321.7,469.4 338.4,507.7 
	338.4,507.7 345,524.8 356.1,549.7 369.7,549.7 "/>
<polygon class="st0" points="0,549.7 12.8,549.7 30.7,507.7 36,495.5 36,495.5 47.4,469.4 64,507.7 63.8,507.7 70.5,524.8 
	81.7,549.7 95.2,549.7 47.4,441.9 "/>
<polygon class="st0" points="427.4,441.9 380,549.7 392.9,549.7 410.9,507.7 416.1,495.5 416.1,495.5 427.4,469.4 444,507.7 
	444,507.7 450.7,524.8 461.8,549.7 475.4,549.7 "/>
<polygon class="st0" points="732,441.9 684.8,549.7 697.5,549.7 715.5,507.7 720.8,495.5 720.8,495.5 732,469.4 748.7,507.7 
	748.7,507.7 755.3,524.8 766.6,549.7 780,549.7 "/>
<polygon class="st0" points="883.3,507.7 888.5,495.5 888.7,495.5 899.9,469.4 916.6,507.7 916.4,507.7 923.1,524.8 934.3,549.7 
	947.9,549.7 899.9,441.9 852.6,549.7 865.4,549.7 "/>
<polygon class="st0" points="1108.2,498.2 1108.2,486.6 1072.6,486.6 1065.6,486.6 1053.3,486.6 1053.3,549.7 1108.2,549.7 
	1108.2,538.1 1065.6,538.1 1065.6,498.2 "/>
<polygon class="st0" points="1108.2,445.4 1053.3,445.4 1053.3,456.7 1065.6,456.7 1065.6,456.7 1108.2,456.7 "/>
<polygon class="st0" points="281.5,444 254.9,520.8 227.2,439.9 199.6,520.8 173.1,444 159.7,444 199.1,549.7 201,549.7 
	227.3,471.7 253.6,549.7 255.5,549.7 295,444 "/>
<path class="st0" d="M583.8,398.4h67.7l-6.4-3.5c-5.2-3.5-9-8.8-10.5-14.9c-1.8-5.9-2.7-12-2.9-18.1V300c14,0.6,28,0.5,42-0.3
	c26-2,47.9-7,65.1-15.5c17.2-8.5,31.2-19,41.7-31.2c10.3-12.2,17.7-26.6,21.9-42c4.3-15.2,6.5-30.9,6.4-46.7c0-15.8-3-31.4-8.8-46.1
	c-6.1-15.6-15.5-29.7-27.4-41.5c-12.6-12.3-28.9-22.2-48.4-30.1C704.3,39.1,680.4,35,652.6,35c-16.3,0-32.4,2.9-47.6,8.7
	c-15.1,5.7-28.9,14.4-40.6,25.7c-11.6,10.8-20.8,24-27.1,38.5c-12.5,28.9-12.5,61.6,0,90.5c6.3,14.6,15.5,27.7,27.1,38.5
	c11.6,10.7,25,19.2,39.7,25.1v29.5c-29.8-4.1-50.5-17.2-73-45.8c-10.8-13.4-19-30.1-26.9-46.1l-0.3-0.3
	c-12.3-25.1-27.7-56-50.8-73.3L409.2,0L373,105.7c-17.9,0.7-35.6,4.8-52,12.3c-15.5,7.2-29.5,17.5-41.2,30.1
	c-23.2,25.8-35.5,59.6-34.2,94.3c0.9,17.1,5,33.9,12,49.6c7.2,15.5,17.4,29.4,30.1,40.9c12.8,11.5,27.6,20.5,43.8,26.6
	c25.1,8.8,49.9,10.2,74.4,4.7l1.2-0.3l8.2-22.8l-5.3,3.5c-4.1,2.7-8.5,4.9-13.1,6.7c-5.9,2.3-12.1,3.8-18.4,4.7
	c-7.1,1.2-14.4,1.5-21.6,0.9c-7.8-0.4-15.4-2-22.8-4.7c-15.5-5.6-29.7-14.3-41.7-25.7c-23.4-22-37.5-52-39.4-84
	c-1-16.4,1.4-32.8,7.3-48.2c4.4-11.9,10.5-23.1,18.1-33.3c7.3-9.7,16.2-18.2,26.3-25.1c9.9-7,20.8-12.6,32.4-16.3
	c10.5-3.7,21.5-5.9,32.7-6.4l-2.9,8.2l-53.4,159c-1.5,4-3.3,7.9-5.3,11.7c-1.5,2.6-3.2,5.2-5,7.6c-1.4,2-3.2,3.8-5.3,5.3
	c-2,1.8-4.4,3.5-6.7,5.3l-4.7,3.5h41.7l-6.1-3.8c-0.9-0.6-2.6-2.6-3.8-9.3c-0.9-5.3,0.6-13.1,4.1-23l51.4-150.6l5-13.7
	c13.7,0.1,27.2,2.7,40,7.6c0.3,0.3,1.5,0.6,4.4,1.8c2,0.6,4.4,2,7.3,3.8l12.5,34.4l3.5,9.3l29.2,80.6l3.2,9.3l6.4,17.5
	c1.3,3.3,2.4,6.7,3.2,10.2c0.8,3.4,1.2,7,1.2,10.5c0,4.7-0.9,8.8-2.9,12l-2,3.2h51.4l-5-3.8c-5.1-3.9-9.6-8.5-13.4-13.7
	c-3.8-5-6.7-10.5-8.8-16.4l-50.2-140.7c16.6,16.6,28.9,41.1,39.1,61.6l0.6,1.5c8.2,16.3,16.4,33.3,27.4,47.3
	c23.9,30.3,45.8,44.1,77.9,48.5v64.5c-0.5,12.8-6.2,24.9-15.8,33.6l-4.4,3.5 M631.6,270c3.2,0.6,6.1,0.9,9.3,1.2
	c3.8,0.3,7.6,0.3,11.7,0.3c18,0.1,35.8-3.6,52.2-10.8l1.2-0.6v-22.5l-3.5,3.8c-3.6,3.8-7.6,7.1-12,9.9c-5.1,3.4-10.6,6-16.3,7.9
	c-6.6,2.2-13.5,3.6-20.4,4.1c-7.3,0.6-14.7,0.2-21.9-1.2V125.8c0-6.3,0.9-12.6,2.6-18.7c1.6-6,5.5-11.1,10.8-14.3l5.8-3.8h-67.7
	l5,3.8c5,3.5,8.8,8.8,11.4,15.2s4.1,12.5,4.1,17.5v38.8h0.3v89.9c-9.3-4.1-18-9.3-26-15.5c-17.4-13.5-30.5-31.7-37.7-52.5
	c-3.5-10.5-5.3-21.6-5.3-32.7c0-14.8,3.1-29.4,9-42.9c6-13.3,14.5-25.3,25.1-35.3C580.3,65.1,593,57,606.8,51.3
	c14.5-5.9,29.9-8.8,45.5-8.8c24.8,0,45.5,4.4,61.6,12.8s28.9,19.3,38.5,32.1c9.2,12.5,15.9,26.7,19.8,41.7c3.6,13.8,5.5,28,5.5,42.3
	c0,22.5-3.2,41.7-9.3,57.2s-14.6,28.3-25.4,37.9c-10.9,9.7-23.9,16.9-37.9,21c-14.6,4.4-30.3,6.4-47.3,6.4c-4.7,0-9,0-13.4-0.3
	c-4.4,0-8.5-0.3-13.1-0.3V270H631.6z M424.7,114.7c-1.5-0.6-2.6-0.9-3.2-1.2c-7.1-2.4-14.3-4.3-21.6-5.8c-6.2-1.1-12.4-1.8-18.7-2
	L401.4,47l25.1,68.3C425.8,115.2,425.2,115,424.7,114.7z"/>
</svg>
