<?xml version="1.0" encoding="utf-8"?>
<!-- Generator: Adobe Illustrator 24.0.0, SVG Export Plug-In . SVG Version: 6.00 Build 0)  -->
<svg version="1.1" id="Layer_1" xmlns="http://www.w3.org/2000/svg" xmlns:xlink="http://www.w3.org/1999/xlink" x="0px" y="0px"
	 viewBox="0 0 1100.5 658.9" style="enable-background:new 0 0 1100.5 658.9;" xml:space="preserve">
<style type="text/css">
	.st0{enable-background:new    ;}
	.st1{fill:#666666;}
	.st2{fill:none;}
</style>
<g class="st0">
	<path class="st1" d="M0,448.3h72.5v10.1H11.1v42.2h57.6v10.1H11.1v46.2h64.2v10.1H0V448.3z"/>
</g>
<g class="st0">
	<path class="st1" d="M164.2,504.6l-40.5-56.3h13.1l34.2,48.3l33.7-48.3h13.2l-40.2,56.3l44.1,62.3h-13.7l-37.5-53.6l-37.5,53.6
		h-13.2L164.2,504.6z"/>
</g>
<g class="st0">
	<path class="st1" d="M373,548.3c-5.7,7.7-12.3,13.2-19.8,16.6c-7.5,3.4-15.6,5-24.3,5c-9,0-17.3-1.5-24.9-4.6
		c-7.5-3.1-14-7.4-19.4-12.9c-5.4-5.5-9.6-12.1-12.6-19.8c-3-7.7-4.5-16-4.5-25s1.5-17.4,4.5-25c3-7.6,7.2-14.2,12.6-19.7
		c5.4-5.5,11.8-9.9,19.4-13c7.5-3.1,15.8-4.7,24.9-4.7c8,0,15.6,1.4,22.5,4.3c7,2.8,13.1,7.6,18.3,14.3l-9,7.5
		c-3.7-5.6-8.4-9.7-14.2-12.2c-5.8-2.6-11.6-3.9-17.7-3.9c-7.7,0-14.7,1.3-20.9,4s-11.5,6.4-15.8,11.1s-7.7,10.2-10.1,16.6
		c-2.3,6.4-3.5,13.2-3.5,20.6s1.2,14.2,3.5,20.6s5.7,11.9,10.1,16.6s9.6,8.4,15.8,11.1s13.2,4,20.9,4c3,0,6.1-0.4,9.4-1.1
		c3.2-0.7,6.4-1.8,9.5-3.4c3.1-1.5,6-3.4,8.8-5.7c2.8-2.3,5.2-5.1,7.4-8.3L373,548.3z"/>
</g>
<g class="st0">
	<path class="st1" d="M425.4,448.3h11.1v108.6h55.3v10.1h-66.3V448.3z"/>
</g>
<g class="st0">
	<path class="st1" d="M624.8,521.5c0,6.4-0.7,12.5-2.2,18.3c-1.5,5.8-3.9,10.9-7.3,15.4c-3.4,4.5-7.9,8-13.4,10.7
		c-5.5,2.7-12.3,4-20.4,4c-8,0-14.8-1.3-20.4-4c-5.5-2.7-10-6.3-13.4-10.7c-3.4-4.5-5.8-9.6-7.3-15.4c-1.5-5.8-2.2-11.9-2.2-18.3
		v-73.2h11.1v70.4c0,4.2,0.4,8.8,1.2,13.6c0.8,4.8,2.3,9.3,4.6,13.4c2.3,4.1,5.5,7.5,9.7,10.2c4.2,2.7,9.7,4,16.7,4
		c6.9,0,12.5-1.3,16.7-4s7.4-6.1,9.7-10.2c2.3-4.1,3.8-8.6,4.6-13.4c0.8-4.8,1.2-9.3,1.2-13.6v-70.4h11.1V521.5z"/>
	<path class="st1" d="M691.8,544.9c2.9,5,6.7,8.8,11.3,11.2c4.6,2.5,9.9,3.7,15.8,3.7c3.7,0,7.1-0.6,10.4-1.7
		c3.2-1.1,6.1-2.7,8.5-4.7c2.4-2,4.3-4.4,5.7-7.3c1.4-2.8,2.1-6.1,2.1-9.6c0-4.1-0.9-7.5-2.6-10.2c-1.7-2.7-4-4.9-7-6.6
		c-2.9-1.7-6.2-3.2-9.8-4.4c-3.6-1.2-7.4-2.5-11.2-3.7c-3.9-1.2-7.6-2.6-11.2-4.2c-3.6-1.6-6.9-3.6-9.8-6.1c-2.9-2.5-5.2-5.7-7-9.5
		c-1.7-3.8-2.6-8.5-2.6-14.1c0-5.2,1-9.9,3.1-14c2.1-4.1,4.9-7.5,8.4-10.2c3.5-2.7,7.6-4.8,12.1-6.2c4.6-1.4,9.4-2.1,14.4-2.1
		c6.5,0,12.5,1.1,18,3.4c5.5,2.3,10.3,6.1,14.3,11.5l-9.6,6.9c-2.8-3.9-6.1-6.8-9.8-8.8c-3.7-2-8.2-2.9-13.3-2.9
		c-3.6,0-7,0.5-10.2,1.4c-3.2,1-6.1,2.3-8.5,4.2c-2.4,1.8-4.3,4.2-5.8,7c-1.5,2.8-2.2,6.1-2.2,9.9c0,5.9,1.5,10.5,4.5,13.7
		s6.8,5.7,11.3,7.5s9.4,3.5,14.7,4.9c5.3,1.4,10.2,3.3,14.7,5.6c4.5,2.3,8.3,5.6,11.3,9.8c3,4.2,4.5,10,4.5,17.3
		c0,5.4-1,10.1-3,14.2c-2,4.1-4.7,7.6-8.1,10.5c-3.4,2.8-7.3,5-11.8,6.5c-4.5,1.5-9.1,2.2-13.9,2.2c-7.8,0-15-1.4-21.6-4.1
		c-6.6-2.7-12.2-7.3-16.9-13.8L691.8,544.9z"/>
	<path class="st1" d="M815.3,448.3h11.1v118.6h-11.1V448.3z"/>
	<path class="st1" d="M875.6,448.3h11.9l38.2,104l38.5-104H976l-45.1,118.6h-11.1L875.6,448.3z"/>
	<path class="st1" d="M1025.2,448.3h72.5v10.1h-61.5v42.2h57.6v10.1h-57.6v46.2h64.2v10.1h-75.2V448.3z"/>
</g>
<g class="st0">
</g>
<g class="st0">
	<path class="st1" d="M209.1,615.5h11.1c0.6,0,1.3,0,2.3,0.1c1,0,2,0.2,3.1,0.4c1.1,0.2,2.3,0.5,3.4,1c1.2,0.4,2.2,1.1,3.1,1.9
		c0.9,0.8,1.7,1.9,2.3,3.2c0.6,1.3,0.9,2.8,0.9,4.7c0,2-0.3,3.7-1,5c-0.7,1.3-1.6,2.4-2.6,3.2c-1.1,0.8-2.2,1.4-3.5,1.8
		c-1.3,0.4-2.5,0.7-3.6,0.8l12.3,20.3h-4.5l-11.9-20.1H213v20.1h-3.9V615.5z M213,634.1h8.4c2.1,0,3.8-0.3,5.1-0.8
		c1.3-0.5,2.3-1.2,3-1.9c0.7-0.8,1.2-1.6,1.5-2.5c0.3-0.9,0.4-1.7,0.4-2.4s-0.1-1.5-0.4-2.4c-0.3-0.9-0.7-1.7-1.5-2.5
		c-0.7-0.8-1.7-1.4-3-1.9c-1.3-0.5-3-0.8-5.1-0.8H213V634.1z"/>
	<path class="st1" d="M287.6,615.5h25.9v3.6h-22v15.1h20.6v3.6h-20.6v16.5h22.9v3.6h-26.9V615.5z"/>
	<path class="st1" d="M366.2,615.5h5.1l25.8,37.1h0.1v-37.1h3.9v42.4h-5.1l-25.8-37.1h-0.1v37.1h-3.9V615.5z"/>
</g>
<g class="st0">
	<path class="st1" d="M457.3,636.7c0-3.2,0.5-6.2,1.6-8.9c1.1-2.7,2.6-5.1,4.5-7c1.9-2,4.2-3.5,6.9-4.6c2.7-1.1,5.7-1.7,8.9-1.7
		s6.2,0.6,8.9,1.7c2.7,1.1,5,2.7,6.9,4.6s3.4,4.3,4.5,7c1.1,2.7,1.6,5.7,1.6,8.9s-0.5,6.2-1.6,8.9c-1.1,2.7-2.6,5.1-4.5,7.1
		c-1.9,2-4.2,3.5-6.9,4.6s-5.7,1.6-8.9,1.6s-6.2-0.5-8.9-1.6s-5-2.6-6.9-4.6c-1.9-2-3.4-4.3-4.5-7.1
		C457.8,642.9,457.3,639.9,457.3,636.7z M461.2,636.7c0,2.6,0.4,5.1,1.3,7.4c0.8,2.3,2,4.2,3.6,5.9c1.6,1.7,3.4,3,5.7,3.9
		c2.2,1,4.7,1.4,7.4,1.4c2.8,0,5.2-0.5,7.5-1.4c2.2-1,4.1-2.3,5.7-3.9c1.6-1.7,2.8-3.7,3.6-5.9c0.8-2.3,1.3-4.7,1.3-7.4
		s-0.4-5.1-1.3-7.4c-0.8-2.3-2-4.2-3.6-5.9c-1.6-1.7-3.4-3-5.7-3.9c-2.2-1-4.7-1.4-7.5-1.4c-2.8,0-5.2,0.5-7.4,1.4
		c-2.2,1-4.1,2.3-5.7,3.9c-1.6,1.7-2.8,3.7-3.6,5.9C461.6,631.6,461.2,634,461.2,636.7z"/>
</g>
<g class="st0">
	<path class="st1" d="M547.5,615.5h4.2l13.6,37.2l13.8-37.2h4.2l-16.1,42.4h-4L547.5,615.5z"/>
</g>
<g class="st0">
	<path class="st1" d="M647.1,615.5h4.1l17.8,42.4h-4.4l-4.6-11.3h-22.4l-4.8,11.3h-4.1L647.1,615.5z M649,619.8l-9.9,23.2h19.4
		L649,619.8z"/>
</g>
<g class="st0">
	<path class="st1" d="M725.6,619.1h-14.5v-3.6H744v3.6h-14.5v38.8h-4V619.1z"/>
	<path class="st1" d="M794.2,615.5h3.9v42.4h-3.9V615.5z"/>
	<path class="st1" d="M850.7,636.7c0-3.2,0.5-6.2,1.6-8.9c1.1-2.7,2.6-5.1,4.5-7s4.2-3.5,6.9-4.6c2.7-1.1,5.7-1.7,8.9-1.7
		s6.2,0.6,8.9,1.7c2.7,1.1,5,2.7,6.9,4.6s3.4,4.3,4.5,7c1.1,2.7,1.6,5.7,1.6,8.9s-0.5,6.2-1.6,8.9c-1.1,2.7-2.6,5.1-4.5,7.1
		c-1.9,2-4.2,3.5-6.9,4.6c-2.7,1.1-5.7,1.6-8.9,1.6s-6.2-0.5-8.9-1.6c-2.7-1.1-5-2.6-6.9-4.6c-1.9-2-3.4-4.3-4.5-7.1
		C851.3,642.9,850.7,639.9,850.7,636.7z M854.7,636.7c0,2.6,0.4,5.1,1.3,7.4c0.8,2.3,2,4.2,3.6,5.9c1.6,1.7,3.4,3,5.7,3.9
		c2.2,1,4.7,1.4,7.5,1.4s5.2-0.5,7.5-1.4c2.2-1,4.1-2.3,5.7-3.9c1.6-1.7,2.8-3.7,3.6-5.9c0.8-2.3,1.3-4.7,1.3-7.4s-0.4-5.1-1.3-7.4
		c-0.8-2.3-2-4.2-3.6-5.9c-1.6-1.7-3.4-3-5.7-3.9c-2.2-1-4.7-1.4-7.5-1.4s-5.2,0.5-7.5,1.4c-2.2,1-4.1,2.3-5.7,3.9
		c-1.6,1.7-2.8,3.7-3.6,5.9C855.1,631.6,854.7,634,854.7,636.7z"/>
	<path class="st1" d="M947.1,615.5h5.1l25.8,37.1h0.1v-37.1h3.9v42.4h-5.1l-25.8-37.1H951v37.1h-3.9V615.5z"/>
</g>
<polygon class="st1" points="787.5,357.4 787.5,128.2 596.1,0.4 596.1,61 737.8,155.6 737.8,306.7 737.8,357.4 "/>
<polygon class="st1" points="595.6,60.7 596.1,61 596.1,0.4 595.5,0 404.6,128.2 404.6,357.4 596.1,357.4 596.1,306.7 454.3,306.7 
	454.3,254.7 596.1,254.7 596.1,204 454.3,204 454.3,155.5 "/>
<rect x="403.4" y="47.8" class="st1" width="2.5" height="349.3"/>
<rect x="453.1" y="23" class="st1" width="2.5" height="374.2"/>
<rect x="381.6" y="356.1" class="st1" width="471.2" height="2.5"/>
<line class="st2" x1="363" y1="158.5" x2="528" y2="47.8"/>
<rect x="346.1" y="102" transform="matrix(0.8309 -0.5564 0.5564 0.8309 17.9113 265.3533)" class="st1" width="198.7" height="2.5"/>
<line class="st2" x1="372.8" y1="209.5" x2="547.3" y2="91.6"/>
<rect x="354.7" y="149.2" transform="matrix(0.8288 -0.5595 0.5595 0.8288 -5.4344 283.1343)" class="st1" width="210.7" height="2.5"/>
<rect x="339.3" y="305.2" class="st1" width="398.4" height="2.5"/>
<rect x="787.5" y="305.2" class="st1" width="65.3" height="2.5"/>
</svg>
