<?xml version="1.0" encoding="utf-8"?>
<!-- Generator: Adobe Illustrator 24.0.0, SVG Export Plug-In . SVG Version: 6.00 Build 0)  -->
<svg version="1.1" id="Layer_1" xmlns="http://www.w3.org/2000/svg" xmlns:xlink="http://www.w3.org/1999/xlink" x="0px" y="0px"
	 viewBox="0 0 1104.8 657.8" style="enable-background:new 0 0 1104.8 657.8;" xml:space="preserve">
<style type="text/css">
	.st0{fill:#666666;}
	.st1{font-family:'Avenir-Light';}
	.st2{font-size:167.55px;}
	.st3{font-size:59.84px;}
	.st4{fill:none;}
</style>
<text transform="matrix(1 0 0 1 -14.204 566.88)" class="st0 st1 st2">E</text>
<text transform="matrix(1 0 0 1 121.516 566.88)" class="st0 st1 st2">X</text>
<text transform="matrix(1 0 0 1 261.086 566.88)" class="st0 st1 st2">C</text>
<text transform="matrix(1 0 0 1 411.206 566.88)" class="st0 st1 st2">L</text>
<text transform="matrix(1 0 0 1 526.316 566.88)" class="st0 st1 st2">USIVE</text>
<text transform="matrix(1 0 0 1 1168.546 566.88)" class="st0 st1 st2"> </text>
<text transform="matrix(1 0 0 1 205.296 657.84)" class="st0 st1 st3">REN</text>
<text transform="matrix(1 0 0 1 456.266 657.84)" class="st0 st1 st3">O</text>
<text transform="matrix(1 0 0 1 549.736 657.84)" class="st0 st1 st3">V</text>
<text transform="matrix(1 0 0 1 630.396 657.84)" class="st0 st1 st3">A</text>
<text transform="matrix(1 0 0 1 712.436 657.84)" class="st0 st1 st3">TION</text>
<polygon class="st0" points="789.6,357.4 789.6,128.2 598.1,0.4 598.1,61 739.8,155.6 739.8,306.7 739.8,357.4 "/>
<polygon class="st0" points="597.6,60.7 598.1,61 598.1,0.4 597.5,0 406.7,128.2 406.7,357.4 598.1,357.4 598.1,306.7 456.4,306.7 
	456.4,254.7 598.1,254.7 598.1,204 456.4,204 456.4,155.5 "/>
<rect x="405.4" y="47.8" class="st0" width="2.5" height="349.3"/>
<rect x="455.1" y="23" class="st0" width="2.5" height="374.2"/>
<rect x="383.7" y="356.1" class="st0" width="471.2" height="2.5"/>
<line class="st4" x1="365" y1="158.5" x2="530.1" y2="47.8"/>
<rect x="348.2" y="102" transform="matrix(0.8309 -0.5564 0.5564 0.8309 18.2577 266.493)" class="st0" width="198.7" height="2.5"/>
<line class="st4" x1="374.8" y1="209.5" x2="549.4" y2="91.6"/>
<rect x="356.8" y="149.2" transform="matrix(0.8288 -0.5595 0.5595 0.8288 -5.0838 284.2803)" class="st0" width="210.7" height="2.5"/>
<rect x="341.4" y="305.2" class="st0" width="398.4" height="2.5"/>
<rect x="789.6" y="305.2" class="st0" width="65.3" height="2.5"/>
</svg>
