<?xml version="1.0" encoding="utf-8"?>
<!-- Generator: Adobe Illustrator 24.0.0, SVG Export Plug-In . SVG Version: 6.00 Build 0)  -->
<svg version="1.1" id="Layer_1" xmlns="http://www.w3.org/2000/svg" xmlns:xlink="http://www.w3.org/1999/xlink" x="0px" y="0px"
	 viewBox="0 0 1020.4 389.6" style="enable-background:new 0 0 1020.4 389.6;" xml:space="preserve">
<style type="text/css">
	.st0{fill:#666666;}
</style>
<path class="st0" d="M0,241.7h60c-10.4-2.4-27.6-7.1-30.3-30.3C26.7,234.6,10.4,239.3,0,241.7"/>
<path class="st0" d="M194.8,241.7h54.6c-8.3-1.8-21.7-5.9-21.7-20.8c0.1-3.7,0.7-7.4,1.8-11C220.1,233.7,204.6,239.3,194.8,241.7"/>
<path class="st0" d="M553.5,141.4l48.7,74.5c3.8,5.9,5.6,10.7,5.6,14.5c0,7.4-6.8,10.1-10.7,11.3h85.2c-8-2.7-21.7-8.3-35.6-30
	l-65.9-102.1L553.5,141.4z"/>
<path class="st0" d="M970,141.1c0,57.3-16,89.6-45.7,100.9c91.1-12.8,96.2-86.7,96.2-106.3c0-57-43.3-96.8-114-101.2
	C948,41.1,969.9,74.3,970,141.1"/>
<path class="st0" d="M463.3,34.2c8.6,2.1,22,6.5,22,26.4v151.7c0,21.7-12.2,27-21.1,29.4h87.3c-8.9-2.1-21.7-7.1-21.7-29.1V60.4
	c0-19.6,13.3-24,22.3-26.1H463.3z"/>
<path class="st0" d="M0.9,34c3,0,14.2,3,20.5,10.7l163.5,204.8v-68.3L68,34H0.9z"/>
<path class="st0" d="M154.6,34c10.4,2.4,27.6,7.1,30.3,30.3c3-23.1,19.3-27.9,29.7-30.3H154.6z"/>
<path class="st0" d="M256,34c8,0,21.1,6.2,24.3,15.1l58.8,158.2c2.4,6.5,4.8,14,4.8,19.3c0,6.5-3.6,12.2-14.3,15.1h81.6
	c-5.3-1.8-16.9-7.4-24-26.1L318.9,34H256z"/>
<path class="st0" d="M605.2,34c8,0,20.8,6.8,20.8,17.2c-0.2,3.8-1.4,7.5-3.6,10.7C643.5,40.8,665.7,36,676.1,34H605.2z"/>
<path class="st0" d="M799.9,34c8.6,1.8,23.4,5.3,23.4,27.3v150.5c0,22.3-13.1,27.9-22.3,30h82.8c-10.7-3.6-15.7-12.5-15.7-26.7V34
	L799.9,34z"/>
<path class="st0" d="M721,41.1c-0.1,10.6,8.4,19.2,19,19.3c4.8,0,9.4-1.5,13.4-4.1c3.3,4.1,4.4,9.5,3,14.5c3.3-8.6,5-16.9,5-23.8
	c0-17.2-10.7-25.2-21.1-25.2C729.6,21.8,721,30.4,721,41.1C721,41,721,41,721,41.1"/>
<rect x="255.7" class="st0" width="59.4" height="13.4"/>
<path class="st0" d="M245.5,389.6h-6.3v-56.5h-20.8v-5.7h47.9v5.6h-20.8V389.6z"/>
<path class="st0" d="M293.1,327.5h6.3v27h33.9v-27h6.3v62.1h-6.3v-29.4h-33.9v29.4h-6.3V327.5z"/>
<path class="st0" d="M380,360v24h33.2v5.6h-39.5v-62.1h38.5v5.6H380v21.4h30.1v5.5L380,360"/>
<path class="st0" d="M489,384h29v5.6h-35.3v-62.1h6.3L489,384z"/>
<path class="st0" d="M544.5,389.6h-6.9l26.8-62.1h6.1l26.7,62.1h-7l-6.8-16.3h-32.1L544.5,389.6z M553.7,367.5h27.4l-13.7-33
	L553.7,367.5z"/>
<path class="st0" d="M623.9,327.5h18.5c9.5,0,20,3.4,20,15.9c0,6.5-4.6,12.1-11,13.3v0.2c8.1,0.9,14,6.5,14,15.5
	c0,10.3-8.9,17.2-23.2,17.2h-18.4L623.9,327.5z M630.3,354.7H643c6.1,0,13.2-2.6,13.2-10.9c0-7.9-6.8-10.9-14.9-10.9h-11
	L630.3,354.7z M630.3,384.1H642c9.1,0,17.1-3.4,17.1-12.1c0-8.2-5.9-12.2-16-12.2h-12.9L630.3,384.1z"/>
<path class="st0" d="M703.6,384h33.3v5.6h-39.6v-62.1h38.5v5.6h-32.2v21.4h30.1v5.5h-30.1L703.6,384z"/>
<path class="st0" d="M773.1,384H802v5.6h-35.3v-62.1h6.3L773.1,384z"/>
</svg>
