<?xml version="1.0" encoding="utf-8"?>
<!-- Generator: Adobe Illustrator 24.0.0, SVG Export Plug-In . SVG Version: 6.00 Build 0)  -->
<svg version="1.1" id="Layer_1" xmlns="http://www.w3.org/2000/svg" xmlns:xlink="http://www.w3.org/1999/xlink" x="0px" y="0px"
	 viewBox="0 0 1159.1 433.2" style="enable-background:new 0 0 1159.1 433.2;" xml:space="preserve">
<style type="text/css">
	.st0{fill:#666666;}
</style>
<path class="st0" d="M499.8,208.4c2.1-2.7,3.2-6,3.2-9.4V79.4c0-3.4-1.1-6.7-3.2-9.4c-2.5-3.2-5.8-5.8-9.4-7.5h54.4l63.5,143.8V79.4
	c0-3.4-1.1-6.7-3.2-9.4c-2.5-3.2-5.8-5.8-9.4-7.5h29.6c-3.7,1.8-6.9,4.4-9.4,7.5c-2.1,2.7-3.2,6-3.2,9.4v136.5h-46.9L507.3,84.2V199
	c0,3.4,1.1,6.7,3.2,9.4c2.5,3.2,5.8,5.8,9.4,7.5h-29.6C494,214.2,497.2,211.6,499.8,208.4z"/>
<path class="st0" d="M633.2,208.6c1.3-3,1.9-6.2,1.8-9.4v-62.8c0-7.7-0.5-13.1-1.5-16s-3.6-4.4-8-4.4l52.5-13.2v96.4
	c-0.1,3.2,0.5,6.4,1.7,9.4c1.2,2.5,3.7,4.9,7.7,7.3h-61.9C629.5,213.6,632,211.2,633.2,208.6z M641.3,95.1c-8.4-8.4-8.3-22,0.1-30.4
	s22-8.3,30.4,0.1c8.4,8.4,8.3,22-0.1,30.4c-4,4-9.5,6.3-15.2,6.3C650.8,101.6,645.3,99.3,641.3,95.1z"/>
<path class="st0" d="M701.3,208.6c1.3-3,1.9-6.2,1.8-9.4v-80h-9.4v-5.7h9.4c0-14.5,2.9-26.5,8.6-36c5.3-9,13.2-16.2,22.6-20.7
	c9.6-4.5,20.1-6.7,30.7-6.6c12.4,0,23.1,2.5,32.1,7.5s13.5,11.9,13.5,20.7c0,5.9-1.9,10.5-5.8,13.6c-3.9,3.2-8.8,4.8-13.9,4.7
	c-5.4,0.1-10.6-1.7-14.8-5c-4.2-3.1-6.6-8.1-6.5-13.3c0-3.5,1.3-6.9,3.5-9.7c0.2-0.4,0.6-1,1.2-2c0.6-1,1-2.2,0.9-3.4
	c0-2.4-1.2-4.7-3.1-6.2c-2-1.8-4.5-2.7-7.1-2.7c-6.3,0-11,3.5-14.1,10.5c-3.1,7-4.7,17.9-4.7,32.6v15.9H765v5.7h-18.8v80
	c-0.1,3.2,0.5,6.4,1.8,9.4c1.2,2.5,3.7,4.9,7.7,7.3h-61.9C697.6,213.6,700.2,211.2,701.3,208.6z"/>
<path class="st0" d="M784.8,208.6c1.3-3,1.9-6.2,1.8-9.4v-80h-9.4v-5.7h9.4c0-14.5,2.9-26.5,8.6-36c5.3-9,13.2-16.2,22.6-20.7
	c9.6-4.5,20.1-6.7,30.7-6.6c12.4,0,23.1,2.5,32,7.5c8.9,5,13.4,11.9,13.5,20.7c0,5.9-1.9,10.5-5.8,13.6c-3.9,3.2-8.8,4.8-13.9,4.7
	c-5.4,0.1-10.6-1.7-14.8-5c-4.2-3.1-6.6-8.1-6.5-13.3c0-3.5,1.3-6.9,3.5-9.7c0.2-0.4,0.6-1,1.2-2c0.7-1,1-2.2,1-3.4
	c0-2.4-1.2-4.7-3.1-6.2c-2-1.8-4.5-2.7-7.1-2.7c-6.3,0-11,3.5-14.1,10.5c-3.1,7-4.7,17.9-4.7,32.6v15.9h18.8v5.7h-18.8v80
	c-0.1,3.2,0.5,6.4,1.8,9.4c1.2,2.5,3.7,4.9,7.7,7.3h-61.9C781.1,213.6,783.6,211.2,784.8,208.6z"/>
<path class="st0" d="M863.8,270.6c-4.3-2-8.1-5.1-10.9-8.9c-3-3.9-4.4-8.9-4.4-14.8c0-6.3,2-11.3,6.1-14.9c8.2-7.4,20.6-7.4,28.8,0
	c4,3.7,6,8.7,6.1,14.9c0,2.5-0.3,4.9-1.1,7.3c-0.5,1.4-0.9,2.8-1.1,4.3c0,0.7,0.6,1.1,1.9,1.1c3.2,0,7.1-2.3,11.7-6.9
	s10.5-14.2,17.9-29l-34.5-63c-9.5-17.8-16.2-30.1-20.1-37c-3.9-6.9-7-11.8-9.3-14.7c-2.1-2.7-4.7-4.8-7.8-6.2h61.9
	c-0.7,1.3-1.1,2.8-1.1,4.3c0,3.6,1.4,8.3,4.2,14s7.8,15.1,15,28c5.2,9,9.7,17.1,13.5,24.2l2.4-6.7c4.7-12.2,8.3-22.3,10.8-30.3
	s3.8-14.9,3.8-20.6c0-5.9-1.7-10.2-5.1-12.9h29.6c-3.1,1.6-7,7.4-11.7,17.2c-4.8,9.9-11,24.1-18.7,42.8c-9,21.4-15.2,35.7-18.6,43.1
	l-2.4,5.1c-8.6,18.3-15.1,31.4-19.5,39.2s-9.2,13.6-14.4,17.5s-11.9,5.8-19.9,5.8C872.3,273.5,867.9,272.5,863.8,270.6z"/>
<path class="st0" d="M497.4,387.1c-17.2-10.8-25.9-31.9-25.8-63.3c0-15.4,3.7-29.3,11-41.5c7.5-12.3,18.2-22.3,31-28.8
	c13.3-7,28.5-10.5,45.8-10.5c12.4,0,23,2.5,32,7.5s13.4,11.9,13.5,20.7c0,5.9-1.9,10.5-5.8,13.6c-3.9,3.2-8.8,4.8-13.9,4.7
	c-5.4,0.1-10.6-1.7-14.8-5c-4.2-3.1-6.6-8.1-6.5-13.3c0-3.5,1.3-7,3.5-9.7c0.2-0.3,0.6-1,1.2-2c0.6-1,1-2.2,0.9-3.4
	c0-2.4-1.2-4.7-3.1-6.2c-2-1.8-4.5-2.7-7.1-2.7c-8.3,0-15.8,3.2-22.6,9.6c-6.8,6.4-12.2,15.4-16.2,26.9c-3.9,11.6-5.9,24.9-5.9,40
	c0,13.8,1.9,26.1,5.7,36.9c3.8,10.8,9.3,19.1,16.4,25c7.1,5.9,16.1,9.1,25.3,8.9c2.4-0.1,4.9-0.2,7.3-0.5v-57.6
	c0.1-3.2-0.5-6.5-1.8-9.4c-1.2-2.5-3.7-4.9-7.7-7.3h61.9c-3.9,2.3-6.5,4.8-7.7,7.3c-1.3,3-1.9,6.2-1.8,9.4v35.8
	c-1.4,4.3-4.6,8.9-9.6,13.7s-11.4,8.9-19.5,12.3c-8.7,3.4-17.9,5.1-27.2,5C534.2,403.3,514.7,397.9,497.4,387.1z"/>
<path class="st0" d="M640.3,393.3c1.3-3,1.9-6.2,1.8-9.4V276.4c0-7.5-0.5-12.8-1.5-15.8c-1-3-3.7-4.4-8-4.4l52.5-13.2v140.9
	c-0.1,3.2,0.5,6.4,1.8,9.4c1.2,2.5,3.7,4.9,7.7,7.3h-61.9C636.5,398.2,639.1,395.8,640.3,393.3z"/>
<path class="st0" d="M711.4,395.4c-5.8-5.2-8.8-12.1-8.8-20.7c0-26.9,23.4-40.4,70.3-40.4v-9.4c0-11.1-1.1-19.4-3.4-24.9
	c-2.2-5.5-5.9-8.2-10.9-8.2c-2.6,0-5.2,0.9-7.1,2.7c-1.9,1.5-3.1,3.8-3.1,6.2c0,1.2,0.3,2.4,0.9,3.4c0.6,1,1,1.7,1.2,2
	c2.2,2.7,3.5,6.2,3.5,9.7c0.2,5.2-2.3,10.2-6.5,13.3c-4.2,3.3-9.5,5.1-14.8,5c-5,0.1-10-1.6-13.9-4.7c-3.9-3.1-5.8-7.7-5.8-13.6
	c0-8.8,4.5-15.7,13.5-20.7c9-5,19.6-7.5,32-7.5c16.5,0,30.2,3.4,41.1,10.1s16.3,17.9,16.3,33.5v38c0,5.6,0.9,9.7,2.7,12.5
	c1.8,2.8,4.1,4.2,7,4.2c1.6,0,3.2-0.4,4.6-1.1c-1.3,4.7-4.4,8.9-9.4,12.8c-5,3.9-11.6,5.8-19.7,5.8c-7.5,0-13.8-2.2-18.8-6.7
	c-5-4.5-8.1-11.3-9.2-20.5c-1.8,6.5-5.9,12.6-12.4,18.4c-6.5,5.8-14.6,8.8-24.5,8.8C725.5,403.2,717.2,400.6,711.4,395.4z
	 M764.8,379c3.3-2.2,6-5,8.1-8.3v-31.7c-2.3,0-5.7,1.2-10.1,3.5c-4.6,2.5-8.7,6-11.8,10.2c-3.5,4.6-5.4,10.3-5.3,16.2
	c0,4.3,0.9,7.6,2.8,9.8c1.8,2.2,4.5,3.4,7.4,3.4C759.1,381.9,762.2,380.9,764.8,379L764.8,379z"/>
<path class="st0" d="M843.3,393.3c1.3-3,1.9-6.2,1.8-9.4v-63c0-7.5-0.5-12.8-1.5-15.8c-1-3-3.7-4.4-8-4.5l52.5-13.2v19.4
	c3.2-3.8,8.2-8,14.9-12.5c6.7-4.6,15.2-6.9,25.4-6.9c8.6,0,15.9,1.7,21.8,5.1c5.6,3.1,10,8,12.4,14c0.2-0.2,1.8-1.9,4.8-5.1
	s7.9-6.4,14.7-9.4c6.5-3,13.7-4.6,20.9-4.6c11.5,0,20.5,2.9,26.9,8.8c6.5,5.8,9.7,13.5,9.7,23v64.6c-0.1,3.2,0.5,6.4,1.8,9.4
	c1.2,2.5,3.7,4.9,7.7,7.3h-61.9c3.9-2.3,6.5-4.7,7.7-7.3c1.3-3,1.9-6.2,1.8-9.4v-64.6c0-5.2-1.1-9-3.4-11.5c-2.3-2.5-5.6-3.8-9-3.6
	c-3.4,0.1-6.8,0.7-10,2c-3.6,1.3-7,3.2-10,5.5c0.6,2.4,0.8,4.8,0.8,7.3v64.9c-0.1,3.2,0.5,6.4,1.8,9.4c1.2,2.5,3.7,4.9,7.7,7.3
	h-61.9c3.9-2.3,6.5-4.8,7.7-7.3c1.3-3,1.9-6.2,1.8-9.4v-64.6c0-5.2-1.1-9-3.4-11.5c-2.3-2.5-5.6-3.8-9-3.6
	c-3.7,0.1-7.3,0.9-10.6,2.4c-3.9,1.6-7.5,3.7-10.9,6.2v71.1c-0.1,3.2,0.5,6.4,1.8,9.4c1.2,2.5,3.7,4.9,7.7,7.3h-61.9
	C839.6,398.2,842.2,395.8,843.3,393.3z"/>
<path class="st0" d="M1069.4,395.7c-9-5-13.5-11.9-13.5-20.7c0-5.9,1.9-10.5,5.8-13.6c3.9-3.2,8.8-4.8,13.9-4.7
	c5.4-0.1,10.6,1.7,14.8,5c4.2,3.1,6.6,8.1,6.5,13.3c0,3.5-1.3,6.9-3.5,9.7c-0.2,0.4-0.6,1-1.2,2c-0.6,1-1,2.2-0.9,3.4
	c0,2.4,1.2,4.7,3.1,6.2c2,1.8,4.5,2.7,7.1,2.7c4,0,7.9-1.8,10.4-5c2.8-3.3,4.3-7.4,4.2-11.7c0-4.3-1.8-8.3-5.5-11.8
	s-9.4-8-17.1-13.2c-9.5-6.5-16.7-12.3-21.5-17.4c-4.7-4.8-7.3-11.2-7.3-17.9c0-12.7,5.7-21.7,17-26.8c11.5-5.2,24-7.8,36.6-7.7
	c5.7,0,11.4,0.6,17,1.6c1.3,0.2,2.6,0.4,4,0.5c1.4,0.2,2.9,0.3,4.3,0.3c3.1,0,5.4-0.8,7-2.4v29.6c-8.3-16.9-18.1-25.3-29.6-25.3
	c-3.5,0-6.8,1.3-9.3,3.8c-2.6,2.4-4,5.9-3.9,9.4c0,4.3,1.8,8.3,5.5,12c3.7,3.7,9.4,8.2,17.1,13.6c9.3,6.7,16.5,12.6,21.4,17.8
	c4.8,4.9,7.5,11.5,7.4,18.3c0,13.3-5.5,22.7-16.4,28.3c-10.9,5.6-24.7,8.3-41.3,8.3C1089,403.2,1078.4,400.7,1069.4,395.7z"/>
<path class="st0" d="M75.1,380.6c7.4-14.2,17.2-27.1,28.1-39.3c33.2-37.1,68.6-72.3,101.2-109.9C261,166.5,266.9,89,222.9,15.2
	c-2.3-3.9-4.4-8-6.6-12c5.5,2.9,10.1,7.3,13.1,12.8c43.3,74.7,39,148.6-8,219c-22.3,33.4-50.6,62.9-77,93.5
	c-18.4,21.3-32.2,46.3-40.4,73.3c14.5,8.8,30,15.9,46.2,21.1c-0.7-7.2-0.5-14.4,0.8-21.5c6.8-39.7,26.4-73,51.6-103.9
	c43.8-53.5,73-112.7,67.5-184.6c-3.1-40.6-12.7-78.7-35-112C229.1,0.3,222.9,0,216.6,0C97,0,0,97,0,216.6
	C-0.1,279.6,27.4,339.5,75.1,380.6z M124.4,136.4c26.4-7,50.3,16.8,43.4,43.1c-2.8,10.6-14.3,19.8-25.6,19.6
	c-10.1-0.2-18.1-3.7-20.5-18.2c13.9,17.5,31.4,18,38.7,2.8c5.2-10.8,3.9-21.9-3.4-31.3c-7-9-17.2-14.1-28.2-11.1
	c-29.5,7.9-52.2,38.8-28.3,72.5c15.9,22.4,39,26.1,64,11.6c46.1-26.8,73.2-85.9,63.4-141.7c-4-22.7-11-45-16.3-66.3
	c0.8,0.7,1.4,1.5,2,2.4c30.5,51,36.2,104.1,11.3,158.6c-14,30.6-33.5,57.7-66.8,70.5c-26.8,10.3-56.3,3.3-69-16.9
	C69.4,200.5,77.2,148.9,124.4,136.4z"/>
<path class="st0" d="M265.3,5.5c32.4,31.2,51.5,71.6,60,120l13.9-7.8c0.4,3.3-0.3,5.1-1.6,6.5c-13.7,14-14.1,19.1-1.7,34.3
	c3.5,4.3,7.5,8.2,11.8,11.6c10.3,8.2,21.2,15.8,31.5,24c10.7,8.5,10.8,14.7,0.5,23.9c-4.8,4.3-10.2,7.8-14.7,12.2
	c-8.8,8.6-9.2,18.5-1.7,25.8c13.6,13.2,13.5,14.3-1.5,26.7c13.7,13.3,13.1,17.7-0.3,30.4c-3,2.8-3.5,10.9-1.9,15.4
	c10.2,28.7-3.4,50.8-34.4,52.6c-13.2,0.6-26.4-0.1-39.4-2.1c-49-7.1-82,5.9-103.1,42.7c-1.5,2.6-2.9,5.4-4.2,8.2
	c12.6,2.3,25.3,3.4,38.1,3.4c119.6,0,216.6-97,216.6-216.6C433.2,113.7,361.4,27.6,265.3,5.5z"/>
</svg>
