<?xml version="1.0" encoding="utf-8"?>
<!-- Generator: Adobe Illustrator 24.0.0, SVG Export Plug-In . SVG Version: 6.00 Build 0)  -->
<svg version="1.1" id="Layer_1" xmlns="http://www.w3.org/2000/svg" xmlns:xlink="http://www.w3.org/1999/xlink" x="0px" y="0px"
	 viewBox="0 0 999.6 572.8" style="enable-background:new 0 0 999.6 572.8;" xml:space="preserve">
<style type="text/css">
	.st0{fill:#666666;}
</style>
<path class="st0" d="M30.3,468.9c-9.2-5.1-16.8-12.6-22.1-21.7c-10.9-19.4-10.9-43.1,0-62.5c5.3-9,12.9-16.5,22.1-21.6
	c19.1-10.3,42.1-10.3,61.2,0c9.1,5,16.7,12.5,21.9,21.6c10.7,19.5,10.7,43-0.1,62.5c-5.2,9.1-12.8,16.6-21.9,21.7
	C72.3,479.3,49.3,479.3,30.3,468.9L30.3,468.9z M83.5,440.9c5.7-6.3,8.5-14.6,8.5-25c0-10.5-2.8-18.8-8.5-25
	c-5.7-6.2-13.2-9.3-22.7-9.4c-9.5,0-17.2,3.1-22.8,9.3c-5.7,6.2-8.5,14.6-8.5,25.1c0,10.5,2.8,18.8,8.5,25
	c5.7,6.2,13.3,9.3,22.8,9.4C70.3,450.4,77.8,447.3,83.5,440.9L83.5,440.9z"/>
<path class="st0" d="M251.6,475.5h-28.8l-48.2-73v73h-28.8V357.2h28.8l48.2,73.3v-73.3h28.8L251.6,475.5z"/>
<path class="st0" d="M309.8,380.3v23.9h38.6v22.2h-38.6v26h43.7v23.1H281V357.2h72.5v23.1H309.8z"/>
<path class="st0" d="M406.1,469c-9.1-5-16.6-12.4-21.8-21.4c-10.7-19.2-10.7-42.6,0-61.8c5.2-8.9,12.7-16.3,21.8-21.3
	c18.8-10.2,41.5-10.2,60.3,0c9,5,16.5,12.4,21.7,21.3c10.6,19.2,10.6,42.5,0,61.8c-5.1,9-12.6,16.4-21.7,21.4
	C447.6,479.3,424.9,479.3,406.1,469z M456.9,454.7c6.1-3.6,11.1-8.8,14.2-15.2c3.4-6.6,5.1-14.2,5.1-22.8c0-8.7-1.7-16.2-5.1-22.8
	c-3.2-6.3-8.1-11.5-14.2-15c-12.9-7-28.5-7-41.5,0c-6.1,3.5-11.1,8.7-14.2,15c-3.4,6.5-5.1,14.1-5.1,22.8c0,8.7,1.7,16.3,5.1,22.8
	c3.2,6.3,8.1,11.6,14.2,15.2C428.4,461.8,444,461.8,456.9,454.7z"/>
<path class="st0" d="M619.5,475.5h-19.2l-57.8-87.5v87.5h-19.2V358.2h19.2l57.8,87.3v-87.3h19.2V475.5z"/>
<path class="st0" d="M676.4,468.9c-9.2-5.1-16.8-12.6-22.1-21.7c-10.9-19.4-10.9-43.1,0-62.5c5.3-9,12.9-16.5,22.1-21.6
	c19.1-10.3,42.1-10.3,61.2,0c9.1,5,16.7,12.5,21.9,21.6c10.7,19.4,10.7,43-0.1,62.5c-5.2,9.1-12.8,16.6-21.9,21.7
	C718.5,479.3,695.5,479.3,676.4,468.9L676.4,468.9z M729.7,440.9c5.7-6.3,8.5-14.6,8.5-25c0-10.5-2.8-18.8-8.5-25
	c-5.7-6.2-13.2-9.3-22.7-9.4c-9.5,0-17.2,3.1-22.8,9.3c-5.7,6.2-8.5,14.6-8.5,25.2c0,10.5,2.8,18.8,8.5,25s13.3,9.3,22.8,9.4
	C716.5,450.4,724,447.3,729.7,440.9L729.7,440.9z"/>
<path class="st0" d="M897.8,475.5H869l-48.2-73v73H792V357.2h28.8l48.2,73.3v-73.3h28.8V475.5z"/>
<path class="st0" d="M955.9,380.3v23.9h38.6v22.2h-38.6v26h43.7v23.1h-72.5V357.2h72.5v23.1H955.9z"/>
<path class="st0" d="M165,531.6c3.7,1.8,6.7,4.6,8.7,8.2c2.1,3.8,3.1,8.1,3,12.5c0.1,4.3-0.9,8.6-3,12.4c-2,3.5-5,6.3-8.7,8
	c-4.1,1.9-8.5,2.9-13,2.8h-15.3v-46.6h15.2C156.5,528.7,160.9,529.6,165,531.6z M164.5,564.7c2.9-3,4.4-7.1,4.4-12.5
	c0-5.4-1.5-9.6-4.4-12.7c-2.9-3-7.1-4.6-12.5-4.6h-7.6v34.2h7.6C157.4,569.2,161.6,567.7,164.5,564.7L164.5,564.7z"/>
<path class="st0" d="M198.7,528.8v46.7H191v-46.7H198.7z"/>
<path class="st0" d="M249.2,542.2c-1.1-2.2-2.8-4.1-5-5.3c-2.3-1.2-4.9-1.8-7.5-1.8c-2.9-0.1-5.7,0.7-8.3,2.1
	c-2.4,1.4-4.4,3.4-5.7,5.9c-1.4,2.7-2.1,5.8-2,8.9c-0.1,3.1,0.6,6.1,2,8.9c1.3,2.5,3.2,4.6,5.7,5.9c2.5,1.4,5.4,2.1,8.3,2.1
	c3.7,0.2,7.3-1.1,10.1-3.5c2.7-2.5,4.4-5.8,4.8-9.5h-17.5v-6.1h25.7v6c-1.5,11.6-11.4,20.1-23.1,20c-4.2,0-8.4-1-12-3.1
	c-3.6-2-6.6-4.9-8.6-8.5c-4.2-7.6-4.2-16.9,0-24.6c2.1-3.6,5.1-6.5,8.7-8.5c7.9-4.3,17.5-4,25.2,0.6c3.9,2.4,6.8,6.1,8.4,10.4
	L249.2,542.2z"/>
<path class="st0" d="M281.7,528.8v46.7h-7.7v-46.7H281.7z"/>
<path class="st0" d="M328.6,528.8v6.3h-12.4v40.4h-7.7V535h-12.5v-6.2H328.6z"/>
<path class="st0" d="M371.2,565.9h-19.5l-3.4,9.5h-8l16.7-46.7h8.9l16.7,46.7h-8L371.2,565.9z M369,559.6l-7.6-21.7l-7.7,21.7H369z"
	/>
<path class="st0" d="M404.2,569.2H420v6.2h-23.4v-46.6h7.7V569.2z"/>
<path class="st0" d="M464.1,574.2c-2.4-1-4.4-2.6-5.9-4.7c-1.4-2-2.2-4.5-2.2-7h8.2c0.1,1.9,1,3.7,2.4,5c1.7,1.4,3.8,2.1,6,2
	c2.2,0.1,4.4-0.5,6.2-1.9c1.5-1.2,2.3-3,2.2-4.9c0.1-1.4-0.4-2.8-1.4-3.8c-1-1-2.1-1.8-3.4-2.3c-1.9-0.7-3.8-1.3-5.7-1.8
	c-2.5-0.6-5-1.4-7.4-2.5c-1.9-0.8-3.6-2.2-4.9-3.9c-1.4-2-2.1-4.5-2-7c0-2.5,0.6-4.9,2-7c1.4-2.1,3.4-3.7,5.6-4.6
	c2.7-1.1,5.5-1.7,8.4-1.6c4.5,0,8.2,1.1,11.1,3.4c2.9,2.2,4.6,5.6,4.8,9.3h-8.5c-0.1-1.7-1-3.3-2.4-4.4c-1.7-1.3-3.7-1.9-5.8-1.8
	c-1.9-0.1-3.8,0.5-5.4,1.7c-1.4,1.2-2.2,3-2.1,4.8c0,1.3,0.4,2.6,1.3,3.5c0.9,1,2.1,1.7,3.3,2.2c1.8,0.7,3.6,1.3,5.5,1.7
	c2.6,0.7,5.1,1.5,7.5,2.5c2,0.9,3.7,2.2,5,3.9c1.4,2.1,2.1,4.6,2,7.1c0,2.4-0.7,4.7-1.9,6.7c-1.3,2.2-3.3,3.9-5.6,5.1
	c-2.7,1.3-5.6,2-8.6,1.9C469.7,576,466.8,575.4,464.1,574.2z"/>
<path class="st0" d="M513.8,572.8c-3.6-2-6.6-4.9-8.7-8.5c-4.3-7.7-4.3-17,0-24.6c2.1-3.6,5.1-6.5,8.7-8.5c7.5-4.1,16.5-4.1,24,0
	c3.6,2,6.6,4.9,8.6,8.5c4.2,7.7,4.2,16.9,0,24.6c-2,3.6-5,6.5-8.6,8.5C530.3,576.9,521.3,576.9,513.8,572.8z M534,567.1
	c2.4-1.4,4.4-3.5,5.7-6c2.7-5.7,2.7-12.4,0-18.2c-1.3-2.5-3.2-4.6-5.7-6c-5.2-2.8-11.4-2.8-16.5,0c-2.4,1.4-4.4,3.5-5.7,6
	c-2.7,5.7-2.7,12.4,0,18.2c1.3,2.5,3.2,4.6,5.7,6C522.6,569.9,528.9,569.9,534,567.1z"/>
<path class="st0" d="M571.5,569.2h15.8v6.2h-23.4v-46.6h7.7V569.2z"/>
<path class="st0" d="M607.9,528.8v29.7c0,3.5,0.9,6.2,2.8,8c1.8,1.8,4.4,2.7,7.8,2.7s6-0.9,7.8-2.7s2.8-4.5,2.8-8v-29.7h7.6v29.6
	c0.1,3.4-0.8,6.7-2.5,9.7c-1.6,2.6-3.9,4.6-6.6,5.9c-2.9,1.3-6,2-9.2,2c-3.2,0-6.3-0.7-9.2-2c-2.7-1.3-5-3.3-6.6-5.9
	c-1.7-2.9-2.5-6.3-2.4-9.7v-29.6H607.9z"/>
<path class="st0" d="M683.5,528.8v6.3h-12.4v40.4h-7.7V535H651v-6.2H683.5z"/>
<path class="st0" d="M705.6,528.8v46.7h-7.7v-46.7H705.6z"/>
<path class="st0" d="M731.7,572.8c-3.6-2-6.6-4.9-8.7-8.5c-4.3-7.7-4.3-17,0-24.6c2.1-3.6,5.1-6.5,8.7-8.5c7.5-4.1,16.5-4.1,24,0
	c3.6,2,6.6,4.9,8.6,8.5c4.2,7.7,4.2,16.9,0,24.6c-2,3.6-5,6.5-8.6,8.5C748.2,576.9,739.2,576.9,731.7,572.8z M751.9,567.1
	c2.4-1.4,4.4-3.5,5.7-6c2.7-5.7,2.7-12.4,0-18.2c-1.3-2.5-3.2-4.6-5.7-6c-5.2-2.8-11.4-2.8-16.5,0c-2.4,1.4-4.4,3.5-5.7,6
	c-2.7,5.7-2.7,12.4,0,18.2c1.3,2.5,3.2,4.6,5.7,6C740.6,569.9,746.8,569.9,751.9,567.1z"/>
<path class="st0" d="M820,575.4h-7.7l-23-34.8v34.8h-7.7v-46.7h7.7l23,34.8v-34.8h7.7L820,575.4z"/>
<path class="st0" d="M843.7,574.2c-2.4-1-4.4-2.6-5.9-4.7c-1.4-2-2.2-4.5-2.2-7h8.2c0.1,1.9,1,3.7,2.4,5c1.7,1.4,3.8,2.1,5.9,2
	c2.2,0.1,4.4-0.5,6.2-1.9c1.4-1.2,2.3-3,2.2-4.9c0.1-1.4-0.4-2.8-1.4-3.8c-1-1-2.1-1.8-3.4-2.3c-1.9-0.7-3.7-1.3-5.7-1.8
	c-2.5-0.6-5-1.5-7.4-2.5c-1.9-0.8-3.6-2.2-4.9-3.9c-1.4-2-2.1-4.5-2-7c-0.1-2.5,0.6-4.9,2-7c1.4-2.1,3.4-3.7,5.6-4.6
	c2.7-1.1,5.5-1.7,8.4-1.6c4.5,0,8.2,1.1,11.1,3.4c2.9,2.3,4.6,5.6,4.8,9.3h-8.5c-0.2-1.7-1-3.3-2.4-4.4c-1.7-1.3-3.7-1.9-5.8-1.8
	c-1.9-0.1-3.8,0.5-5.4,1.7c-1.4,1.2-2.2,3-2.1,4.8c0,1.3,0.4,2.6,1.3,3.5c0.9,1,2.1,1.7,3.3,2.2c1.8,0.7,3.6,1.3,5.5,1.7
	c2.6,0.7,5.1,1.5,7.6,2.5c2,0.9,3.7,2.2,5,3.9c1.4,2.1,2.1,4.6,2,7.1c0,2.4-0.7,4.7-1.9,6.7c-1.3,2.2-3.3,3.9-5.6,5.1
	c-2.7,1.3-5.6,2-8.6,1.9C849.2,576,846.4,575.4,843.7,574.2z"/>
<path class="st0" d="M148.9,289.5h47.2c46-57.6,116.8-94.6,196.1-94.6s150.1,37,196,94.6h47.2c-41.7-64.7-108.5-111.8-186.5-127.4
	c39.3-31.3,45.8-88.5,14.5-127.8C432-5,374.8-11.5,335.5,19.8s-45.8,88.5-14.5,127.8c4.3,5.4,9.2,10.3,14.5,14.5
	C257.5,177.7,190.7,224.8,148.9,289.5z"/>
<path class="st0" d="M618.6,224.8c62,0,121.9,23,167.8,64.7h53.2C797.4,239.3,739.4,205,675.2,192c39.3-31.3,45.8-88.5,14.5-127.8
	s-88.5-45.8-127.8-14.5c-39.3,31.3-45.8,88.5-14.5,127.8c4.3,5.4,9.2,10.3,14.5,14.5c-64.2,12.9-122.2,47.2-164.4,97.4h53.2
	C496.7,247.8,556.5,224.7,618.6,224.8z"/>
</svg>
