<?xml version="1.0" encoding="utf-8"?>
<!-- Generator: Adobe Illustrator 24.0.0, SVG Export Plug-In . SVG Version: 6.00 Build 0)  -->
<svg version="1.1" id="Layer_1" xmlns="http://www.w3.org/2000/svg" xmlns:xlink="http://www.w3.org/1999/xlink" x="0px" y="0px"
	 viewBox="0 0 1480.3 289.8" style="enable-background:new 0 0 1480.3 289.8;" xml:space="preserve">
<style type="text/css">
	.st0{fill:#666666;}
</style>
<path class="st0" d="M815.6,276h-12.5l-6.8-5.7c-3,2.7-4.7,4.1-5.1,4.4c-1.9,1-4.1,1.5-6.3,1.3h-14.6c-4.6,0-7.6-1-8.8-2.9
	c-1-1.4-1.4-4.6-1.4-9.5c-0.1-1.6,0.3-3.3,1.3-4.6c1.1-1.2,2.4-2.2,3.8-3l8.4-5c-1.3-1-2.3-2.3-3-3.7c-0.4-1.6-0.5-3.2-0.5-4.8
	c0-3.1,1-5.2,3.1-6.3c1.4-0.8,3.8-1.2,7.1-1.2h8.3c3.6,0,6.2,0.5,7.5,1.4c1.8,1.2,2.6,3.4,2.6,6.8v2.4l-7.4,1.3v-5.5h-13.4v2.9
	l19.3,16.1l9.5-8l5.4,4.7l-9.5,7.9L815.6,276z M790.9,265.6l-12.3-10.3l-10.5,6.5v7h19L790.9,265.6z"/>
<path class="st0" d="M890.9,266.3c0,3.8-0.7,6.4-2.2,7.7s-4.1,2-8,2h-25.4c-4.2,0-7-0.7-8.3-2.2c-1.3-1.5-2-4.3-2-8.6l8.4-1.8v4.8
	h29v-9.4h-25.6c-3.9,0-6.5-0.7-8-2c-1.5-1.3-2.2-3.9-2.2-7.7v-4.5c0-3.8,0.7-6.4,2.2-7.7s4.1-2,8-2h23.3c3.9,0,6.6,0.7,8,2
	c1.4,1.3,2.1,3.9,2.2,7.8l-8.4,2v-4.7H855v8.8h25.6c3.9,0,6.5,0.7,8,2c1.5,1.3,2.2,3.9,2.2,7.7L890.9,266.3z"/>
<path class="st0" d="M957.7,266.3c0,3.8-0.7,6.4-2.2,7.7c-1.5,1.3-4.1,2-8,2h-30.2c-3.9,0-6.5-0.7-8-2c-1.4-1.3-2.2-3.9-2.2-7.7
	v-21.6c0-3.8,0.7-6.4,2.2-7.7s4.1-2,8-2h30.2c3.9,0,6.5,0.7,8,2s2.2,3.9,2.2,7.7V266.3z M948.2,268.3v-26h-31.5v26H948.2z"/>
<path class="st0" d="M1023.3,276h-6.5l-30.1-25.4c-1.2-1-2.4-2.1-3.4-3.3c0.3,2.7,0.4,4.8,0.4,6.3V276h-8.6V235h6.5l28.9,24.2
	c1.7,1.4,3.2,2.9,4.7,4.5c-0.3-3.8-0.4-6.2-0.4-7.1V235h8.6L1023.3,276z"/>
<path class="st0" d="M1086.1,266.3c0,3.8-0.7,6.4-2.2,7.7c-1.5,1.3-4.2,2-8,2h-25.4c-4.2,0-7-0.7-8.3-2.2c-1.3-1.5-2-4.3-2-8.6
	l8.4-1.8v4.8h29v-9.4H1052c-3.9,0-6.5-0.7-8-2s-2.2-3.9-2.2-7.7v-4.5c0-3.8,0.7-6.4,2.2-7.7s4.1-2,8-2h23.3c3.9,0,6.6,0.7,8,2
	c1.4,1.3,2.1,3.9,2.2,7.8l-8.4,2v-4.7h-26.9v8.8h25.6c3.9,0,6.5,0.7,8,2c1.5,1.3,2.2,3.9,2.2,7.7L1086.1,266.3z"/>
<path class="st0" d="M1179.5,276h-6.5l-30.2-25.4c-1.2-1-2.4-2.1-3.4-3.3c0.3,2.7,0.4,4.7,0.4,6.3V276h-8.6V235h6.5l28.9,24.2
	c1.7,1.4,3.2,2.9,4.7,4.5c-0.3-3.8-0.4-6.2-0.4-7.1V235h8.6L1179.5,276z"/>
<path class="st0" d="M1207.3,276h-9.6V235h9.6L1207.3,276z"/>
<path class="st0" d="M1273.4,266.3c0,3.8-0.7,6.4-2.2,7.7c-1.4,1.3-4.1,2-8,2h-28.3c-3.9,0-6.5-0.7-8-2s-2.2-3.9-2.2-7.7v-21.6
	c0-3.8,0.7-6.4,2.2-7.7c1.4-1.3,4.1-2,8-2h28.3c4.1,0,6.8,0.7,8.2,2.1s2,4.1,2,8.2l-9.3,1.7v-4.6h-29.8v26h29.8v-9.2h-15.6v-7h24.9
	L1273.4,266.3z"/>
<path class="st0" d="M1359.3,276H1319V235h9.6v33.3h30.8L1359.3,276z"/>
<path class="st0" d="M1399.1,242.3h-18.9V276h-9.6v-33.7h-18.9V235h47.3V242.3z"/>
<path class="st0" d="M1458,255.2c0,8-3,13.8-9.1,17.6c-3.5,2.1-9.1,3.2-16.9,3.2h-24V235h26.4c7.1,0,12.7,1.6,16.7,4.8
	C1455.8,243.2,1458,248.4,1458,255.2z M1448.1,255.1c0-8.5-4.5-12.8-13.5-12.8h-17v26h12.3c5.8,0,10.1-0.7,12.7-2.2
	C1446.3,264.1,1448.1,260.4,1448.1,255.1z"/>
<path class="st0" d="M1481.6,273.1c0.1,0.8-0.1,1.7-0.5,2.4c-0.3,0.3-1.2,0.5-2.5,0.5h-7.5c-1.3,0-1.9-1-1.9-2.9v-6.5
	c-0.1-0.8,0.1-1.7,0.5-2.4c0.7-0.4,1.6-0.6,2.5-0.5h7.5c1.3,0,1.9,1,1.9,2.9V273.1z"/>
<path class="st0" d="M388.3,122.1c4.8-9.8,7.3-20.5,7.3-31.5V60.1L335.5,0h-93.3v59.7h68.6l25.2,25.1v5.8c0,7.1-5.7,12.8-12.8,12.8
	c0,0,0,0,0,0h-66v59.9h83.1c7.1,0,12.8,5.7,12.8,12.8v29l-25.2,25h-86.2v-156H182v215.7h170.6l60.1-60.1v-53.6
	C412.7,155.5,403.8,135.8,388.3,122.1z"/>
<polygon class="st0" points="0,0 0,59.7 84,59.7 84,226.4 144.5,226.4 144.5,59.7 241.6,59.7 241.6,59.7 242.2,59.7 242.2,0 "/>
<path class="st0" d="M601.8,194v-20.8c-11.5,13.2-28.1,20.7-45.5,20.8c-34.2,0-62-29-62-64.8s27.8-64.8,62-64.8
	c17.5,0.1,34.1,7.6,45.5,20.8V64.4h32.9V194H601.8z M564.6,97.3c-20.6,0-37.3,14.3-37.3,31.9S544,161,564.6,161
	c20.6,0,37.3-14.3,37.3-31.9S585.2,97.3,564.6,97.3L564.6,97.3z"/>
<path class="st0" d="M691,14.9v97.5l56.7-48.1h50.8l-56.6,48l56.6,81.7h-40l-41.8-60.3l-25.8,21.8V194H658V15L691,14.9z"/>
<path class="st0" d="M864.1,64.4c38.8,0,70.2,29,70.2,64.8S902.9,194,864.1,194s-70.2-29-70.2-64.8S825.3,64.4,864.1,64.4z
	 M901.4,129.2c0-17.6-16.7-31.9-37.3-31.9s-37.3,14.3-37.3,31.9s16.7,31.9,37.3,31.9S901.4,146.8,901.4,129.2z"/>
<path class="st0" d="M984.4,64.4v15.9c10.3-11.2,24-16.5,37.2-15.9v37.2c-14.9-7.4-37.2,0-37.2,26.7V194h-33V64.4H984.4z"/>
<path class="st0" d="M1102.4,64.4c38.8,0,70.2,29,70.2,64.8c0,4.2-0.4,8.4-1.3,12.5h-103.2c5.7,11.4,18.9,19.3,34.3,19.3
	c8.2,0.1,16.2-2.3,23-6.8h41.8c-10.6,23.3-35.6,39.8-64.8,39.8c-38.8,0-70.2-29-70.2-64.8S1063.7,64.4,1102.4,64.4z M1102.4,97.3
	c-15.4,0-28.6,8-34.3,19.3h68.6C1131,105.3,1117.8,97.3,1102.4,97.3L1102.4,97.3z"/>
<path class="st0" d="M1245.6,64.4c17.5,0.1,34,7.6,45.5,20.8V14.9h32.9v179h-32.9v-20.8c-11.5,13.2-28.1,20.7-45.5,20.8
	c-34.2,0-62-29-62-64.8S1211.4,64.4,1245.6,64.4z M1291.1,129.2c0-17.6-16.7-31.9-37.3-31.9s-37.3,14.3-37.3,31.9
	s16.7,31.9,37.3,31.9S1291.1,146.8,1291.1,129.2z"/>
<path class="st0" d="M1411.4,64.4c38.8,0,70.2,29,70.2,64.8c0,4.2-0.4,8.4-1.3,12.5h-103.2c5.7,11.4,18.9,19.3,34.3,19.3
	c8.2,0.1,16.2-2.3,23-6.8h41.8c-10.6,23.3-35.6,39.8-64.8,39.8c-38.8,0-70.2-29-70.2-64.8S1372.6,64.4,1411.4,64.4z M1411.4,97.3
	c-15.4,0-28.6,8-34.3,19.3h68.6C1440,105.3,1426.8,97.3,1411.4,97.3L1411.4,97.3z"/>
</svg>
