<?xml version="1.0" encoding="utf-8"?>
<!-- Generator: Adobe Illustrator 24.0.0, SVG Export Plug-In . SVG Version: 6.00 Build 0)  -->
<svg version="1.1" id="Layer_1" xmlns="http://www.w3.org/2000/svg" xmlns:xlink="http://www.w3.org/1999/xlink" x="0px" y="0px"
	 viewBox="0 0 1748 584.8" style="enable-background:new 0 0 1748 584.8;" xml:space="preserve">
<style type="text/css">
	.st0{fill:#666666;}
	.st1{fill:#2F5C63;}
	.st2{font-family:'Poppins-Medium';}
	.st3{font-size:61.27px;}
</style>
<path class="st0" d="M880.3,168c-1,1.3-3.2,4.7-6.2,9.9c68.2-10,200.7-22.9,207-22.5c1.6,0.1-1.5,14-6.4,13.6
	c-5.4-0.4-140.4,13.5-209,23.3c-26,44.7-78,138.1-97.8,179.8c-7,14.7-12.3,27.8-14.7,37.8c-2,8.2-2,13.5,0.5,14.6
	c1.2,0.5,2.2,0.1,3.4,0.4c3.2,0.6,2.4,7-2.6,7.8c-2.2,0.2-4.5-0.4-6.3-1.7c-5.2-3.7-6.2-11.8-4-22.8c2-10.6,7-24.4,13.5-39.8
	c16.8-39.3,61.9-124.6,88.4-173.2c-82.5,12.9-163.1,32.5-146.3,57.4c12.3,20.2,48,26.7,76.8,22.6c3.6,0.1,0,11.8-4.2,12.3
	c-22.2,3.9-86.4-7.3-84.4-38.8c2-32.6,84.7-54.4,165.9-67.7c6.2-11.1,10.5-18.6,12-20.8c1.4-0.3,2.7-0.4,4.1-0.3
	C876,159.9,885.4,161.1,880.3,168z"/>
<path class="st0" d="M857.5,296.8c0.9,0.8,1.5,1.5,0,1.6c-10.1,0.9-16.8,24.2-15.2,31.1c2.4,10.7,18.1-8.3,19.8-11
	c-1.9-0.1-3.7-0.5-5.4-1.3c-2.4-1.1-4.1-3.3-4.6-5.9c-0.4-2.2-0.1-4.6,0.9-6.6c5.5-12,21.8-6.5,16.5,8.9c4.4-0.8,8.7-2,12.9-3.5
	c1.1-0.4,2.4,0.2,2.8,1.3c0.5,1,0,2.2-1,2.7c0,0,0,0,0,0c-5.4,2-11,3.4-16.8,4.1c-0.4,0.7-0.8,1.4-1.2,2.1
	c-8.3,13.3-16.3,16.2-21.7,16.3c-2.2,0.1-4.5-1.2-6.9-2.4c-4.9-2.5-8.8-7.2-8.7-12.1c0.4-12.2,7.2-27.9,20.8-28.5h0.2
	C852,293.7,854.9,295,857.5,296.8z M859.3,306.7c-0.5,1.3-0.7,2.6-0.7,4c0,1,0.5,2,1.3,2.7c1.2,0.8,2.7,1.1,4.1,0.9
	c3-7.5,1.5-11.9-0.9-11.9C861.9,302.5,860.4,303.8,859.3,306.7L859.3,306.7z"/>
<path class="st0" d="M906.5,296.8c0.9,0.8,1.5,1.5,0,1.6c-10.1,0.9-16.8,24.2-15.2,31.1c2.4,10.7,18.1-8.3,19.8-11
	c-1.9-0.1-3.7-0.5-5.4-1.3c-2.4-1.1-4.1-3.3-4.6-5.9c-0.4-2.2-0.1-4.6,0.9-6.6c5.5-12,21.8-6.5,16.5,8.9c4.4-0.8,8.7-2,12.9-3.5
	c1.1-0.4,2.4,0.2,2.8,1.3c0.5,1,0,2.2-1,2.7c0,0,0,0,0,0c-5.4,2-11,3.4-16.8,4.1c-0.4,0.7-0.8,1.4-1.2,2.1
	c-8.3,13.3-16.3,16.2-21.7,16.3c-2.2,0.1-4.5-1.2-6.9-2.4c-5-2.5-8.8-7.2-8.7-12.1c0.4-12.2,7.2-27.9,20.8-28.5h0.2
	C901,293.7,903.9,295,906.5,296.8z M908.3,306.7c-0.5,1.3-0.7,2.6-0.7,4c0,1,0.5,2,1.3,2.7c1.2,0.8,2.7,1.1,4.1,0.9
	c3-7.5,1.5-11.9-0.9-11.9C910.9,302.5,909.4,303.8,908.3,306.7L908.3,306.7z"/>
<path class="st0" d="M979.1,235.5l-0.1,0.1c-0.1,0.2-0.2,0.4-0.3,0.6v0c-1.4,2.6-3,5.6-4.6,8.8c-0.5,1.2-1,2.5-1.4,3.8
	c-1.7,4.8-2.9,9-2.5,9.6c0.6,1,0.3,2.3-0.7,2.9c0,0,0,0,0,0c-1,0.6-2.4,0.3-3-0.7c0,0,0,0,0,0c0-0.1,0-0.1-0.1-0.1
	c-11.8,24.1-24.8,52.3-29.8,63.8c4.7-7.4,24.7-36.5,37.4-32.7c2.6,0.8,4.6,8.3,3.6,10.5c-3.9,8.4-20.1,22.3-33.4,31.6
	c3,9.2,46.3-20.7,48.8-22.5c4.2-3.1,6,0.3,1.8,3.4c-10.8,9.4-34.8,26.9-49.5,26.5c-4.1-0.1-7.9-2-10.6-5.1
	c-8.3,14.5-15.5,29.6-21.6,45.1c-0.8,1.2-6.5-2-5.9-6.7c1.2-5.4,15.5-43.2,20.2-54.4c3.4-8.2,31.3-69.1,43.3-92.5
	c0.4-0.2,0.7-0.2,1.1-0.2C975.2,227.1,981.3,231.4,979.1,235.5z M938.9,329.1c2.4-1.6,35.8-33.3,34.2-34.1
	C959.9,296.3,942,324.4,938.9,329.1z"/>
<path class="st0" d="M1027.8,303.4c-3.2,12.8-13.2,17.2-24,17.2c-1,3-1.9,6.9-1.8,8.7c0.8,14.3,35.6-16.2,37.9-18.2
	c3.6-3.1,6.2,0.9,2.5,4c-9.4,9.3-23,23-37.6,22.5c-9.3-0.3-16.6-10.5-15.4-16c2.6-12.7,12.6-29,26.8-29.7h0.2
	C1020.7,291.9,1029.2,297.4,1027.8,303.4z M1021.8,297.8c-5.7,0.8-11.9,9.3-15.8,17.6c14-2.7,18.7-17.6,15.9-17.6H1021.8z"/>
<path class="st0" d="M1056.2,301.6c-1.1,1.8-3.6,6.9-6.2,12.7c6.7-9.6,14.7-18.8,21.8-19.9c2.8-0.4,8.9,4.8,9.6,7.4
	c1,3.7-1.3,8.3-1.7,10c-0.6,2.3-10.5,2-8.4-3.7c0.9-2.4,4.8-10,2-9.6c-11.7,1.5-28.7,31.7-33.9,41.8c0.1,0.5-6,1.7-7.8-4.1
	c-0.2-0.7-0.2-1.5,0-2.2c2.3-7.5,15.9-40,15.9-40c0.3-0.5,1.2-0.8,2.3-0.8C1053.3,293.2,1059.6,296,1056.2,301.6z"/>
<path class="st0" d="M1325.9,302.7c1.7-1.9,3.1-2.8,4.3-2.8s1.7,0.7,1.7,2s-0.9,3.1-2.6,5.4c-2.3,2.8-5,6-8.2,9.4
	c-3.1,3.5-6.5,6.7-10,9.8c-3.4,3-6.9,5.7-10.7,8.1c-3.6,2.3-7,3.5-10.2,3.4c-4.7,0-8.5-2.2-11.3-6.6c-2.8-4.5-4.6-9.5-5.3-14.8
	c-1.7,2.1-3.5,4.3-5.3,6.8c-1.7,2.3-3.6,4.6-5.6,6.8c-1.7,1.9-3.6,3.6-5.6,5.2c-1.6,1.3-3.5,2-5.6,2.1c-1.9,0-4.3-0.9-7.1-2.8
	s-4.2-4.6-4.2-8.4c0.1-3.8,0.9-7.6,2.2-11.2c1.4-4,3.4-7.9,5.8-11.4c2.3-3.5,5.2-6.5,8.6-8.8c3.1-2.3,6.8-3.5,10.7-3.5
	c4.9,0,7.8,1.8,8.7,5.2c2.2,0.7,4,2.4,4.9,4.5c1,2,1.5,4.2,1.5,6.5c0,3.6-1,5.6-2.9,6.2v2.8c-0.1,3.4,0.5,6.8,1.8,10
	c1.2,2.9,3.7,4.4,7.5,4.4c2.8,0,6-1.1,9.7-3.2c3.8-2.3,7.3-4.9,10.6-7.8c3.4-3.1,6.6-6.2,9.6-9.4
	C1321.8,307.4,1324.2,304.7,1325.9,302.7z M1268.9,298.2c-2.2,1.6-4.3,3.6-6,5.8c-3.6,4.4-6.4,9.3-8.5,14.5
	c-0.7,1.7-1.2,3.5-1.3,5.4c0,1.1,0.4,1.7,1.1,1.7c1.1,0,3.2-1.7,6.3-5.2s7.4-9.7,12.9-18.7c0.5-0.8,0.8-1.6,0.9-2.5
	c0.1-1-0.5-1.9-1.5-2c-0.2,0-0.3,0-0.5,0C1271.1,297.2,1269.9,297.5,1268.9,298.2z"/>
<path class="st0" d="M1389.6,303.6c1.7-2.1,3.3-3.1,4.8-3.1c1.1,0,1.7,0.5,1.7,1.4c-0.3,1.2-0.7,2.3-1.4,3.3c-0.6,1-1.2,2-2,3
	c-11.3,12.4-22.1,21.8-32.4,28.3c-10.4,6.5-18.8,9.7-25.5,9.7c-7-0.1-11.9-2-14.7-5.7c-2.8-3.7-4.3-8.3-4.1-12.9
	c0.1-4,0.8-8,2.1-11.7c1.3-3.9,3.2-7.7,5.5-11.2c2.1-3.2,4.7-6,7.7-8.3c2.4-2,5.4-3.1,8.5-3.2c1.9-0.1,3.7,1.2,4.2,3
	c0.8,2.2,1.1,4.6,1.1,7c0,2.9-0.5,5.8-1.4,8.5c-0.9,2.6-1.9,4-3,3.9c-0.5,0-1-0.3-1.1-0.7c-0.2-0.6-0.3-1.1-0.4-1.7
	c-0.1-0.6-0.3-1.2-0.6-1.7c-0.3-0.5-0.9-0.8-1.6-0.7c-1.1,0.2-2.2,0.7-3,1.5c-1.3,1.1-2.5,2.4-3.6,3.8c-1.2,1.6-2.2,3.4-3,5.2
	c-0.8,1.7-1.3,3.6-1.3,5.5c0,2.2,1,4.2,2.6,5.6c1.8,1.6,4.9,2.5,9.5,2.5c3.5-0.2,7-0.9,10.2-2.3c4.6-1.8,9.1-4,13.4-6.5
	c5-3,9.8-6.3,14.4-9.9C1381.2,312.3,1385.6,308.1,1389.6,303.6z"/>
<path class="st0" d="M1465.6,304c1.7-1.9,3.1-2.8,4.3-2.8c1.1,0,1.7,0.7,1.7,2s-0.9,3.1-2.6,5.4c-2.3,2.8-5,6-8.2,9.4
	c-3.1,3.5-6.5,6.7-10,9.8c-3.4,3-6.9,5.7-10.7,8.1c-3.6,2.3-7,3.5-10.2,3.4c-4.7,0-8.5-2.2-11.3-6.6c-2.8-4.5-4.6-9.5-5.3-14.8
	c-1.7,2.1-3.5,4.3-5.3,6.8c-1.7,2.3-3.6,4.6-5.6,6.8c-1.7,1.9-3.6,3.6-5.6,5.2c-1.6,1.3-3.5,2-5.5,2.1c-1.9,0-4.3-0.9-7.1-2.8
	s-4.2-4.6-4.2-8.4c0.1-3.8,0.9-7.6,2.2-11.2c1.4-4,3.4-7.9,5.8-11.4c2.3-3.5,5.2-6.5,8.6-8.8c3.1-2.3,6.8-3.5,10.7-3.4
	c4.9,0,7.8,1.8,8.7,5.2c2.2,0.7,4,2.4,4.9,4.5c1,2,1.5,4.2,1.5,6.5c0,3.6-1,5.6-2.9,6.2v2.8c-0.1,3.4,0.5,6.8,1.8,10
	c1.2,2.9,3.7,4.4,7.5,4.4c2.8,0,6-1.1,9.7-3.2c3.8-2.3,7.3-4.9,10.6-7.8c3.4-3.1,6.6-6.2,9.6-9.4
	C1461.6,308.7,1463.9,306.1,1465.6,304z M1408.7,299.5c-2.2,1.6-4.3,3.6-6,5.8c-3.6,4.4-6.4,9.3-8.5,14.5c-0.7,1.7-1.2,3.5-1.3,5.4
	c0,1.1,0.4,1.7,1.1,1.7c1.1,0,3.2-1.7,6.3-5.2s7.4-9.7,12.9-18.7c0.5-0.8,0.8-1.6,0.9-2.5c0.1-1-0.5-1.9-1.5-2c-0.2,0-0.3,0-0.5,0
	C1410.9,298.5,1409.7,298.9,1408.7,299.5L1408.7,299.5z"/>
<path class="st0" d="M1525.4,304.9c1.7-1.9,3.1-2.8,4.3-2.8c0.9,0,1.4,0.6,1.4,1.7c0,1.9-1.2,4.1-3.5,6.5
	c-3.1,3.5-6.7,7.4-10.7,11.5c-4.1,4.1-8.3,8-12.7,11.6c-4.1,3.4-8.5,6.5-13.1,9.1c-4.4,2.4-8.3,3.6-11.7,3.6c-6,0-10.2-2.5-12.4-7.5
	c-2.2-4.9-3.3-11-3.2-18.2c0.1-5,0.5-10,1.3-15c0.8-5.3,1.8-10.7,3.1-16.1c1.3-5.5,2.7-10.8,4.1-16c1.5-5.2,2.9-10,4.3-14.6l-12-0.1
	c-4.1,0-55.2-0.6-59.8-0.9c-2.8,0-5.6-0.5-8.3-1.3c-1.6-0.6-2.4-1.3-2.4-2c0-1.6,2.1-2.4,6.3-2.4c3,0.2,6,0.7,8.9,1.4
	c2.7,0.7,52.3,1.5,54.9,1.5l7.1,0.1c2.3,0,4.5-0.1,6.8-0.2l0.6-1.7c1.2-3.7,6.5-24.5,7.6-25.9s2-2,3-2c1.5,0,2.7,1.2,3.7,3.7
	s-2.9,23-2.9,25.2c2.7-0.4,5.4-0.6,8.2-0.8c2.8-0.2,5.9-0.3,9.1-0.5c0.9-0.2,1.8-0.3,2.8-0.2c1.9,0,2.8,0.4,2.8,1.1
	c0,0.7-0.5,1.3-1.6,1.9c-1.2,0.6-2.3,1-3.6,1.4c-1.3,0.4-2.6,0.7-4,0.9c-1,0.1-2.1,0.2-3.1,0.2c-2.5,0.2-4.6,0.3-6.5,0.4
	c-1.9,0.1-3.8,0.1-5.7,0.1c-1.2,4.5-2.5,9.5-4,14.8c-1.5,5.4-2.8,10.8-4,16.4c-1.2,5.6-2.2,11-3,16.4c-0.8,4.7-1.2,9.5-1.3,14.3
	c-0.1,4.9,0.5,8.8,1.7,11.8c0.9,2.7,3.5,4.5,6.3,4.5c2.7,0,5.8-1.1,9.5-3.3c4-2.5,7.8-5.3,11.3-8.4c3.8-3.4,7.5-6.9,11.2-10.5
	C1519.8,310.9,1522.8,307.7,1525.4,304.9z"/>
<path class="st0" d="M1537.3,307.5c-1.2,3-2.3,6.5-3.5,10.6c-1.1,3.4-1.7,7-1.8,10.6c0,3.8,1.2,5.7,3.6,5.7c3.6-0.8,7.1-2.1,10.3-4
	c4-2.3,7.9-4.8,11.7-7.5c4-2.9,7.8-6,11.4-9.2c3.6-3.3,6.7-6.2,9.2-8.8c1.7-1.7,3.1-2.5,4.3-2.5c0.9,0,1.4,0.6,1.4,1.7
	c0,1.7-1.2,3.8-3.5,6.2c-2.9,3-6.1,6.2-9.7,9.5s-7.4,6.5-11.3,9.5c-3.7,2.8-7.5,5.5-11.6,7.8c-3.1,2-6.6,3.4-10.3,4.2
	c-0.8,0.2-1.7,0.3-2.6,0.3c-4.7,0-8-2.3-9.9-6.9c-1.9-4.8-2.8-9.9-2.7-15c0-4.8,0.6-9.5,1.8-14.2c0.8-2.8,2.5-4.2,5.1-4.2
	c2,0,3.9,0.6,5.5,1.8C1536.4,304,1537.3,305.7,1537.3,307.5z M1532.4,285.6c-2.2,0-3.3-1.2-3.3-3.6c0.9-3,2.3-5.7,4.2-8.2
	c2.1-2.7,4.2-4,6.4-4c0.7,0.1,1.5,0.2,2.2,0.3c1.1,0.2,1.8,1.2,1.7,2.3c-0.1,1.1-0.4,2.2-0.9,3.2c-0.6,1.6-1.5,3.1-2.5,4.5
	c-1.1,1.4-2.3,2.7-3.7,3.8C1535.5,285,1534,285.6,1532.4,285.6z"/>
<path class="st0" d="M1602.1,294c2.9,2.6,5.2,5.9,6.6,9.6c1.4,3.6,2,7.4,2,11.2c-0.1,6.4-2.3,12.6-6.3,17.7c-1.9,2.5-4.4,4.5-7.1,6
	c-2.8,1.5-5.9,2.2-9,2.2c-5.3,0-9.1-1.9-11.3-5.5c-2.3-3.9-3.4-8.3-3.3-12.8c0.1-3.7,0.6-7.4,1.7-10.9c1-3.6,2.6-7,4.6-10.2
	c1.9-3,4.3-5.5,7.2-7.6c2.7-1.9,5.9-3,9.2-3.2C1598.8,290.4,1601,291.8,1602.1,294z M1599.5,300.5c-2,1.4-3.8,3-5.3,4.9
	c-2.1,2.4-4.1,5-5.8,7.7c-1.8,2.8-3.3,5.6-4.7,8.6c-1.2,2.3-1.8,4.9-2,7.5c0,3,1.6,4.6,5,4.6c2.5-0.2,4.7-1.4,6.4-3.2
	c1.9-2,3.6-4.4,4.8-6.9c1.3-2.6,2.3-5.3,2.9-8.2c0.5-2.3,0.8-4.7,0.9-7.1C1601.6,305.6,1600.9,302.9,1599.5,300.5L1599.5,300.5z"/>
<path class="st0" d="M1647.3,307.4c-4,7.3-7.2,13.4-9.5,18.3c1.1-0.9,2.5-2.1,4-3.5s3.2-2.8,4.9-4.2c1.6-1.3,3.3-2.6,5.1-3.6
	c1.4-0.9,3.1-1.5,4.8-1.5c1.9,0,3.6,1.2,5.1,3.5c3.3,5.5,7.2,9.5,11.7,12c4.3,2.5,9.1,3.8,14,3.8c4.7,0,9.4-0.7,13.9-2.1
	c4.8-1.5,9.5-3.4,14-5.8c4.6-2.4,9.1-5.2,13.4-8.1c4.4-3,8.4-6,12-9c2.1-1.9,4-2.8,5.7-2.8c1.1,0,1.7,0.5,1.7,1.4
	c0,1.5-1.3,3.4-4,5.6c-4,3.3-8.3,6.6-13,9.9c-4.7,3.3-9.5,6.2-14.6,8.9c-4.9,2.6-10,4.7-15.2,6.4c-4.9,1.5-9.9,2.3-15.1,2.3
	c-5.4,0-10.7-1.3-15.4-3.8c-4.8-2.5-9.2-6.8-13.3-12.9c-9.7,9.6-16.6,15.3-20.6,17.4c-1.3,0.7-2.8,1.1-4.3,1.1
	c-2.1,0-4.1-0.8-5.6-2.1c-1.7-1.6-2.5-3.8-2.3-6.1c0-0.9,0.1-1.7,0.3-2.5c1.2-4.5,4.4-11.8,9.8-21.7c1-2.2,2.6-4.2,4.6-5.6
	c1.4-1,3.1-1.6,4.8-1.7c2.7,0,4,1.2,3.9,3.7C1648.1,305.6,1647.8,306.6,1647.3,307.4z"/>
<path class="st0" d="M1415.8,141.8c0.3,0.3,0.8,0.4,1,0.8c0.8,1.7,1.5,3.4,2.4,5c0.2,0.4,0.6,0.6,1,0.7c4.3-0.4,8.5-0.9,13-1.4
	c-0.6-3.9-1.2-7.7-1.8-11.6l1.7-0.3c0.6,1.4,1.3,2.7,1.8,4c0.2,0.9,1.1,1.5,2.1,1.3c0,0,0.1,0,0.1,0c1.6-0.2,1.6-0.1,2.4,1.4
	l-3.2,0.3c0.6,1.4,1.1,2.7,1.8,4c0.2,0.3,0.9,0.5,1.3,0.5c4,0.1,8,0.1,12,0.1c0.7,0,1.4,0.2,2,0.5c0.4,0.2,0.9,0.6,0.9,1
	s-0.5,0.9-0.8,1c-2.1,0.6-4.2,1.2-6.4,1.6c-2.4,0.4-4.8,0.6-7.3,0.8c-0.8,0.1-1.3,0.3-1.5,1.2s-0.5,2-0.8,3c1.2,0.3,2.8-0.5,3,1.4
	c0,0-0.1,0.1-0.2,0.1c-2.8-0.3-4.1,1.1-4.4,3.8c-0.1,0.5-0.2,1-0.4,1.5c-0.4,1.4-0.4,1.4-2.1,1.1c0.1-3.9,0.1-7.7,0.2-11.7
	c-4.5,0.1-8.8,0.3-13.1,0.5c-0.3,0-0.8,0.6-1,1c-0.5,1.6-0.9,3.2-1.4,4.8c-0.2,0.4-0.5,0.8-0.8,1.2c-0.3-0.4-0.4-0.9-0.5-1.5
	c0-1.3,0.1-2.6,0.4-3.9c0.6-2.3,0.4-4.8-0.5-7c-0.5-1.6-0.9-3.3-1.2-5L1415.8,141.8z"/>
<path class="st0" d="M1329.5,171.9c-13.5,6.2-26.5,13.3-39,21.4c-3.1,2.1-6.1,4.3-9.1,6.4l-4.6,3.3c-1.5,1.1-2.9,2.3-4.4,3.5
	l-8.7,7.1c-2.8,2.4-5.5,5.1-8.3,7.6c-22,20.6-40.3,44.8-54.1,71.6c-9.1,17.9-15.9,36.8-20.2,56.4c-2.7-11.9-5.7-23.7-9.1-35.5
	c-5.5-19-11.4-37.8-17.7-56.4c-3-9-6.3-15.6-9.9-19.8c-3.6-4.2-6.7-6.4-9.4-6.7c-3.4-0.3-5.3,2-5.7,6.9c0,0.4,0,0.9,0,1.3
	c0,0.4,0,0.9,0,1.3c0.2,3.6,1.2,7.1,2.9,10.2c1.8,3.5,3.9,6.9,6.2,10.1c2.3,3.1,4.4,5.9,6.2,8.3c1.3,1.4,2.4,3,3.3,4.7
	c1.9,6.3,3.8,12.8,5.8,19.7c1.9,6.9,3.8,13.9,5.5,21c1.7,7.1,3.4,14.1,4.9,21.1c1.6,7,3.1,13.7,4.6,20l0.4,1.8
	c0.6,2.1,1.3,5,2.3,8.7s2.1,7.3,3.3,11c0.9,2.7,2,5.4,3.2,8c0,0.1,0,0.2,0,0.3h0.2c0.2,0.4,0.4,0.8,0.6,1.2c1.5,2.7,5,6.1,6.6,6.3
	c1.3,0.1,1.4,0.7,2.6-1.6l0.7-1.9c0.1-1.1,0.3-2.2,0.4-3.3h0.1v-0.2c3.3-27.6,13.9-61.5,25.2-86.6c11.8-26.3,28-50.3,47.9-71.1
	c2.5-2.6,4.9-5.3,7.6-7.8l8-7.3c1.3-1.2,2.7-2.5,4-3.6l4.2-3.4c2.8-2.2,5.6-4.5,8.5-6.7c11.7-8.6,24.1-16.3,37-23
	c26.1-13.4,54.1-22.7,83-27.6C1385.2,152,1356.5,159.8,1329.5,171.9z"/>
<path class="st0" d="M399.6,559.8c-58.6,15.1-104.2,9.4-132,2c-29.6-7.9-46.1-19.5-46.3-19.6l-4.6-3.3l-9,12.5l4.6,3.3
	c0.7,0.5,18.5,13.2,51,21.9c20.9,5.5,42.5,8.2,64.1,8.1c25.7-0.1,51.2-3.5,76-10c115.9-29.9,131.9-33.5,162.2-26.3l5.5,1.3l3.5-15
	l-5.5-1.3C535.3,525.4,518.8,529,399.6,559.8z"/>
<path class="st0" d="M572.9,486.2c-33.8-8-50.4-4.3-169.6,26.4c-58.6,15.1-104.2,9.4-132,2c-29.6-7.9-46.1-19.5-46.3-19.6l-4.6-3.3
	l-9,12.5l4.5,3.3c1.9,1.3,19.1,13.3,51,21.9c21,5.5,42.6,8.2,64.2,8.1c25.7-0.1,51.2-3.5,76-10c115.9-29.9,131.9-33.5,162.2-26.4
	l5.5,1.3l3.5-15L572.9,486.2z"/>
<rect x="334.2" y="131.6" class="st0" width="19.8" height="19.8"/>
<rect x="369.6" y="131.6" class="st0" width="19.8" height="19.8"/>
<rect x="334.2" y="163.3" class="st0" width="19.8" height="19.8"/>
<rect x="369.6" y="163.3" class="st0" width="19.8" height="19.8"/>
<path class="st1" d="M345.7,508.4c-0.9-0.7-1.7-1.5-2.5-2.2l1.6-1.6C345,505.8,345.4,507.1,345.7,508.4z"/>
<path class="st0" d="M122.7,217.8c18.1-15.7,37-30.3,55.9-44.9c19-14.3,38.1-28.6,57.6-42.3c19.2-14,39-27.2,58.6-40.7
	s39.6-26.3,59.5-39.2l9.7-6.2l9.3,6.8l21.8,15.9l21.5,16.3l21.2,16.7l10.6,8.4l10.4,8.6c6.9,5.8,13.9,11.5,20.7,17.4l20.4,17.9
	c13.3,12.3,26.7,24.5,39.2,38l-1.1,1.5L494,160.8l-43.9-31.4l-87.8-62.8l2.1,0.1l-120.3,76.5L184,181.4l-60.3,38L122.7,217.8z"/>
<path class="st0" d="M453,459.7c-1.5,0-2.7-1.1-2.8-2.5l-3-31.3l-7.5,0.4c-1.3,0.1-2.5-0.8-2.8-2l-21.1-74.7c-0.4-1.5,0.5-3.1,2-3.5
	c0.7-0.2,1.5-0.1,2.2,0.3l10,5.7l14.6-79.4l5.5,1l-11.2,60.8c0.4-1.1,1.4-1.9,2.6-1.9l53.6-1l0.1,5.6l-50.6,0.9l7.7,81.9l118.7-5.7
	l-2.2-16l-29.3-22.3c-1.2-0.9-1.5-2.7-0.5-4c0.5-0.6,1.2-1.1,2.1-1.1l26.8-1.9c1.5-0.1,2.8,1,3,2.4l3.3,23.7l24.3,18.5
	c1.2,0.9,1.5,2.7,0.5,4c-0.5,0.7-1.3,1.1-2.1,1.1l-19.4,1l4.8,34.1c0.2,1.5-0.9,3-2.4,3.2c-0.1,0-0.2,0-0.3,0L453,459.7L453,459.7z
	 M452.9,425.5l2.7,28.5l120.6-2.7l-4.4-31.5L452.9,425.5z M423.1,354.5l18.6,65.9l5-0.2l-8-84.7c0-0.1,0-0.2,0-0.4l-4,21.7
	c-0.2,0.9-0.8,1.6-1.6,2c-0.8,0.4-1.8,0.3-2.6-0.1L423.1,354.5z M575.1,402.9l1.5,11l12.1-0.6L575.1,402.9z M548.7,375.8l18.9,14.3
	l-2.1-15.6L548.7,375.8z"/>
<polygon class="st0" points="533.7,393.7 528.3,392.1 564,268.7 539.6,271.9 538.8,266.3 571.9,261.9 "/>
<polygon class="st0" points="557.4,385 551.7,385 551.7,330.4 533.5,330.4 533.5,324.8 557.4,324.8 "/>
<path class="st0" d="M447.3,260.3l-1.4,117.5l60.6,1.1c10.8,0.2,40.3,10.4,29-14L555,261.3L447.3,260.3z"/>
<path class="st0" d="M444.5,277.3l14.5,6.2l-8-30.3l39.5-9.1v-8.5l-41.5,1.1l-4.8,2.4c-7.6,3.8-6.7,21.5-2.7,30L444.5,277.3z"/>
<path class="st0" d="M551.8,272.4l-10.8,5.4l6-26l-29.6-7.8v-7.3l31,0.9l3.6,2.1c5.7,3.2,8,12.5,5.1,19.9L551.8,272.4z"/>
<path class="st0" d="M509.5,211.1c0,0-29.7-0.4-17.2,41.8l-1,17.2l23,1v-15.4c0,0,18.2-15.3,7.7-33.5
	C522,222.2,522.9,213,509.5,211.1z"/>
<rect x="204.9" y="265.4" class="st0" width="135" height="5.6"/>
<path class="st0" d="M235.6,331.3H225c-1.2,0-2.3-0.8-2.7-1.9l-23.9-70.8l5.3-1.8l23.3,69h8.5V331.3z"/>
<rect x="338.1" y="257.6" class="st0" width="5.6" height="42.1"/>
<path class="st0" d="M194.4,454.9c-1.6,0-2.8-1.3-2.8-2.8c0-0.2,0-0.4,0.1-0.6l6.7-30.1h-20.2c-1.6,0-2.8-1.3-2.8-2.8
	c0-0.8,0.4-1.7,1-2.2l28.4-23.5l10-44.9c0.3-1.3,1.4-2.2,2.8-2.2h16.3c1.2,0,2.3,0.8,2.7,2l5.7,19.2c0.3,1.1,0,2.3-0.9,3L209.8,396
	l-4.4,19.7h118.1l3.2-42.4l5.6,0.4l-3.1,42h6.6l13-71.4l5.5,1l-13.4,73.8c-0.2,1.3-1.4,2.3-2.8,2.3h-9.4l-2.2,29
	c-0.1,1.5-1.3,2.6-2.8,2.6L194.4,454.9L194.4,454.9z M204.1,421.4l-6.2,27.8l123.2-1.8l2-26L204.1,421.4z M185.9,415.7h13.6
	l3.1-13.8L185.9,415.7z M219.6,351.5l-7.9,35.6l24.5-20.3l-4.6-15.3H219.6z"/>
<polygon class="st0" points="215.9,271.1 251.9,372.6 333.3,374.5 329.5,268.2 "/>
<polygon class="st0" points="330.4,301.7 347.6,299.8 386.9,367.8 408,376.4 407,379.3 371.6,376.4 369.7,360.1 "/>
<path class="st0" d="M308,195.3c-11.8-5.2-24.9-6.9-37.6-4.9c-7.6,1.1-14.7,4.3-20.4,9.3c-29.4,26.1-11.4,67.5-11.4,67.5l84-3.1
	C333.1,246.4,334,206.8,308,195.3z M304.6,243.1c-0.4,2.3-1,4.6-1.8,6.9c-1.7,4.5-5,8.9-9.5,10.9c-9,3.8-17.5,0.6-24.1-4l0.2-0.4
	c3.5,1.6,7.3,2.6,11.2,3c3.8,0.5,7.7-0.2,11.1-2c3.4-2.1,6-5.3,7.1-9.2c0.6-2,1.1-4,1.4-6c0.1-2.1,0.5-4.1,0.4-6.2
	c0.1-8.2-1.6-17-7.1-22.9s-13.4-8.5-21-8.3v-0.5c7.7-1.7,16.8-0.4,23.6,6.2c3.4,3.3,5.9,7.5,7.1,12c1.3,4.4,1.9,9.1,1.9,13.7
	C305.2,238.5,304.8,240.8,304.6,243.1L304.6,243.1z"/>
<rect x="223.1" y="321.8" class="st0" width="9.6" height="29.7"/>
<path class="st0" d="M328.5,298.8h20.9c2.2,0,4,1.8,4,4v42.9l0,0h-24.9l0,0V298.8L328.5,298.8z"/>
<rect x="224.1" y="319.4" class="st0" width="24.9" height="10.5"/>
<path class="st0" d="M197.6,545.7c-39.4-26.1-72.7-60.1-98-100c-12.6-19.8-23-40.9-31-63c-4.4-10.9-7.3-22.3-10.7-33.5
	c-2.4-11.5-5.4-22.8-6.8-34.5c-2-11.5-2.6-23.3-3.4-34.9l-0.2-17.6v-4.4l0.3-4.4l0.5-8.8c1.6-23.3,5.2-46.5,11.8-69
	c6.3-22.5,15-44.2,25.8-64.9c11-20.6,23.9-40,38.7-58.1l6,4.9c-14.1,17.8-26.5,37-37,57.2c-10.3,20.3-18.4,41.6-24.3,63.5
	c-6.1,21.9-9.3,44.5-10.6,67l-0.4,8.5l-0.2,4.2l0.1,4.3l0.4,17c1,11.3,1.6,22.6,3.8,33.7c1.5,11.2,4.5,22.2,7,33.2
	c3.4,10.8,6.3,21.7,10.8,32.1c8,21.1,18.3,41.4,30.7,60.3c24.7,37.9,57.1,70.1,95.1,94.6L197.6,545.7z"/>
<path class="st0" d="M0,109.5c0,0,28.5-63.3,92.5-66.2c0,0-2.9-28.6-49.8-22.5c0,0,38.9-27.7,70.6,10.5c0,0,4.5-21.6-11.7-31.3
	c0,0,18.5-1.2,32.7,31.8c0,0,27.1-23.5,68.2,8.9c0,0-29.5-13.6-55.6,3.5c0,0,65.2,15.6,55.4,90.3c0,0-16.7-59.6-52.1-59.6
	c0,0,35.1,45.9-1.9,96.1c0,0,20-63.9-32.1-88.1L91.4,72.6C91.4,72.6,49.1,57.1,0,109.5z"/>
<text transform="matrix(1 0 0 1 1292.53 436.9153)" class="st0 st2 st3">PROPERTIES</text>
</svg>
