<?xml version="1.0" encoding="utf-8"?>
<!-- Generator: Adobe Illustrator 24.0.0, SVG Export Plug-In . SVG Version: 6.00 Build 0)  -->
<svg version="1.1" id="Layer_1" xmlns="http://www.w3.org/2000/svg" xmlns:xlink="http://www.w3.org/1999/xlink" x="0px" y="0px"
	 viewBox="0 0 1204.6 379.6" style="enable-background:new 0 0 1204.6 379.6;" xml:space="preserve">
<style type="text/css">
	.st0{fill:#666666;}
</style>
<path class="st0" d="M46.1,7.2c-3,0-4.5,1.9-4.5,5.7c0,1.2,0.2,2.4,0.5,3.6c0.6,2.3,1.3,4.6,2.2,6.9l31.8,82.8h0.6l31.6-84
	c0.8-1.9,1.4-3.8,1.9-5.8c0.3-1.1,0.4-2.3,0.5-3.4c0-3.8-1.3-5.7-3.9-5.7V1.8h50.9v5.4c-1.2-0.1-2.4,0.5-3,1.5
	c-0.6,1-0.9,2.1-0.9,3.3c0,2,1,5.4,3,10.1l31.9,84h0.6l32.2-85.8c1.3-2.5,2-5.2,2.1-8c0-1.3-0.5-2.5-1.4-3.4c-0.9-1-2.2-1.6-3.6-1.6
	V1.8h44.1v5.4c-2.2,0-3.8,1.2-4.9,3.6c-1.1,2.4-2.3,5.4-3.7,8.9l-42.9,113.8c-1.2,3.2-2.2,6-3.1,8.3c-0.8,1.9-1.2,3.9-1.3,6
	c0,2.9,2.4,5.4,5.3,5.4c0.1,0,0.2,0,0.3,0v5.4h-47v-5.4c1.3-0.4,2.6-1,3.7-1.8c1.2-0.7,1.9-1.9,1.9-3.3c0-1.8-0.4-3.6-1-5.4
	c-0.7-2-1.8-4.8-3.4-8.3l-34.4-87.9h-0.6l-32.4,86.1c-3,7.7-4.5,12.6-4.5,14.6c0,3.2,1.3,5.2,3.9,6v5.4H52.4v-5.4
	c1.2,0,2.5-0.3,3.6-0.9c1.2-0.5,1.9-1.7,1.8-3c0-1.7-0.4-3.4-1-5.1c-0.7-1.8-1.4-3.7-2.2-5.7L6.9,15.5c-0.7-1.9-1.5-3.8-2.5-5.5
	C3.4,8.5,1.8,7.5,0,7.2V1.8h46.2L46.1,7.2z"/>
<path class="st0" d="M276.3,153.1c5.2,0,7.7-1.8,7.7-5.4V12.6c0-3.6-2.6-5.4-7.7-5.4V1.8h49.4v5.4c-5.2,0-7.8,1.8-7.8,5.4v135.2
	c0,3.6,2.6,5.4,7.8,5.4v5.4h-49.4V153.1z"/>
<path class="st0" d="M556.8,164.2c0-3-0.9-4.7-2.8-5.1c-2.4-0.4-4.8-0.6-7.3-0.6H339.4v-5.4c5.9,0,8.9-1.8,8.9-5.4V12.6
	c0-3.6-3-5.4-8.9-5.4V1.8h51.2v5.4c-5.6,0-8.3,1.8-8.3,5.4v118.5h164.4c2.6,0.1,5.1-0.6,7.3-2.1c1.8-1.3,2.9-3.4,2.8-5.7h5.4v40.8
	H556.8z"/>
<path class="st0" d="M558.5,113.5c0-3-0.9-4.7-2.8-5.1c-2.4-0.4-4.8-0.6-7.3-0.6H406.6v-5.4c6,0,8.9-1.8,8.9-5.4V11
	c0-3.6-3-5.4-8.9-5.4V0.3h51.2v5.4c-5.6,0-8.3,1.8-8.3,5.4v69.4h98.9c2.6,0.1,5.1-0.6,7.3-2.1c1.8-1.3,2.9-3.4,2.8-5.7h5.4v40.8
	L558.5,113.5z"/>
<path class="st0" d="M577.5,153.1c5.2,0,7.7-1.8,7.7-5.4V12.6c0-3.6-2.6-5.4-7.7-5.4V1.8H627v5.4c-5.2,0-7.7,1.8-7.7,5.4v135.2
	c0,3.6,2.6,5.4,7.7,5.4v5.4h-49.4V153.1z"/>
<path class="st0" d="M640.6,153.1c2.5-0.3,4.7-1.8,6.1-3.9c1.6-2.4,3.1-4.9,4.3-7.4L706.1,26c1.4-2.6,2.6-5,3.7-7.1
	c1-1.7,1.5-3.7,1.6-5.7c0.2-1.7-0.7-3.3-2.1-4.2c-1.4-0.8-2.9-1.4-4.5-1.8V1.8h50.3v5.4c-1.4,0.4-2.8,1-4.2,1.6
	c-1.4,0.7-2.1,2.1-2.1,4.3c0,1.6,0.3,3.3,1,4.8c0.7,1.6,1.7,3.7,3.1,6.3l62,121.2c0.8,2,2.2,3.6,4,4.8c1.9,1.1,3.8,2.1,5.8,3v5.4
	h-52.4v-5.4c1.1-0.1,2.1-0.4,3-0.9c1.1-0.4,1.8-1.5,1.8-2.7c0-2-0.8-4.6-2.4-7.7l-11.3-22h-72.7l-10.8,21.1c-2,4.2-3,7.1-3,8.9
	c0,2.2,1.9,3.3,5.7,3.3v5.4h-42.3L640.6,153.1z M752.9,97.8l-25-55.4l-28,55.4H752.9z"/>
<path class="st0" d="M838.6,153.1c1.5,0,3-0.4,4.2-1.3c1.2-1,1.9-2.5,1.8-4V12c0.1-1.5-0.5-2.9-1.8-3.7c-1.3-0.7-2.7-1-4.2-1V1.8
	h55.7v5.4c-1.1,0-2.2,0.3-3.1,0.9c-1,0.5-1.7,1.6-1.6,2.7c0.1,1.4,0.5,2.7,1.2,3.9c0.8,1.6,1.7,3.3,2.7,5.1L936,97.2l42.9-76.5
	c1.4-2.6,2.4-4.6,3.1-6.1c0.6-1.2,1-2.6,1-4c0-2.2-1.3-3.3-3.9-3.3V1.8h55.1v5.4c-1.5,0-2.9,0.3-4.2,1c-1.2,0.8-1.9,2.3-1.8,3.7
	v135.9c-0.1,1.5,0.6,3,1.8,4c1.2,0.9,2.7,1.4,4.2,1.3v5.4h-46.8v-5.4c5.3,0,8-1.8,8-5.4V48.9h-0.6L935,158.5h-0.9L875.5,48.6h-0.6
	v99.2c0,3.6,2.8,5.4,8.3,5.4v5.4h-44.7L838.6,153.1z"/>
<path class="st0" d="M1064.3,109.4l3,1.5c0,1.7,0.4,3.3,1.2,4.8c1.4,2.4,4.1,4.7,8.2,7c4.5,2.5,9.2,4.5,14,6.1
	c5.4,1.8,10.9,3.3,16.5,4.3c5.1,1,10.3,1.5,15.5,1.6c3.4,0,7.8-0.3,13.1-0.8c5.4-0.5,10.6-1.5,15.8-3.1c4.8-1.4,9.3-3.6,13.4-6.6
	c3.6-2.5,5.8-6.6,5.7-11c0-4.6-1.8-8-5.2-10.1c-4.2-2.4-8.9-4.1-13.7-4.8c-6.4-1.1-12.9-1.7-19.4-1.9c-7.3-0.3-14.7-0.7-22.2-1.3
	c-7.4-0.6-14.9-1.6-22.2-3c-6.8-1.2-13.3-3.6-19.3-7c-5.6-3.2-10.3-7.8-13.7-13.4c-3.5-5.7-5.2-13.1-5.2-22.2
	c0-6.3,1.5-12.5,4.3-18.2c3.1-6.2,7.6-11.6,13.3-15.8c6-4.6,13.5-8.3,22.6-11.2c9.1-2.9,19.9-4.3,32.2-4.3
	c9.2-0.1,18.4,0.7,27.4,2.4c6.8,1.3,13.5,3,20.1,5.1c5.7,1.8,10.4,3.5,14.3,5.1c3,1.4,6.3,2.2,9.7,2.4c2.8,0,4.8-0.6,6-1.8l3.6,2.4
	l-20.6,37.2l-3-1.2c-0.3-2.4-1.1-4.8-2.4-6.9c-2.1-2.9-4.8-5.2-7.9-7c-4.1-2.5-8.4-4.5-12.9-6.1c-5.2-1.9-10.6-3.3-16.1-4.3
	c-5.7-1.1-11.5-1.6-17.3-1.6c-4.5,0-9.1,0.3-13.6,1c-4.3,0.6-8.6,1.7-12.7,3.1c-3.5,1.2-6.6,3.1-9.4,5.5c-2.4,2.1-3.8,5.2-3.7,8.5
	c0,4.8,1.7,8.3,5.2,10.7c4.2,2.7,8.8,4.5,13.7,5.4c6.4,1.3,12.9,2.1,19.4,2.4c7.2,0.4,14.6,0.9,22.2,1.5c7.5,0.6,14.9,1.6,22.2,3.1
	c6.8,1.3,13.3,3.7,19.3,7.1c5.6,3.2,10.3,7.8,13.7,13.3c3.5,5.6,5.2,12.8,5.2,21.7c0,10.3-2.7,18.8-8.2,25.3
	c-5.6,6.6-12.5,11.9-20.4,15.5c-8.4,3.8-17.3,6.4-26.4,7.6c-8.7,1.2-17.5,1.9-26.3,1.9c-9.5,0.1-19-0.5-28.4-1.9
	c-6.5-1-12.9-2.6-19.1-4.8c-5.1-1.9-9.1-3.6-12.1-5.1c-2.4-1.3-5-2.1-7.8-2.2c-1.4,0-2.7,0.8-3.9,2.4l-4.2-2.4L1064.3,109.4z"/>
<path class="st0" d="M108.7,223c8.9,0,17.8,0.7,26.5,2.2c7.9,1.3,15.5,3.7,22.6,7.2c6.2,3,11.6,7.4,15.8,12.8c4,5.3,6,11.8,6,19.5
	c0,9.3-2.9,16.5-8.6,21.6c-6,5.2-13,9.2-20.5,11.8v0.6c8.8,2.5,16.9,7,23.7,13.3c6.5,6.1,9.7,14.7,9.7,26.1
	c0.1,5.7-1.3,11.4-3.9,16.5c-2.7,5.2-6.7,9.8-11.5,13.3c-5.6,4-11.9,7-18.6,8.8c-8.2,2.2-16.6,3.2-25,3.1H15.4v-5.4
	c5.6,0,8.3-1.8,8.3-5.4V233.7c0-3.6-2.8-5.4-8.3-5.4V223H108.7z M114.7,284.3c8.9,0,16.3-1.1,22.2-3.4s8.8-7.1,8.8-14.5
	c0-7.3-2.9-12.1-8.8-14.4s-13.3-3.4-22.2-3.4H57.7v35.7H114.7z M114.7,352.2c12.5,0,21.5-1.9,27-5.8c5.5-3.9,8.2-9,8.2-15.3
	c0-6.4-2.7-11.5-8.2-15.3c-5.5-3.9-14.4-5.8-27-5.8H57.7v42.3L114.7,352.2z"/>
<path class="st0" d="M282.9,223c8.7-0.1,17.4,0.8,25.9,2.5c7.1,1.4,13.9,4.1,20,8c5.5,3.6,9.9,8.5,12.8,14.3
	c3,5.9,4.5,13.1,4.5,21.6c0,13.1-3.9,23.1-11.6,30.1c-7.7,7-18.2,11.6-31.3,14l39.6,56.6c1.1,1.8,2.9,3.1,4.9,3.6
	c1.7,0.4,3.5,0.6,5.2,0.6v5.4h-55.8v-5.4c1.6,0,3.2-0.3,4.6-0.9c1.3-0.6,1.9-1.4,1.9-2.4c-0.1-1.2-0.5-2.4-1.2-3.4
	c-0.8-1.3-2-3-3.6-5.2l-32.8-46.5h-42.6v53c-0.1,1.6,0.6,3.1,1.9,4c1.3,0.9,3.6,1.3,7,1.3v5.4H181v-5.4c5.8,0,8.6-1.8,8.6-5.4V233.7
	c0-3.6-2.9-5.4-8.6-5.4V223H282.9z M275.2,292.6c6,0.1,12-0.4,17.9-1.6c4-0.8,7.9-2.4,11.3-4.6c2.6-1.7,4.7-4.2,6-7
	c2.4-5.6,2.4-12,0-17.6c-1.3-2.8-3.4-5.3-6-7c-3.4-2.3-7.3-3.8-11.3-4.6c-5.9-1.2-11.9-1.7-17.9-1.5h-51.5v44H275.2z"/>
<path class="st0" d="M830.7,266.6c-7-18.5-22.1-32.8-41-38.9c-9.8-3.2-20.2-4.8-30.5-4.8h-98.9v5.4c4.6,0,6.8,1.8,6.8,5.4v89.8
	l-80.7-83.9c-4-4-6-6.8-6-8.3c0-2,0.8-3,2.4-3v-5.4h-50.9v5.4c3.8,0,5.7,1.8,5.7,5.4v135.3c0,3.6-1.9,5.4-5.7,5.4v5.4H576v-5.4
	c-4.6,0-6.9-1.8-6.9-5.4V270l97.6,101.2c-0.9,2-3,3-6.4,3v5.4h98.9c10.4,0.1,20.7-1.5,30.5-4.8c18.9-6,34-20.3,41-38.9
	c4-9.8,6-21.4,6-34.7S834.7,276.4,830.7,266.6z M799.2,327c-1.9,6.2-5.5,11.8-10.3,16.2c-4.9,4.2-10.9,7.2-17.3,8.5
	c-8,1.7-16.2,2.5-24.4,2.4h-46.2V248.6h46.2c8.2-0.1,16.4,0.7,24.4,2.4c6.4,1.3,12.3,4.2,17.3,8.5c4.8,4.4,8.3,10,10.3,16.2
	c2.3,6.8,3.4,15.3,3.4,25.6S801.5,320.2,799.2,327L799.2,327z"/>
<path class="st0" d="M409.5,318.9l28-55.4l25,55.4l0,0l11,22.7l11,21.4c1.6,3.2,2.4,5.8,2.4,7.7c0,1.2-0.7,2.2-1.8,2.7
	c-0.9,0.5-1.9,0.8-3,0.9v5.4h52.4v-5.4c-2-0.9-3.9-1.9-5.8-3c-1.8-1.1-3.2-2.8-4-4.8l-62-121.2c-1.4-2.6-2.4-4.7-3.1-6.3
	c-0.7-1.5-1-3.1-1-4.8c0-2.2,0.7-3.6,2.1-4.3c1.3-0.7,2.7-1.2,4.2-1.6v-5.4h-50.3v5.4c1.6,0.4,3.1,1,4.5,1.8
	c1.4,0.9,2.2,2.5,2.1,4.2c-0.1,2-0.7,3.9-1.6,5.7c-1.1,2.2-2.3,4.6-3.7,7.1l-55.1,115.9c-1.3,2.6-2.7,5.1-4.3,7.4
	c-1.4,2.1-3.6,3.5-6.1,3.9v5.4h42.3v-5.4c-3.8,0-5.7-1.1-5.7-3.3c0-1.8,1-4.8,3-8.9l9.2-19.8L409.5,318.9z"/>
</svg>
