<?xml version="1.0" encoding="utf-8"?>
<!-- Generator: Adobe Illustrator 26.0.1, SVG Export Plug-In . SVG Version: 6.00 Build 0)  -->
<svg version="1.1" id="Layer_1" xmlns="http://www.w3.org/2000/svg" xmlns:xlink="http://www.w3.org/1999/xlink" x="0px" y="0px"
	 viewBox="0 0 72 72" style="enable-background:new 0 0 72 72;" xml:space="preserve">
<style type="text/css">
	.st0{fill:#666666;}
</style>
<g>
	<path class="st0" d="M68,8.9H4c-2.2,0-4,1.8-4,4v43.3c0,2.2,1.8,4,4,4H42V56c-0.6-0.4-1-0.9-1.5-1.3c-1.9-2.1-2.9-4.8-2.9-7.6
		c0-6.3,5.1-11.4,11.4-11.4s11.4,5.1,11.4,11.4c0,2.8-1,5.5-2.9,7.6c-0.4,0.5-0.9,0.9-1.4,1.3v4.1h1.4h2.8H68c2.2,0,4-1.8,4-4V12.9
		C72,10.7,70.2,8.9,68,8.9z M39.3,27.4H13.1c-0.6,0-1.1-0.5-1.1-1.1s0.5-1.1,1.1-1.1h26.2c0.6,0,1.1,0.5,1.1,1.1
		S39.9,27.4,39.3,27.4z M13.1,49.1L13.1,49.1C13.1,49.1,13.1,49.1,13.1,49.1c-0.2,0-0.3,0-0.4-0.1c-0.6-0.2-0.8-0.9-0.6-1.4l3.3-7.5
		c0.2-0.4,0.6-0.7,1-0.7c0.4,0,0.8,0.3,1,0.8l1.8,5.6l1.9-2.2c0.3-0.3,0.6-0.4,1-0.4c0.4,0.1,0.7,0.3,0.8,0.7l1.2,3H30
		c0.6,0,1.1,0.5,1.1,1.1c0,0.6-0.5,1.1-1.1,1.1h-6.6c-0.4,0-0.9-0.3-1-0.7l-0.8-2.1l-2,2.3c-0.3,0.3-0.7,0.4-1,0.4s-0.7-0.4-0.8-0.7
		l-1.6-4.8l-2.1,4.9C13.9,48.8,13.5,49.1,13.1,49.1C13.1,49.1,13.1,49.1,13.1,49.1z M12,30.7c0-0.6,0.5-1.1,1.1-1.1h16.4
		c0.6,0,1.1,0.5,1.1,1.1c0,0.6-0.5,1.1-1.1,1.1H13.1C12.5,31.8,12,31.3,12,30.7z M12,22c0-0.6,0.5-1.1,1.1-1.1h20.2
		c0.6,0,1.1,0.5,1.1,1.1c0,0.6-0.5,1.1-1.1,1.1H13.1C12.5,23.1,12,22.6,12,22z M66.5,53.6c0,0.6-0.5,1.1-1.1,1.1h-5.3
		c-0.6,0-1.1-0.5-1.1-1.1c0-0.6,0.5-1.1,1.1-1.1h4.2v-36H7.6v36h30.4c0.6,0,1.1,0.5,1.1,1.1c0,0.6-0.5,1.1-1.1,1.1H6.5
		c-0.6,0-1.1-0.5-1.1-1.1V15.4c0-0.6,0.5-1.1,1.1-1.1h58.9c0.6,0,1.1,0.5,1.1,1.1V53.6z"/>
	<path class="st0" d="M53.5,46c-0.1-0.3-0.3-0.5-0.6-0.5l-2.2-0.3l-1-2c-0.3-0.5-1.1-0.5-1.4,0l-1,2l-2.2,0.3
		c-0.3,0-0.5,0.2-0.6,0.5c-0.1,0.3,0,0.6,0.2,0.8l1.6,1.5L46,50.5c-0.1,0.3,0.1,0.6,0.3,0.8c0.2,0.2,0.5,0.2,0.8,0.1l1.9-1l1.9,1
		c0.3,0.1,0.6,0.1,0.8-0.1c0.2-0.2,0.4-0.5,0.3-0.7l-0.4-2.2l1.6-1.5C53.6,46.6,53.6,46.3,53.5,46z"/>
	<path class="st0" d="M49.1,37.7c-5.2,0-9.4,4.2-9.4,9.4c0,2.3,0.9,4.6,2.4,6.3c0.4,0.4,0.8,0.8,1.4,1.2l0.2,0.1v2.1l0,0v5.4
		c0,0.5,0.4,0.9,0.9,0.9c1,0,1.9-0.5,2.7-1c0.6-0.4,1.3-0.8,1.8-0.8s1.2,0.4,1.8,0.8c0.9,0.5,1.7,1,2.7,1c0.5,0,0.9-0.4,0.9-0.9
		v-5.3l0,0v-2.2l0.2-0.1c0.5-0.4,1-0.8,1.4-1.2c1.6-1.7,2.4-4,2.4-6.3C58.5,41.9,54.3,37.7,49.1,37.7z M54.6,47.4l-1.4,1.4l0.3,2
		c0.1,0.7-0.2,1.3-0.7,1.7c-0.3,0.2-0.7,0.3-1.1,0.3c-0.3,0-0.6-0.1-0.8-0.2l-1.8-0.9l-1.8,0.9C46.7,53,46,53,45.4,52.6
		c-0.6-0.4-0.8-1.1-0.7-1.8l0.3-2l-1.4-1.4c-0.5-0.5-0.7-1.2-0.4-1.8c0.2-0.6,0.8-1.1,1.4-1.2l2-0.3l0.9-1.8c0.3-0.6,0.9-1,1.6-1
		c0.7,0,1.3,0.4,1.6,1l0.9,1.8l2,0.3c0.7,0.1,1.2,0.6,1.4,1.2C55.3,46.2,55.1,46.9,54.6,47.4z"/>
</g>
</svg>
