<?xml version="1.0" encoding="utf-8"?>
<!-- Generator: Adobe Illustrator 24.0.0, SVG Export Plug-In . SVG Version: 6.00 Build 0)  -->
<svg version="1.1" id="Layer_1" xmlns="http://www.w3.org/2000/svg" xmlns:xlink="http://www.w3.org/1999/xlink" x="0px" y="0px"
	 viewBox="0 0 1173 1080" style="enable-background:new 0 0 1173 1080;" xml:space="preserve">
<style type="text/css">
	.st0{fill:#004D4D;}
	.st1{fill:#F39701;}
	.st2{fill:#008081;}
	.st3{fill:#FDFDFD;}
	.st4{fill:#F8F9FA;}
</style>
<path class="st0" d="M1016.7,401.6c8.1,11.9,14.9,24.5,22,37c12.7,22.3,25.2,44.6,38.8,66.3c10.7,16.9,25.4,28.3,43.5,36
	c1.6,0.7,3.2,1.3,4.7,2l-23.8,37.2l-32.7,51c-0.8,1.1-1.8,2.1-2.5,3.2c-13.4,20.7-26.8,41.4-40.2,62.1
	c-14.1,21.8-28.1,43.7-42.1,65.5c-5.2,7.8-10.4,15.7-15.5,23.5c-64,99-128,197.9-192.1,296.9l-319.4,1.5c0.7-2,2.8-2.3,4.3-3.3
	c23.7-14.2,47.4-28.3,71.1-42.4c2.8-1.7,5.2-3.9,7.1-6.5c17.5-24.4,36.4-47.8,56.6-70.1c37.2-40.7,76.1-79.2,128-101.4
	c10.3-3.2,20.4-6.9,31.2-8c13.1-1.4,21.8,4.3,24.4,17.1c1.2,6,1.3,12.2,2.1,18.3c0.8,6.4,4.7,8.2,10.1,4.7c2.7-1.8,5.2-3.9,7.5-6.2
	c20.9-21.3,36.9-46.4,52.8-71.4c0.3-0.8,0.5-1.6,0.6-2.5c1.1-0.3,1.6-1.2,2.2-2c14.7-24.6,28.9-49.5,38.4-76.6
	c5.5-15.5,10.1-31.2,20-44.8c11.7-16.1,25.1-30.8,40.2-43.8c16.8-14.6,33.7-29.2,50.6-43.8c11.3-9.7,18.2-21.5,19.7-36.5
	c1.7-15.9,0.3-31.5-2.1-47.1c-3.3-21.2-8.9-41.9-13.7-62.7c-2.5-10.8-2.2-21.1,3.8-30.8C1017.6,415.3,1018.5,411,1016.7,401.6z"/>
<path class="st0" d="M394.6,1084.2L205,1085c-0.8-1.8,0.4-3.3,0.9-4.8c7.2-20.2,15.3-39.9,24.3-59.3c8.5-18.3,19.8-34.4,35.9-46.8
	c7.7-6,15.3-12,23-18.1c13.4-9.3,26.5-18.9,40.2-27.7c19.5-12.7,32.6-30,39.4-52.2c0.4-1.3,0.9-2.6,1.3-3.9
	c9.2-25.2,17.1-51.1,34.7-72.3c10.1-10.9,23.1-17,36.7-22.3c20-7.7,40.6-13.5,60.8-20.6c15.4-5.4,30.7-11.1,43.3-21.9
	c9-7.7,12.3-17.4,9.4-29.1c-1.7-6.6-4.2-13.1-7.5-19c-17.7-32.5-43.3-58.6-69.4-84.2c-11.4-11.2-23.9-21.1-36.6-30.8
	c2.7-0.4,4.5,1.5,6.5,2.7c40.2,23.9,80.3,47.9,120.4,72c15.3,9.2,30,19.2,45.5,28c18.1,10.3,36.4,11.2,53.9-2.2
	c-0.3,2.2-1.8,3.7-2.9,5.3c-38.9,58.5-77.9,117-116.9,175.5c-41.9,62.9-83.8,125.8-125.7,188.8
	C412.9,1056.1,403.2,1069.7,394.6,1084.2z"/>
<path class="st0" d="M1177.7,626.2c0.7,149.9,1.4,299.8,2.2,449.7c0,3.9-0.8,4.8-4.7,4.8c-78.8,0.2-157.6,0.6-236.5,1
	c9.8-21.1,16.3-43.5,24.4-65.3c5.8-15.7,13-30.6,24.6-42.9c2.9-1.8,4.7-4.8,7.6-6.6c6.9-4.3,12.9-9.9,17.8-16.5
	c19-25.1,30.9-53.6,38.7-83.7c8.2-31.7,14.9-63.8,22.2-95.8c2.8-9,5.4-18,8.5-26.9c10.1-29.5,27.8-54.2,50-75.4
	c14.4-13.8,29.9-26.5,43-41.7C1176,626.4,1176.4,624.8,1177.7,626.2z"/>
<path class="st1" d="M561.4,179.7c-8,4.9-15.2,11.2-22.3,17.2c-28.4,23.8-55.1,49.6-80,77c-57.9,64.3-104.4,135.9-138.8,215.4
	c-5.1,11.9-10.1,23.9-14.7,36.1c-4.7,12.6-8.8,25.5-13.2,38.2c-0.5,5.9-3.2,11.3-4.8,16.9c-4.5,16-8.8,32.3-12.3,48.5
	s-6.7,32.5-9,48.9c-2,14.1-4.5,28.1-5.1,42.4c6.5-8,12.9-16,19.1-23.9c13.7-18.4,27.3-36.9,41.1-55.2c16.7-22,34.1-43.4,52.7-63.8
	c7.5-8.2,16.1-14.4,27.2-16.4c13.1-2.6,24.5,1.3,35.3,8.3c1.6,1,3.2,1.9,4.8,2.8c2.7-0.4,4.5,1.5,6.5,2.7
	c40.2,23.9,80.3,47.9,120.4,72c15.2,9.2,30,19.2,45.5,28c18.2,10.3,36.5,11.2,53.9-2.2c6.5-8.2,12-17.1,17.6-25.9
	c11.4-17.7,22.4-35.7,33.6-53.5c18.3-29.6,36.6-59.2,55-88.8c15.4-24.9,30.9-49.8,46.4-74.7c0.8-1.2,1.4-2.4,2-3.6l0,0
	c7.7-12.1,15.4-24.3,23-36.4c0.7-1.2,1.2-2.4,2.4-3.2c13.4-21.9,25.9-44.4,41.3-65c8-10.5,18.9-17.9,31.2-22.8
	c-0.6-2.7-3.1-3-5.1-3.8c-9.2-3.5-18.5-7-27.5-11.5c6.5,1.1,13,2.2,19.5,3.3c2.3,0.4,4.7,0.9,7,1.4c9.8,1.9,15.8-1.4,19.4-10.8
	c3.4-8.7,6.7-17.4,10.8-25.8c-1.8,10.3-3.5,20.6-5.3,30.8c-0.9,5,3.3,12.6,8,14.4c9.8,3.8,19.7,7.5,29.3,12l-24-3.8
	c27.8,22.4,43.3,53.3,58.4,84.4c2,4.2,4.1,8.3,6.1,12.4c8.2,11.9,14.9,24.5,22,37c12.7,22.2,25.1,44.6,38.8,66.3
	c10.7,16.9,25.5,28.3,43.5,36c1.5,0.7,3.1,1.3,4.7,2c1.4-2.5,3.4-2.1,5.7-1.4c15.5,4.9,30.6,10.6,44,20.2c0.6,0.3,1.2,0.5,1.9,0.6
	L1175,27.6c-1.1,0-2.1-0.1-3.1-0.2c-48.4-8.2-97.4-11.9-146.4-10.9c-37.7,0.7-75.4,4-112.6,10C805.2,44,702.3,84,611.1,143.9
	C594,155.1,577.1,166.4,561.4,179.7 M909.8,262c0.6-5.2,0.2-9.4-6.3-10c7.3,0.1,7.3,0.1,10.6-6c-1.9,5.7,0.5,8.7,6,10.1
	C914.8,255,910.9,255.6,909.8,262z M986.9,221.3l-0.1,0.4l-0.2-0.4H986.9z M1000.4,251.4c-3.8-0.7-7.7-1.3-11.4-2
	c-4.7-0.8-8,0.9-9.7,5.4c-1.5,4.2-3.4,8.3-5.6,12.2c0.7-3.8,1.3-7.7,2-11.5c1.2-6.5-0.2-9.2-6.2-11.5c-3.7-1.4-7.3-2.9-11-4.3
	c-0.1,0-0.1-0.3-0.3-0.9c4.6,0.8,9.1,1.4,13.5,2.3c4.7,0.9,7.5-1.1,9.2-5.2c1.6-3.9,3-7.9,5.5-11.6c-0.6,3.3-1.2,6.7-1.8,10
	c-1.4,7.4,0,9.9,6.9,12.5c3.1,1.2,6.2,2.4,9.3,3.6L1000.4,251.4z"/>
<path class="st2" d="M1022.1,517.6c-3.2-21.2-8.9-41.8-13.7-62.7c-2.4-10.8-2.2-21.2,3.8-30.8c5.4-8.8,6.3-13.1,4.5-22.5
	c-2.1-4.2-4.1-8.3-6.1-12.5c-15.1-31.1-30.6-62-58.4-84.4c-5.6-1.4-11.1-3-16.5,1.2c-2.4,1.9-4.2,3.6-5.3,6.5
	c-3.7,9.8-7.5,19.5-11.4,29.2c0.2-9.3,2.6-18.3,4.4-27.3c1.1-6,0.7-11-3.2-15.7c-12.4,4.9-23.3,12.3-31.2,22.8
	c-15.5,20.5-28,43.1-41.3,65c0,0,0,0,0,0.1c-1.1,0.8-1.6,2.1-2.3,3.1c-7.7,12.1-15.3,24.3-23,36.4c-0.7,1.2-1.3,2.4-2,3.6
	c-15.5,24.9-30.9,49.8-46.4,74.7c-18.3,29.6-36.7,59.2-55,88.8c0.2,0.1,0.3,0.3,0.4,0.5c-0.2-0.2-0.3-0.3-0.5-0.5
	c-11.2,17.8-22.3,35.7-33.6,53.5c-5.6,8.8-11.1,17.7-17.6,25.9c-0.2,2.1-1.8,3.6-2.9,5.3c-39,58.5-77.9,117-116.9,175.5
	C506,916.2,464,979.1,422.2,1042.1c-9.3,14-19,27.7-27.6,42.1l62.7-0.3c0.7-2.1,2.8-2.4,4.3-3.3c23.7-14.1,47.4-28.3,71.1-42.4
	c2.8-1.6,5.2-3.8,7.1-6.5c17.5-24.5,36.4-47.9,56.6-70.1c37.2-40.6,76.1-79.2,128-101.4c-0.2-0.1-0.4-0.2-0.5-0.3
	c0.2,0.1,0.4,0.2,0.6,0.3c10.3-3.1,20.4-6.9,31.2-8c13.1-1.4,21.8,4.3,24.4,17.1c1.2,6,1.3,12.2,2.1,18.3c0.8,6.4,4.7,8.2,10.1,4.7
	c2.7-1.8,5.2-3.9,7.5-6.2c21-21.3,36.9-46.3,52.8-71.4c0.3-0.8,0.5-1.7,0.6-2.5c0,0,0,0,0,0c1.2-0.2,1.6-1.1,2.1-2
	c14.7-24.6,28.8-49.5,38.4-76.6c5.5-15.5,10.2-31.2,20-44.8c11.7-16.1,25.2-30.8,40.2-43.8c16.8-14.7,33.7-29.3,50.6-43.8
	c11.2-9.7,18.1-21.5,19.7-36.5C1025.8,548.9,1024.5,533.2,1022.1,517.6z"/>
<path class="st3" d="M919,342c0.1-9.5,2.6-18.6,4.4-27.7c1.2-6,0.7-11-3.2-15.7c-0.7-2.7-3.1-3-5.1-3.8c-9.2-3.6-18.5-7-27.5-11.5
	c6.5,1.1,13,2.2,19.5,3.3c2.4,0.4,4.7,0.9,7,1.4c9.8,1.9,15.8-1.4,19.4-10.8c3.3-8.7,6.6-17.4,10.8-25.8
	c-1.8,10.3-3.5,20.5-5.3,30.7c-0.9,5,3.3,12.6,8,14.4c9.8,3.8,19.7,7.6,29.3,12l-24-3.8c-5.6-1.5-11.1-3-16.5,1.2
	c-2.4,1.8-4.2,3.6-5.3,6.5c-3.7,9.9-7.7,19.7-11.5,29.5L919,342z"/>
<path class="st4" d="M1000.4,251.4c-3.8-0.7-7.7-1.3-11.5-2c-4.7-0.9-8,0.9-9.7,5.4c-1.5,4.2-3.3,8.3-5.6,12.2
	c0.7-3.8,1.3-7.7,2-11.5c1.2-6.5-0.2-9.1-6.2-11.5c-3.7-1.4-7.3-2.9-11-4.3c-0.1,0-0.1-0.3-0.3-0.9c4.7,0.8,9.1,1.4,13.5,2.3
	c4.7,1,7.5-1.1,9.2-5.2c1.6-3.9,3-7.9,5.5-11.6c-0.6,3.3-1.1,6.7-1.8,10c-1.4,7.4,0,9.9,6.9,12.5c3.1,1.2,6.2,2.4,9.3,3.6
	L1000.4,251.4z"/>
<path class="st4" d="M920.1,256.1c-5.3-1.2-9.2-0.5-10.4,5.8c0.6-5.1,0.3-9.4-6.3-10c7.3,0.1,7.3,0.1,10.6-6
	C912.2,251.7,914.6,254.8,920.1,256.1z"/>
<path class="st4" d="M908.8,264.5h-0.4c0,0.1,0,0.3,0.1,0.4s0.3,0,0.4,0C908.8,264.8,908.8,264.6,908.8,264.5z"/>
<polygon class="st4" points="986.6,221.3 986.9,221.3 986.8,221.7 "/>
<polygon class="st4" points="955.3,238.1 955.3,238.4 955.7,238.2 "/>
<path class="st4" d="M914.6,242.9c0,0.1-0.1,0.3-0.1,0.4c0.1,0,0.3,0.1,0.3,0.1s0.1-0.2,0.1-0.4L914.6,242.9z"/>
<path class="st4" d="M922.5,257.2l0.4-0.2c-0.1-0.1-0.2-0.3-0.3-0.3C922.1,256.8,922.1,256.9,922.5,257.2z"/>
<path class="st2" d="M1177.3,562.2c-0.7-0.1-1.3-0.3-1.9-0.6c-13.3-9.6-28.5-15.3-44-20.2c-2.3-0.7-4.3-1.1-5.7,1.4l-23.8,37.2
	l-32.7,51c0,0.1,0,0.3,0,0.4c-0.1,0.1-0.2,0.1-0.3,0.2c-14.7,19.8-24.3,39.1-39,58.9c-12.8,17.4-30.7,49.4-45.3,71.8
	c0-0.1-0.1-0.1-0.1-0.2c-2.6,4-5.3,7.9-7.9,11.9c-0.1,0.1-0.2,0.3-0.3,0.4c0,0,0,0,0,0c-2.5,3.7-4.9,7.4-7.3,11.2
	c-64,99-128.1,198-192.1,296.9l161.8-0.8c9.8-21.1,16.3-43.5,24.4-65.3c5.8-15.6,12.9-30.5,24.5-42.8c6.4-3.4,12.6-7.1,17.8-12
	c19.9-18.7,36.2-47.2,45.5-85.1c10.2-31.2,15.2-77.6,24.5-109c-0.1,0-0.2-0.1-0.3-0.1c2.4-7.8,4.8-15.6,7.4-23.4
	c10.1-29.5,27.8-54.2,50-75.4c14.4-13.8,29.9-26.5,43-41.7c0.5-0.5,0.9-2.1,2.2-0.7L1177.3,562.2z"/>
<path class="st2" d="M555,706.1c-1.7-6.6-4.2-13-7.5-19c-17.7-32.5-43.3-58.6-69.4-84.2c-11.4-11.2-23.9-21.1-36.6-30.8
	c-1.6-0.9-3.3-1.8-4.8-2.8c-10.7-7.1-22.2-11-35.1-8.3c0,0,0,0,0-0.1c-11.2,2-19.8,8.2-27.2,16.4c-18.6,20.5-36,41.8-52.7,63.8
	c-13.9,18.3-27.4,36.8-41.1,55.2l0,0.2c0,0,0,0,0,0c-6.5,8-13,16-19.4,24c-25.1,32.7-50.8,65.1-79.1,95.2
	c-13.7,14.6-28.3,28.3-45.1,39.6s-28.9,27.5-41.4,43.3c-4.8,6-9.4,12.2-14.1,18.3c-22.4,29-33.1,63.9-48.9,96.3
	c-2.2,4.6-4.3,9.3-6.4,14c-8.7,19.6-17.5,39.2-26.2,58.8l205.1-1c-0.9-1.8,0.4-3.2,0.9-4.8c7.2-20.1,15.3-39.9,24.3-59.3
	c8.5-18.2,19.8-34.3,35.9-46.8c7.7-6,15.3-12.1,23-18.1c13.4-9.2,26.7-19,40.3-27.8c19.6-12.7,32.7-30,39.4-52.2
	c0.4-1.3,0.8-2.6,1.3-3.9c9.2-25.3,17.1-51.1,34.7-72.3c0,0,0,0-0.1,0c10.1-10.8,23-17,36.7-22.1c20-7.7,40.6-13.5,60.8-20.6
	c15.3-5.4,30.7-11.1,43.3-21.9C554.6,727.5,557.9,717.8,555,706.1z"/>
<path class="st3" d="M918.8,341.9c-0.1,0.3-0.3,0.5-0.4,0.8L918.8,341.9L918.8,341.9z"/>
</svg>
