<?xml version="1.0" encoding="utf-8"?>
<!-- Generator: Adobe Illustrator 24.0.0, SVG Export Plug-In . SVG Version: 6.00 Build 0)  -->
<svg version="1.1" id="Layer_1" xmlns="http://www.w3.org/2000/svg" xmlns:xlink="http://www.w3.org/1999/xlink" x="0px" y="0px"
	 viewBox="0 0 1173 1080" style="enable-background:new 0 0 1173 1080;" xml:space="preserve">
<style type="text/css">
	.st0{fill:#008081;}
	.st1{fill:#F39701;}
	.st2{fill:#004D4D;}
	.st3{fill:#FDFDFD;}
	.st4{fill:#F8F9FA;}
</style>
<path class="st0" d="M1177.7,626.2c-1.3-1.4-1.7,0.2-2.2,0.7c-13.1,15.2-28.6,27.9-43,41.7c-22.2,21.2-39.9,45.9-50,75.4
	c-3,8.9-5.7,17.9-8.5,26.9c-4.1-0.9-3.9-4.1-3.9-7.3c-0.1-33.4-0.3-66.8-0.5-100.2c-0.1-10.8-0.3-21.6-0.4-32.4l32.7-51l23.8-37.2
	c1.4-2.5,3.4-2.1,5.7-1.4c15.5,4.9,30.7,10.6,44,20.2c0.6,0.3,1.2,0.5,1.9,0.6L1177.7,626.2z"/>
<path class="st0" d="M280.6,696.3c13.7-18.4,27.2-36.9,41.1-55.2c16.7-22,34.1-43.3,52.7-63.8c7.4-8.2,16-14.4,27.2-16.4
	c0.4,77.1,0.7,154.3,1.1,231.4c0,2.7-0.3,5.5,2.2,7.5c-17.6,21.2-25.5,47-34.7,72.3c-0.5,1.3-0.9,2.6-1.3,3.9
	c-6.7,22.2-19.8,39.5-39.4,52.2c-13.6,8.8-26.8,18.5-40.2,27.7c-3.4-1-2.3-3.9-2.3-6.1c-0.2-33-0.4-65.9-0.5-98.9
	c-0.2-50-0.4-100-0.6-149.9C285.8,697.1,285.3,694.7,280.6,696.3z"/>
<path class="st1" d="M561.5,179.6c15.6-13.2,32.5-24.5,49.6-35.7C702.3,84,805.2,44,912.9,26.5c37.2-6,74.9-9.3,112.6-10
	c49-1,98,2.7,146.4,10.9c1,0.1,2,0.2,3.1,0.2l2.4,534.8c-0.7-0.1-1.3-0.3-1.9-0.6c-13.4-9.6-28.5-15.3-44-20.2
	c-2.3-0.7-4.3-1.1-5.7,1.4c-1.6-0.7-3.2-1.3-4.7-2c-18-7.7-32.8-19.1-43.5-36c-13.7-21.7-26.1-44.1-38.8-66.3
	c-7.1-12.5-13.8-25.1-22-37c-2-4.1-4.1-8.2-6.1-12.4c-15.1-31.1-30.6-62-58.4-84.4l24,3.8c-9.6-4.5-19.5-8.2-29.3-12
	c-4.7-1.8-8.9-9.4-8-14.4c1.8-10.2,3.5-20.5,5.3-30.8c-4.1,8.4-7.4,17.1-10.8,25.8c-3.6,9.4-9.6,12.7-19.4,10.8
	c-2.3-0.5-4.7-1-7-1.4c-6.5-1.1-13-2.2-19.5-3.3c9,4.5,18.3,8,27.5,11.5c2,0.8,4.5,1.1,5.1,3.8c-12.3,4.9-23.2,12.3-31.2,22.8
	c-15.4,20.6-27.9,43.1-41.3,65c-1.2,0.8-1.7,2-2.4,3.2c-7.6,12.1-15.3,24.3-23,36.4c-9.5-8.9-18.8-17.9-28.3-26.8
	c-21-19.9-42.1-39.7-63.2-59.5c-13.5-12.7-27-25.3-40.4-38c-20.5-19.4-41.1-38.8-61.7-58c-11.8-10.9-23.2-22.3-34.9-33.4
	c-1.1-1.1-2.4-1.9-3.5-3C580.7,198.1,571.1,188.9,561.5,179.6z M1000.4,251.4l0.4-1c-3.1-1.2-6.2-2.4-9.3-3.6
	c-6.9-2.6-8.3-5.1-6.9-12.5c0.6-3.3,1.2-6.7,1.8-10c-2.5,3.7-3.9,7.7-5.5,11.6c-1.7,4.1-4.5,6.1-9.2,5.2c-4.4-0.9-8.9-1.5-13.5-2.3
	c0.2,0.6,0.2,0.9,0.3,0.9c3.7,1.4,7.3,2.9,11,4.3c6,2.3,7.4,5,6.2,11.5c-0.7,3.8-1.3,7.7-2,11.5c2.2-3.9,4.1-8,5.6-12.2
	c1.7-4.5,5-6.2,9.7-5.4C992.7,250.1,996.6,250.7,1000.4,251.4z M920.1,256.1c-5.5-1.4-7.9-4.4-6-10.1c-3.3,6.1-3.3,6.1-10.6,6
	c6.5,0.6,6.9,4.8,6.3,10C910.9,255.6,914.8,255,920.1,256.1z M908.8,264.5c0,0.1,0,0.3,0.1,0.4c-0.1,0-0.3,0.1-0.4,0
	s-0.1-0.3-0.1-0.4L908.8,264.5z M986.6,221.3l0.2,0.4l0.1-0.4L986.6,221.3z M955.3,238.1l0.4,0.2l-0.4,0.2V238.1z M914.6,242.9
	l0.3,0.1c0,0.1,0,0.3-0.1,0.4s-0.2,0-0.3-0.1C914.5,243.1,914.6,243,914.6,242.9L914.6,242.9z M922.5,257.2
	c-0.4-0.2-0.4-0.4,0.1-0.5c0.1,0,0.2,0.2,0.3,0.3L922.5,257.2z"/>
<path class="st2" d="M1016.7,401.6c8.1,11.9,14.9,24.5,22,37c12.7,22.3,25.2,44.6,38.8,66.3c10.7,16.9,25.4,28.3,43.5,36
	c1.6,0.7,3.2,1.3,4.7,2l-23.8,37.2l-32.7,51c-0.8,1.1-1.8,2.1-2.5,3.2c-13.4,20.7-26.8,41.4-40.2,62.1
	c-14.1,21.8-28.1,43.7-42.1,65.5c-5.2,7.8-10.4,15.7-15.5,23.5c-64,99-128,197.9-192.1,296.9l-319.4,1.5c0.7-2,2.8-2.3,4.3-3.3
	c23.7-14.2,47.4-28.3,71.1-42.4c2.8-1.7,5.2-3.9,7.1-6.5c17.5-24.4,36.4-47.8,56.6-70.1c37.2-40.7,76.1-79.2,128-101.4
	c10.3-3.2,20.4-6.9,31.2-8c13.1-1.4,21.8,4.3,24.4,17.1c1.2,6,1.3,12.2,2.1,18.3c0.8,6.4,4.7,8.2,10.1,4.7c2.7-1.8,5.2-3.9,7.5-6.2
	c20.9-21.3,36.9-46.4,52.8-71.4c0.3-0.8,0.5-1.6,0.6-2.5c1.1-0.3,1.6-1.2,2.2-2c14.7-24.6,28.9-49.5,38.4-76.6
	c5.5-15.5,10.1-31.2,20-44.8c11.7-16.1,25.1-30.8,40.2-43.8c16.8-14.6,33.7-29.2,50.6-43.8c11.3-9.7,18.2-21.5,19.7-36.5
	c1.7-15.9,0.3-31.5-2.1-47.1c-3.3-21.2-8.9-41.9-13.7-62.7c-2.5-10.8-2.2-21.1,3.8-30.8C1017.6,415.3,1018.5,411,1016.7,401.6z"/>
<path class="st2" d="M394.6,1084.2L205,1085c-0.8-1.8,0.4-3.3,0.9-4.8c7.2-20.2,15.3-39.9,24.3-59.3c8.5-18.3,19.8-34.4,35.9-46.8
	c7.7-6,15.3-12,23-18.1c13.4-9.3,26.5-18.9,40.2-27.7c19.5-12.7,32.6-30,39.4-52.2c0.4-1.3,0.9-2.6,1.3-3.9
	c9.2-25.2,17.1-51.1,34.7-72.3c10.1-10.9,23.1-17,36.7-22.3c20-7.7,40.6-13.5,60.8-20.6c15.4-5.4,30.7-11.1,43.3-21.9
	c9-7.7,12.3-17.4,9.4-29.1c-1.7-6.6-4.2-13.1-7.5-19c-17.7-32.5-43.3-58.6-69.4-84.2c-11.4-11.2-23.9-21.1-36.6-30.8
	c2.7-0.4,4.5,1.5,6.5,2.7c40.2,23.9,80.3,47.9,120.4,72c15.3,9.2,30,19.2,45.5,28c18.1,10.3,36.4,11.2,53.9-2.2
	c-0.3,2.2-1.8,3.7-2.9,5.3c-38.9,58.5-77.9,117-116.9,175.5c-41.9,62.9-83.8,125.8-125.7,188.8
	C412.9,1056.1,403.2,1069.7,394.6,1084.2z"/>
<path class="st2" d="M1177.7,626.2c0.7,149.9,1.4,299.8,2.2,449.7c0,3.9-0.8,4.8-4.7,4.8c-78.8,0.2-157.6,0.6-236.5,1
	c9.8-21.1,16.3-43.5,24.4-65.3c5.8-15.7,13-30.6,24.6-42.9c2.9-1.8,4.7-4.8,7.6-6.6c6.9-4.3,12.9-9.9,17.8-16.5
	c19-25.1,30.9-53.6,38.7-83.7c8.2-31.7,14.9-63.8,22.2-95.8c2.8-9,5.4-18,8.5-26.9c10.1-29.5,27.8-54.2,50-75.4
	c14.4-13.8,29.9-26.5,43-41.7C1176,626.4,1176.4,624.8,1177.7,626.2z"/>
<path class="st0" d="M289.2,956c-7.7,6-15.3,12.1-23,18.1c-16.1,12.5-27.4,28.6-35.9,46.8c-9,19.4-17.1,39.2-24.3,59.3
	c-0.5,1.6-1.8,3-0.9,4.8L0,1086c8.7-19.6,17.5-39.2,26.2-58.8c2.1-4.7,4.2-9.4,6.4-14c15.8-32.4,26.5-67.3,48.9-96.3
	c4.7-6.1,9.3-12.3,14.1-18.3c12.5-15.8,24.6-32,41.4-43.3s31.4-25,45.1-39.6c28.3-30.1,54-62.5,79.1-95.2c6.4-8,12.9-16,19.4-24
	c4.8-1.6,5.2,0.8,5.2,4.8c0.1,50,0.3,99.9,0.6,149.9c0.1,33,0.3,65.9,0.5,98.9C286.9,952.1,285.8,954.9,289.2,956z"/>
<path class="st0" d="M394.6,1084.2c8.6-14.4,18.3-28.1,27.6-42.1c41.8-63,83.8-125.9,125.7-188.8c39-58.5,77.9-117,116.9-175.5
	c1.1-1.7,2.7-3.2,2.9-5.3c6.5-8.2,12-17.1,17.6-25.9c11.3-17.8,22.4-35.7,33.6-53.5c2.3,1.8,2.2,4.4,2.2,7
	c0.1,25.9,0.2,51.8,0.3,77.7c0.3,58.3,0.5,116.7,0.8,175c0,2.6-0.9,5.7,2.2,7.4c-51.9,22.2-90.8,60.8-128,101.4
	c-20.2,22.2-39.1,45.6-56.6,70.1c-1.9,2.7-4.3,4.9-7.1,6.5c-23.7,14.1-47.4,28.3-71.1,42.4c-1.5,0.9-3.6,1.2-4.3,3.3L394.6,1084.2z"
	/>
<path class="st0" d="M987.7,973.5c-11.7,12.3-18.8,27.2-24.6,42.9c-8.1,21.8-14.6,44.2-24.4,65.3l-161.8,0.8
	c64-98.9,128.1-197.9,192.1-296.9c5.1-7.9,10.3-15.7,15.5-23.5c1.9,2,1.1,4.6,1.1,6.9c0.3,65.2,0.6,130.3,0.9,195.5
	C986.5,967.5,986.9,970.5,987.7,973.5z"/>
<path class="st1" d="M261.2,720.3c0.6-14.3,3.1-28.3,5.1-42.4c2.3-16.4,5.5-32.7,9-48.9s7.8-32.5,12.3-48.5c1.6-5.6,4.3-11,4.8-16.9
	c4.4-12.7,8.5-25.6,13.2-38.2c4.6-12.2,9.6-24.2,14.7-36.1c34.4-79.5,80.9-151.1,138.8-215.4c24.9-27.4,51.6-53.2,80-77
	c7.1-6,14.3-12.3,22.3-17.2c9.6,9.2,19.2,18.5,28.9,27.7c1.1,1.1,2.4,1.9,3.5,3c11.6,11.1,23.1,22.5,34.9,33.4
	c20.7,19.2,41.3,38.5,61.7,58c13.4,12.7,26.9,25.3,40.4,38c21.1,19.8,42.1,39.6,63.2,59.5c9.4,8.9,18.8,17.9,28.3,26.8
	c-0.6,1.2-1.2,2.4-2,3.6c-15.5,24.9-31,49.8-46.4,74.7c-18.4,29.6-36.7,59.2-55,88.8c-11.2,17.8-22.2,35.8-33.6,53.5
	c-5.6,8.8-11.1,17.7-17.6,25.9c-17.4,13.4-35.7,12.5-53.9,2.2c-15.5-8.8-30.3-18.8-45.5-28c-40.1-24.1-80.2-48.1-120.4-72
	c-2-1.2-3.8-3.1-6.5-2.7c-1.6-0.9-3.2-1.8-4.8-2.8c-10.8-7-22.2-10.9-35.3-8.3c-11.1,2-19.7,8.2-27.2,16.4
	c-18.6,20.4-36,41.8-52.7,63.8c-13.8,18.3-27.4,36.8-41.1,55.2C274.1,704.3,267.7,712.3,261.2,720.3z"/>
<path class="st0" d="M1016.7,401.6c1.8,9.4,0.9,13.7-4.5,22.5c-6,9.6-6.2,20-3.8,30.8c4.8,20.9,10.5,41.5,13.7,62.7
	c2.4,15.6,3.7,31.3,2.1,47.1c-1.6,15-8.5,26.8-19.7,36.5c-16.9,14.5-33.8,29.1-50.6,43.8c-15,13-28.5,27.7-40.2,43.8
	c-9.8,13.6-14.5,29.3-20,44.8c-9.6,27.1-23.7,52-38.4,76.6c-0.5,0.9-1,1.8-2.2,2c-3.8-1.4-2.2-4.7-2.2-7.1
	c-0.7-136.9-1.4-273.8-2-410.7c0-2.7,0.3-5.5-1.2-8c13.3-21.9,25.8-44.5,41.3-65c7.9-10.5,18.8-17.9,31.2-22.8
	c3.9,4.7,4.3,9.7,3.2,15.7c-1.8,9.1-4.3,18.3-4.4,27.7l-0.5,0.7c0.1-0.3,0.3-0.5,0.4-0.8c3.9-9.8,7.8-19.6,11.5-29.5
	c1.1-2.9,2.9-4.6,5.3-6.5c5.4-4.2,10.9-2.6,16.5-1.2c27.8,22.4,43.3,53.3,58.4,84.4C1012.6,393.3,1014.6,397.4,1016.7,401.6z"/>
<path class="st0" d="M847.8,386.4c1.5,2.5,1.1,5.3,1.2,8c0.6,136.9,1.3,273.8,2,410.7c0,2.4-1.6,5.7,2.2,7.1
	c-0.1,0.8-0.3,1.7-0.6,2.5c-15.9,25.1-31.8,50.1-52.8,71.4c-2.3,2.3-4.8,4.4-7.5,6.2c-5.4,3.5-9.3,1.7-10.1-4.7
	c-0.8-6.1-0.9-12.3-2.1-18.3c-2.6-12.8-11.3-18.5-24.4-17.1c-10.8,1.1-20.9,4.9-31.2,8c-3.2-1.7-2.2-4.8-2.2-7.4
	c-0.3-58.3-0.6-116.7-0.8-175c-0.1-25.9-0.2-51.8-0.3-77.7c0-2.6,0.2-5.2-2.2-7c18.3-29.6,36.7-59.2,55-88.8
	c15.5-24.9,30.9-49.8,46.4-74.7c0.7-1.2,1.3-2.4,2-3.6c7.7-12.1,15.3-24.3,23-36.4C846.1,388.5,846.6,387.2,847.8,386.4z"/>
<path class="st3" d="M919,342c0.1-9.5,2.6-18.6,4.4-27.7c1.2-6,0.7-11-3.2-15.7c-0.7-2.7-3.1-3-5.1-3.8c-9.2-3.6-18.5-7-27.5-11.5
	c6.5,1.1,13,2.2,19.5,3.3c2.4,0.4,4.7,0.9,7,1.4c9.8,1.9,15.8-1.4,19.4-10.8c3.3-8.7,6.6-17.4,10.8-25.8
	c-1.8,10.3-3.5,20.5-5.3,30.7c-0.9,5,3.3,12.6,8,14.4c9.8,3.8,19.7,7.6,29.3,12l-24-3.8c-5.6-1.5-11.1-3-16.5,1.2
	c-2.4,1.8-4.2,3.6-5.3,6.5c-3.7,9.9-7.7,19.7-11.5,29.5L919,342z"/>
<path class="st4" d="M1000.4,251.4c-3.8-0.7-7.7-1.3-11.5-2c-4.7-0.9-8,0.9-9.7,5.4c-1.5,4.2-3.3,8.3-5.6,12.2
	c0.7-3.8,1.3-7.7,2-11.5c1.2-6.5-0.2-9.1-6.2-11.5c-3.7-1.4-7.3-2.9-11-4.3c-0.1,0-0.1-0.3-0.3-0.9c4.7,0.8,9.1,1.4,13.5,2.3
	c4.7,1,7.5-1.1,9.2-5.2c1.6-3.9,3-7.9,5.5-11.6c-0.6,3.3-1.1,6.7-1.8,10c-1.4,7.4,0,9.9,6.9,12.5c3.1,1.2,6.2,2.4,9.3,3.6
	L1000.4,251.4z"/>
<path class="st4" d="M920.1,256.1c-5.3-1.2-9.2-0.5-10.4,5.8c0.6-5.1,0.3-9.4-6.3-10c7.3,0.1,7.3,0.1,10.6-6
	C912.2,251.7,914.6,254.8,920.1,256.1z"/>
<path class="st4" d="M908.8,264.5l-0.4,0c0,0.1,0,0.3,0.1,0.4s0.3,0,0.4,0C908.8,264.8,908.8,264.6,908.8,264.5z"/>
<polygon class="st4" points="986.6,221.3 986.9,221.3 986.8,221.7 "/>
<polygon class="st4" points="955.3,238.1 955.3,238.4 955.7,238.2 "/>
<path class="st4" d="M914.6,242.9c0,0.1-0.1,0.3-0.1,0.4c0.1,0,0.3,0.1,0.3,0.1s0.1-0.2,0.1-0.4L914.6,242.9z"/>
<path class="st4" d="M922.5,257.2l0.4-0.2c-0.1-0.1-0.2-0.3-0.3-0.3C922.1,256.8,922.1,256.9,922.5,257.2z"/>
<path class="st0" d="M1080,630c-0.6,10.8-0.9,25.6-1.5,36.3c-2,33.3,2.3,52.1,0.4,85.5c-0.2,3.1-7.6,14.6-3.5,15.7
	c-9.3,31.4-14.3,77.8-24.5,109c-9.3,37.9-25.6,66.4-45.5,85.1c-6,5.6-13.3,9.7-20.6,13.5c-3.1,1.6-4.9-6.2-7.9-4.6
	c-0.7-3-0.9-6.1-0.6-9.2c3.9-65,1.9-113.6,5.8-178.7c0.1-2.3-4.1-6-5.8-8.2c15.4-20.9,38.2-63,53.6-83.9
	c14.7-19.8,24.3-39.1,39-58.9C1069.7,630.6,1079,631,1080,630z"/>
<path class="st0" d="M404.7,799.9c-2.5-2-2.2-4.8-2.2-7.5c-0.3-77.1-0.7-154.3-1.1-231.4c13-2.7,24.5,1.2,35.3,8.3
	c1.5,1,3.2,1.9,4.8,2.8c12.7,9.7,25.2,19.6,36.6,30.8c26.1,25.6,51.7,51.7,69.4,84.2c3.3,6,5.8,12.4,7.5,19
	c2.9,11.7-0.4,21.4-9.4,29.1c-12.6,10.8-28,16.5-43.3,21.9c-20.2,7.1-40.8,12.9-60.8,20.6C427.8,782.8,414.8,789,404.7,799.9z"/>
<path class="st3" d="M918.8,341.9c-0.1,0.3-0.3,0.5-0.4,0.8L918.8,341.9L918.8,341.9z"/>
</svg>
