<?xml version="1.0" encoding="utf-8"?>
<!-- Generator: Adobe Illustrator 24.0.0, SVG Export Plug-In . SVG Version: 6.00 Build 0)  -->
<svg version="1.1" id="Layer_1" xmlns="http://www.w3.org/2000/svg" xmlns:xlink="http://www.w3.org/1999/xlink" x="0px" y="0px"
	 viewBox="0 0 2000 1773.3" style="enable-background:new 0 0 2000 1773.3;" xml:space="preserve">
<style type="text/css">
	.st0{fill:#F39801;}
	.st1{fill:#008080;}
	.st2{fill:#004E4C;}
	.st3{fill:#FDFDFC;}
	.st4{fill:#F8F7F6;}
	.st5{fill:#F6EEDD;}
	.st6{fill:#F5E7CC;}
	.st7{fill:#F5E6CA;}
	.st8{fill:#F2CC81;}
	.st9{fill:#F2CE87;}
	.st10{fill:#F4D9A2;}
	.st11{fill:#F4D595;}
	.st12{fill:#F0AD38;}
	.st13{fill:#F2CA80;}
	.st14{fill:#F2C16C;}
	.st15{fill:#F2A426;}
	.st16{fill:#94C9C9;}
</style>
<g>
	<path class="st0" d="M478.4,1172c0.4-6.9,0.5-13.8,1.3-20.6c6.1-47.1,13.4-94.1,24-140.4c5.4-23.7,11.5-47.2,18.3-70.6
		c12.3-42.5,26.3-84.3,43.1-125.2c44.6-108.8,102.4-210,173.9-303.3c55.3-72.2,117.5-138,186.3-197.5c8.8-7.6,17.6-15.1,26.5-22.6
		c7.6-6.4,15.4-12.6,23.8-18c1.4-0.9,2.8-1.9,4-2.9c34.2-28.3,71.2-52.5,108.7-75.9c98.8-61.6,204.2-108.6,315.8-141.7
		c44.5-13.2,89.6-23.9,135.3-32.3c23.6-4.3,47.4-7.8,71.2-10.8c25.8-3.2,51.6-5.7,77.5-7.5c24.5-1.7,49.1-2.7,73.7-2.6
		c19.3,0.1,38.7,0.1,58,0.5c24.3,0.6,48.6,2.3,72.8,4.4c17.3,1.5,34.6,3.3,51.9,5.6c18.3,2.4,36.6,5.4,54.4,8c1.9,2.5,1.4,4.8,1.4,7
		c0.1,23.5,0.2,47,0.4,70.5c0.4,88.2,0.8,176.4,1.2,264.6c0.2,32.6,0.3,65.2,0.4,97.9c0.5,103.1,0.9,206.2,1.4,309.3
		c0.1,19.6,0.1,39.3,0.3,58.9c0.2,24.6,0.4,49.2,0.6,73.8c0,3-0.2,6.1-0.3,9.1c-4.1,2-6.9-0.9-9.7-2.9
		c-18.1-12.6-38.8-19.7-59.3-27.2c-5.2-1.9-10.6-3.3-16.2-1.6c-12.5-1.4-22.6-8.3-33-14.4c-22.2-12.9-39.1-31-52.5-52.8
		c-29-47.3-55.7-95.9-83.4-144c-4.3-7.4-8.9-14.6-13.6-21.8c-11.9-21.8-22.2-44.4-33.7-66.4c-15.5-29.7-34.2-57.2-57.5-81.4
		c-3.3-3.4-7-6.2-10.5-9.4c-2-1.8-5.3-3.8-2.3-7.3c8.4-1.9,16.2,1.6,24.2,2.8c2.2,0.5,4.1,1.7,6.2,2.1c0.5,0.2,0.7,0.3,0.7,0.3
		c0.5,0,0.8-0.1,0.8-0.2c-0.1-1.1,0.4,0.1-0.7,0.1c-1.5-0.6-3.1-0.7-4.5-1.6c-13.3-3.9-25.9-9.3-38.5-15
		c-11.7-5.2-17.4-16.8-15.2-29.3c2-11.7,3.3-23.5,6.3-34.9c0.7-2.1,1.8-4,1.9-6.3c-0.1-0.3,0.5-0.5,0-0.8c-0.5,1.6-0.3,3.2-1.1,4.7
		c-4.1,12-8.9,23.8-13.9,35.4c-6.3,14.3-16.4,19.9-31.8,17.2c-11.1-1.9-22.3-3.8-33.2-6.5c-2.8-1.2-5.7-2-6.9-2.1
		c-0.1,0,1.6,0.4,3.3,0.8c12.6,4.8,25.2,9.8,37.7,14.9c3.5,1.4,7.4,2.7,8.1,7.3c-0.7,2.8-2.9,4-5.2,5
		c-27.6,11.6-45.6,33.3-61.3,57.4c-14.5,22.2-28.2,44.9-41.8,67.7c-14.6,24.4-30.5,48-45.4,72.3c-30.2,49.2-60.7,98.2-91.2,147.2
		c-44.4,71.2-88.1,143-132.9,214c-11.9,18.9-23.5,38.1-36.8,56.1c-2,2.7-4,5.3-6.5,7.5c-29.8,21.6-60.5,19.9-90.8,1.9
		c-51.2-30.6-101.5-62.6-152.9-92.9c-42.3-25-84.5-50.2-126.6-75.5c-1.7-1-3.5-1.6-5.3-2.1c-4.8-1.6-8.9-4.3-13.1-7
		c-31-20.1-66.1-16.6-92.1,9.8c-39.2,39.9-73,84.3-106.7,128.8c-26.7,35.2-51.6,71.8-80.3,105.5
		C484.7,1167.9,482.8,1171.4,478.4,1172z"/>
	<path class="st1" d="M1154.2,1093c8.2-10.1,15.5-20.8,22.4-31.8c28.4-45.4,56.8-90.8,85.1-136.3c48.3-77.6,96.4-155.3,144.6-232.9
		c14.6-23.5,28.8-47.1,43.9-70.2c17.2-26.4,32.2-54.1,49.5-80.3c7-10.6,14.2-21,21.5-31.4c12.3-17.7,28.7-30.4,48.3-39.1
		c2-0.9,4-1.8,6-2.7c7.2,2.1,7.6,8.5,8.6,14.2c1.2,6.9-0.6,13.7-2.2,20.4c-1.7,7.2-3.1,14.5-4.6,21.8c-1.8,3.9-1.8,8.3-2.4,11.7
		c0.9-0.9,0.4-2.9,0.7-4.7c4.2-14,10.1-27.4,15.7-40.9c5.6-13.7,21.5-19.8,35.3-15c2.1,0.7,4.2,1.4,4.9,3.9c1.1,1.2,2.2,2.5,3.4,3.6
		c17.4,14.8,31.9,32,44.7,50.8c12,17.5,22.5,36,32,55.1c8.9,17.7,17.6,35.6,26.3,53.4c4.5,10.3,2.5,20.5-3.1,29.3
		c-13.1,20.5-13.4,41.7-7.9,64.5c8.6,34.9,17.9,69.6,22.3,105.4c3.4,27.4,6.2,54.8,0.1,82.3c-4.2,19-14.1,34.9-28.5,47.6
		c-26.5,23.4-53.3,46.5-80.1,69.4c-32.1,27.4-61.3,57.4-83.1,93.9c-10,16.7-15.6,35.4-21.8,53.7c-16.1,47.4-40.2,90.8-66.1,133.4
		c-20.3,33.3-41.4,66-65.7,96.6c-10.5,13.2-22,25.5-34.3,37c-2.4,2.3-5.1,4.3-8.2,5.5c-8.1,3.2-14.2,0.3-16.8-7.9
		c-2.9-9.3-2.1-19.2-3.5-28.7c-3.5-23.6-18.3-34.4-42-30.8c-39.7,6-74.7,23.3-108,44.5c-33.9,21.6-64.5,47.4-93.3,75.4
		c-56.3,54.6-107.4,113.5-153,177.3c-7.4,10.3-18.5,15.6-28.9,21.7c-33.4,19.6-66.4,39.7-99.6,59.6c-3.4,2-7.1,3.1-10.5,4.8
		c-5.2,0.1-10.4,0.3-15.6,0.4c-26.9,0.1-53.8,0.2-80.7,0.3c-2.7,0-5.5-0.3-8.2-0.5c-2.3-3.4,0.4-5.8,1.9-8.2
		c6.7-11.1,14-21.8,21.2-32.6c83.8-125.5,167.5-251.1,251.1-376.7c39.3-59.1,78.7-118.1,118.1-177.2c17.7-26.7,35.4-53.4,53.1-80.1
		C1149,1098.6,1152.6,1096.6,1154.2,1093z"/>
	<path class="st1" d="M478.4,1171c7.9-8.1,14.5-17.4,21.7-26.1c19.4-23.8,36.9-49,55.3-73.5c28.1-37.7,56.6-75,87.4-110.5
		c7.8-9,15.7-17.8,23.7-26.7c4.6-5.1,9.6-9.9,15.2-14.1c15-11.3,31.8-16.3,50.5-14.8c11.8,0.9,22.5,5.2,32.6,11.2
		c5,2.9,10,5.9,15,8.8c15.2,8.2,27.9,19.6,40.9,30.6c21.9,18.6,41.8,39.4,61.6,60.2c28.7,30,54.5,62.4,74.7,98.9
		c5.8,10.4,10,21.6,12.6,33.2c5.6,24.5-4.6,42.3-24,56.2c-17,12.2-36,20.3-55.5,27.4c-35.6,12.9-72.1,22.9-107.5,36.4
		c-23.6,9-46.6,19.1-64,38.4c-14.4,16-23.8,35.2-32.6,54.5c-9.6,21.1-17.8,42.9-24.4,65.2c-12.8,43.1-38.7,75.4-76.5,99.3
		c-39.2,24.8-76.7,52.3-111.5,83.2c-20,17.8-33.8,40.7-45,65c-15.3,33.1-29.2,66.8-41.3,101.2c-0.6,1.6-1.2,3.1-2.5,4.2
		c-8.5,0.2-17.1,0.5-25.6,0.5c-102.2,0.5-204.5,1-306.7,1.4c-2.7,0-5.5,0.4-8.2-0.5c-0.6-2.1,0.6-3.8,1.4-5.5
		c18.6-41.3,36.5-82.9,55.6-123.9c9.8-21,18.8-42.4,28.1-63.6c9.4-21.2,19.2-42.2,31.4-62c4.4-7,8.8-14.1,13.8-20.7
		c16.5-22.1,33.4-44,51-65.3c14.9-17.9,31.6-33.9,51-47c20.9-14.1,39.5-31.1,57.1-49.1c32-32.6,61.6-67.2,90.2-102.8
		c17.3-21.5,34.2-43.4,51.2-65.2C476.3,1174.2,477.3,1172.6,478.4,1171z"/>
	<path class="st2" d="M806,1776.5c0.5-0.7,0.9-1.5,1.5-1.9c5.4-3.4,10.7-6.7,16.2-10c13.5-8,27.1-16,40.6-24
		c16.8-10,33.7-20,50.4-30c6.4-3.8,12.6-7.9,18.9-11.8c3.8-2.4,6.8-5.6,9.5-9.2c8.2-11.1,16.1-22.3,24.4-33.3
		c7.2-9.4,14.8-18.5,22.2-27.7c6-7.5,11.9-15.2,18-22.6c5.1-6.1,10.6-12,15.9-17.9c8-9.1,16.1-18.1,24.1-27.2c1.3-1.4,2.6-2.8,4-4.2
		c19.3-19.4,38.5-38.8,58.1-58c6.7-6.5,14.2-12.1,21.2-18.4c5.9-5.4,12.4-10.1,18.5-15.2c10.4-8.7,21.5-16.3,32.7-23.9
		c19.7-13.3,40.6-24.7,62.2-34.4c9.2-4.2,19.3-6.7,28.9-9.9c9.2-3,18.7-4.7,28.1-6.2c11.7-1.8,22.5,0.8,31.5,8.8
		c2.4,2.1,4.3,5.1,5.6,8.1c2.4,5.5,3.9,11.3,5,17.4c1.7,8.7,0.2,17.7,2.9,26.2c0.1,0.3,0.1,0.5,0.1,0.8c1.3,9.5,10,9.6,15.7,6.2
		c2.6-1.5,5.1-3.4,7.2-5.5c6.4-6.2,12.8-12.3,18.7-18.8c6.1-6.7,11.8-13.8,17.4-21c16.3-20.5,30.8-42.4,44.9-64.4
		c5-7.9,10.2-15.6,14.8-23.8c3-5.5,6.8-10.6,10-16.1c5.7-9.5,11.6-18.8,16.6-28.6c6.5-13.1,14.8-25.3,19.9-39
		c1.2-3.3,3.2-6.4,4.7-9.7c5.4-11.5,10.4-23.1,14.5-35.1c4.8-14.1,9.8-28.1,15.1-42c6.3-16.6,15.8-31.4,26.5-45.6
		c15.1-19.8,32-38,50.3-54.8c6-5.5,11.9-11.5,18.7-16.2c4.5-3.1,8.4-7.2,12.4-10.9c5.9-5.4,12.2-10.4,18-15.8
		c6.3-5.8,13-11,19.5-16.6c5.6-4.9,11.3-9.7,16.7-14.9c4.5-4.4,9.9-7.9,14.4-12.5c12.6-13,21.6-27.8,25.3-45.6
		c1-4.9,1.9-9.7,1.8-14.7c-0.1-3.6,0.5-7.1,1.1-10.6c0.9-6,1-12.1-0.2-18.1c-0.4-1.9-0.9-3.8-0.8-5.7c0.7-9.2-1-18.2-2-27.2
		c-1.3-11.2-3.4-22.3-5.5-33.3c-4.3-22.2-9.6-44.1-15.2-65.9c-1.9-7.2-3.4-14.4-5-21.7c-1.2-5.5-0.6-11-0.6-16.5c0-4.4,0-8.7,1-13.1
		c1.6-7.5,5.3-14,9-20.4c4.7-8.1,7.4-16.5,6.7-25.9c-0.1-1.9-0.1-3.9-0.1-5.8c2.7,2.4,4.3,5.6,6.2,8.7
		c12.5,19.8,23.6,40.5,35.2,60.9c18.9,33.1,37.7,66.2,57.8,98.5c19.4,31.3,47.2,52,81.4,64.6c1.1,3.8-1.5,6.3-3.2,9
		c-28.3,44.8-56.3,90-85.9,133.9c-27.3,40.6-52.4,82.5-81.1,122.2c-13.1,18.1-23.9,37.8-35.5,56.9c-19.2,31.6-40,62.3-60.2,93.3
		c-59,90.8-117.6,181.9-176.6,272.7c-41,63.3-82.6,126.2-122.4,190.3c-10.1,16.3-20.6,22.3-39.4,21.2c-28.9-1.7-58-0.5-87-0.4
		c-2.7,0-5.5-0.6-8.2,0.5c-8.8,0.1-17.7,0.3-26.5,0.4c-49.4,0.2-98.8,0.3-148.3,0.6c-77.3,0.4-154.6,0.8-231.9,1.1
		C810.4,1776.8,808.2,1776.6,806,1776.5z"/>
	<path class="st2" d="M384.7,1780.3c0.2-1.9,0-4,0.7-5.7c7.2-18.2,13.6-36.7,21.1-54.8c6.7-16.1,13.9-31.8,21-47.7
		c6.4-14.4,14.7-27.8,24.1-40.5c4.8-6.4,10-12.4,15.2-18.5c2.3-2.7,5.1-5,7.9-7.3c6.9-5.9,13.9-11.7,21.2-17.2
		c6.6-4.9,12.9-10.3,19.4-15.4c19.1-14.9,39.2-28.4,59.2-42.2c10.8-7.5,22.2-14.3,32.5-22.7c7.7-6.3,14.6-13.5,21.2-20.9
		c2.6-2.9,4.9-6,7.1-9.1c9-12.7,15.6-26.6,20.7-41.3c5.4-15.4,10.4-30.8,16-46.1c7.3-19.7,15.5-39,25.9-57.3
		c7.6-13.5,16.2-26.4,28.3-36.4c4.4-3.7,9-7.3,13.9-10.3c10.1-6.2,20.8-11.4,31.8-15.8c25.6-10.2,51.9-18.6,78.2-26.9
		c20.5-6.5,40.8-13.5,60.7-21.6c13.1-5.3,25.4-12.2,36.5-21c6.2-4.9,12-10.6,16.4-17.5c3.4-5.3,4.9-10.9,5.2-17.1
		c0.8-12.7-2.4-24.5-7.1-36.2c-5.8-14.5-14.2-27.4-22.7-40.3c-8.2-12.4-17.1-24.3-26.5-35.9c-7.1-8.8-14.8-17.1-22.2-25.6
		c-18.1-20.9-38.6-39.5-58-59.2c-6-6-13.1-11-19.4-16.7c-6.5-5.9-13.6-11.2-20.4-16.8c-4.3-3.5-8.6-6.9-12.8-10.3
		c2.4-0.6,4.3,0.7,6.2,1.8c70.2,42,140.3,84,210.4,126.2c20.6,12.4,40.8,25.3,61.3,38c8.7,5.4,17.7,10.1,27.5,13.5
		c22.1,7.5,42.9,5.3,62.8-7c2.1-1.3,4.3-2.5,6.4-3.7c-0.3,1.1-0.2,2.3-0.8,3.1c-3.8,5.7-7.9,11.3-11.7,17
		c-6.1,9.2-11.9,18.5-18,27.7c-6.4,9.6-13.1,19-19.6,28.6c-3.1,4.6-5.7,9.4-8.9,13.9c-6.5,8.9-12,18.5-18.5,27.4
		c-7.3,10-13.5,20.7-20.4,31.1c-9.1,13.8-18.4,27.5-27.5,41.2c-8.4,12.6-16.7,25.3-25.1,37.8c-40.5,60.8-81,121.5-121.5,182.2
		c-52.8,79.1-105.5,158.2-158.3,237.3c-7.2,10.8-14.1,21.7-21.1,32.6c-0.8,1.2-1.3,2.4-1.4,3.8c-2.5,0.2-4.9,0.6-7.4,0.6
		c-67.6,0.4-135.2,0.7-202.7,1.1c-32.5,0.2-65.1,0.2-97.6,0.3C390.7,1780.7,387.7,1780.4,384.7,1780.3z"/>
	<path class="st1" d="M1219.3,1774.8c2.4-2.2,5.3-1.2,7.9-1.2c33.2-0.1,66.3-0.1,99.5-0.2c2.5,0,5-0.1,7.5,0
		c2.8,0.1,4.6-1.1,6.1-3.4c8.3-13,16.8-25.9,25.2-38.9c2.5-3.9,5.1-7.9,7.6-11.8c14.1-21.7,28.2-43.5,42.3-65.2
		c13.4-20.6,26.7-41.1,40-61.7c16.4-25.5,32.8-51,49.2-76.5c12.9-19.9,25.9-39.7,38.8-59.6c12.7-19.7,25.4-39.4,38.1-59.1
		c17.7-27.3,35.6-54.4,53-81.9c6.6-10.5,13.6-20.8,20.3-31.2c8.5-13.2,17.3-26.2,25.8-39.4c11.8-18.3,23.8-36.5,35-55.2
		c9.5-15.8,19.1-31.6,29-47.2c5.3-8.4,11.1-16.4,16.8-24.6c5.5-8,11.1-15.8,16.4-23.9c7.4-11.3,14.4-22.8,21.7-34.2
		c6.7-10.4,13.4-20.8,20.3-31.2c2-3,4.6-5.5,6.6-8.5c3.7-5.5,7.2-11.1,10.8-16.7c9.1-14.2,18.1-28.3,27.2-42.5
		c14.6-23,29.2-46.1,43.8-69.1c3.5-5.6,7.2-11.1,10.8-16.7c2.8-3.3,6.3-3,9.8-1.8c8.3,2.8,16.6,5.5,24.8,8.6
		c16.2,6.1,31.8,13.5,46,23.5c1.6,1.1,3.2,2.2,5.2,2.4c0.1,5,0.4,9.9,0.4,14.9c0.1,28.5,0.2,56.9,0.3,85.4c0,1.9-0.2,3.9-0.3,5.8
		c-11.7,16.3-26.4,29.7-41.3,42.9c-35.8,31.9-70,65.1-93.8,107.5c-18.6,33.1-29.3,69.1-38.2,105.7c-11.1,45.7-17.1,92.4-28.9,137.9
		c-9.4,36.1-19.1,72.2-37.2,105.2c-17.6,32.2-38.6,61.1-71.3,79.9c-13.7,7.8-20.2,22.4-27.8,35.5c-10.9,19-18,39.8-25.1,60.4
		c-8.4,24.3-16.7,48.6-26.6,72.4c-3.3,7.9-2.9,8.4,5.7,8.4c43.7,0,87.3,0,131,0.1c4,0,8.4-1.3,11.7,2.4c-2.6,1.1-5.4,0.8-8.2,0.8
		c-54.1,0.2-108.2,0.3-162.3,0.5c-62.7,0.2-125.3,0.4-188,0.7c-58.8,0.3-117.6,0.7-176.4,1.1
		C1225.3,1775.2,1222.3,1774.9,1219.3,1774.8z"/>
	<path class="st2" d="M1763.1,1772.1c-3-0.1-6.1-0.4-9.1-0.4c-45,0-90.1,0.1-135.1,0.2c-10.9,0-11.4,0.9-6.9-10
		c5.3-12.7,10.4-25.5,14.9-38.6c6.6-19,13.1-38.1,20.1-56.9c7.6-20.5,16.4-40.4,29.4-58.2c2.3-3.1,4.4-6.3,6.8-9.3
		c3.5-4.4,8.1-7.4,12.9-10.1c10.8-6.2,20.9-13.4,29.3-22.6c10.9-12,20.9-24.8,29.5-38.7c7.4-12,13.7-24.6,19.4-37.5
		c4.6-10.3,8.2-21.1,11.7-31.8c7.6-23.3,14.2-46.9,19.5-70.8c3.5-15.8,6.5-31.7,9.3-47.7c2.9-17.1,6.8-33.9,10.5-50.8
		c2.8-12.9,5.9-25.7,8.9-38.6c0.7-2.9,1.5-5.9,2.4-8.8c2.2-7.1,4.2-14.3,6.6-21.3c3.2-9.7,6.6-19.3,10.8-28.6
		c1.7-3.8,3.2-7.6,5-11.4c9.3-19.8,21.2-38,34.5-55.3c13.6-17.8,29.3-33.8,45.7-48.9c6.5-6,12.6-12.4,19.4-17.9
		c11.6-9.4,21.6-20.6,32.3-30.9c3.2-3.1,6.4-6,8.7-9.9c1.1-1.9,2.9-3.4,5.3-3.5c0.2,8.3,0.4,16.6,0.4,24.8c0.2,42,0.3,84,0.5,126
		c0.5,104.7,0.9,209.4,1.4,314.1c0.5,93.4,1,186.8,1.5,280.1c0,2.5,0.1,5-0.1,7.5c-0.3,3.3-1.8,5-5.2,5.4c-2.2,0.2-4.4,0.2-6.6,0.2
		c-41.2,0.1-82.3,0.2-123.5,0.3c-34,0.1-67.9,0.3-101.9,0.4C1768.6,1772.4,1765.8,1772.2,1763.1,1772.1z"/>
	<path class="st3" d="M1631.6,479.5c-3.7-1-7.4-2.4-11.1-3c-12.4-2.1-22.9,4-27.7,15.9c-1.9,4.6-3.5,9.3-5.3,13.9
		c-3.4,8.7-6.9,17.4-10.3,26.2c-4.3-1.3-1.9-4.3-1.7-6.7c0.9-10.4,4.1-20.4,5.8-30.7c0.5-2.7,1-5.4,1.1-8.1
		c0.4-7.1-1.4-13.6-6.6-18.8c-0.7-3.5-3.5-4.5-6.4-5.5c-8.1-3.1-16.2-6.3-24.3-9.6c-5.3-2.1-10.5-4.5-15.7-6.8
		c-0.2-3.2,1.6-2.5,3.4-1.8c10.8,1.9,21.6,3.8,32.4,5.7c1.6,0.3,3.2,0.7,4.8,0.9c12.7,1.4,21.3-3.2,26.6-14.8
		c3.3-7.2,5.9-14.8,8.9-22.2c2.2-5.3,4.5-10.6,6.8-15.9c3.2-0.2,2.3,1.7,1.8,3.4c-2,11.9-3.9,23.8-6,35.7
		c-2.2,12.7,3.7,23.6,15.5,28.4c12.7,5.1,25.5,10.3,38.2,15.4c0.2,3.2-1.6,2.2-3.3,1.7c-5.9-0.9-11.9-1.7-17.8-2.7
		C1637.5,479.9,1634.6,479.3,1631.6,479.5z"/>
	<path class="st4" d="M1666.5,408c0.4-2.7,0.8-5.4,1.2-8.1c0.3-2.2,0.8-4.3,1-6.5c0.7-8.8-1-11.9-9-15.5c-2.5-1.1-5.1-2.1-7.6-3.1
		c-2.8-1.1-5.6-2.2-8.4-3.3c-0.3-3.2,1.7-2.2,3.4-1.8c4.9,0.7,9.7,1.6,14.6,2.2c8.7,1,11.8-0.8,15.5-8.8c1.5-3.2,3-6.5,4.5-9.7
		c4.2,0.5,2.2,3.2,1.9,5.3c-0.2,3-0.4,6.1-0.6,9.1c-0.3,5.2,1.9,9.1,6.6,11.4c3,1.5,6.1,2.6,9.1,4c1.5,0.7,3,1.4,4.5,2
		c-1.4,4.2-4.5,1.8-7,1.7c-2.4-0.2-4.9-0.5-7.3-0.6c-7.6-0.4-11,1.6-14.1,8.5c-2.2,5-4.3,10-6.5,15
		C1666.8,410.2,1666.1,409.7,1666.5,408z"/>
	<path class="st5" d="M1553.4,390.8c5.2,0.2,8.1-3.5,11.8-7.2c-0.2,5.4,1.3,9.1,5.7,12.2c-4.7,1.5-8.6,2.9-11.8,7.6
		C1559,397.6,1556.9,394.1,1553.4,390.8z"/>
	<path class="st6" d="M1696.2,386.9c2.3-0.8,5.1,0.7,7-1.7c0.5,0,1.1,0,1.6,0.1c3.6,1.3,5.5,2.8,4.5,3.5c-1.8,1.4-3.6,0-5.3-0.2
		C1701.3,388.3,1698.5,388.6,1696.2,386.9z"/>
	<path class="st7" d="M1683.5,358.7c-0.5-1.8,0.2-4-1.9-5.3c-0.2-1.9,1.1-3.3,1.8-4.9c1.6-0.4,2.3,0.1,2,1.8
		C1684.9,353.1,1685.4,356.2,1683.5,358.7z"/>
	<path class="st8" d="M1532.5,444.5c-1.2,0.5-2.7,0.3-3.4,1.8c-2,0.2-3.6-0.8-5-2.1C1527.9,442.5,1527.9,442.5,1532.5,444.5z"/>
	<path class="st9" d="M1647.1,369.7c-1.2,0.5-2.7,0.4-3.4,1.8c-1.1,0.2-2.2-0.1-3.1-0.8c-0.4-0.3-0.7-0.9-0.7-1.4c0-0.4,0.6-1,0.9-1
		C1643.1,368.2,1645.3,368,1647.1,369.7z"/>
	<path class="st10" d="M1613.9,401.7c-0.5-1.2-0.4-2.7-1.8-3.4c-0.4-2,1.2-3.3,1.6-5.1c1.6-0.5,2.2,0.1,2,1.7
		C1615.3,397.3,1615.7,399.8,1613.9,401.7z"/>
	<path class="st11" d="M1658.3,483c1.1-0.5,2.6-0.3,3.3-1.7c1.7,0.5,3.4,1,5.1,1.5c0.6,1.5,0,2.1-1.6,1.9
		C1662.8,484.3,1660.3,484.9,1658.3,483z"/>
	<path class="st12" d="M1615.7,395c-0.7-0.6-1.3-1.1-2-1.7c0.1-0.5,0.1-1.1,0.3-1.6c0.4-0.8,1.1-1.3,1.9-0.9
		c0.4,0.2,0.7,0.8,0.8,1.3C1617,393.2,1616.6,394.2,1615.7,395z"/>
	<path class="st13" d="M1666.5,408c0.6,0.6,1.2,1.1,1.8,1.7c-0.4,1-0.7,2-1.2,2.9c-0.2,0.4-0.8,0.6-1.2,0.9
		c-0.3-0.4-0.7-0.7-0.8-1.1C1665,410.8,1665.2,409.2,1666.5,408z"/>
	<path class="st14" d="M1685.4,349.3c-0.7-0.6-1.4-1.2-2-1.8c0.2-0.5,0.2-1.1,0.6-1.4c0.6-0.5,1.3-0.7,2-1.1
		c0.2,0.7,0.6,1.5,0.5,2.2C1686.4,348,1685.8,348.6,1685.4,349.3z"/>
	<path class="st15" d="M1665.1,484.8c0.5-0.6,1-1.3,1.6-1.9c0.5,0.2,1,0.3,1.3,0.6c0.4,0.5,0.7,1.2,1,1.9c-0.7,0.2-1.4,0.7-2,0.6
		C1666.3,485.8,1665.8,485.2,1665.1,484.8z"/>
	<path class="st16" d="M1575.3,525.8c0.1,1.1,0.3,2.1,0.3,3.2c0,1.4,0.1,2.7,1.4,3.5c0.2,2-0.8,3.6-2,5.1
		C1573.3,532.9,1573.3,532.1,1575.3,525.8z"/>
</g>
</svg>
