<?xml version="1.0" encoding="utf-8"?>
<!-- Generator: Adobe Illustrator 26.0.1, SVG Export Plug-In . SVG Version: 6.00 Build 0)  -->
<svg version="1.1" id="Layer_1" xmlns="http://www.w3.org/2000/svg" xmlns:xlink="http://www.w3.org/1999/xlink" x="0px" y="0px"
	 viewBox="0 0 90 90" style="enable-background:new 0 0 90 90;" xml:space="preserve">
<style type="text/css">
	.st0{fill:#666666;}
</style>
<path class="st0" d="M88.3,40.4c1.5-1.4,2.1-3.6,1.4-5.6s-2.4-3.4-4.4-3.7l-23.2-3.5c-0.7-0.1-1.4-0.6-1.7-1.3L50.1,5.2
	c-0.9-2-2.8-3.1-4.9-3.1s-4,1.1-4.9,3L29.9,26c-0.4,0.7-1,1.2-1.9,1.3L4.7,30.5c-2.1,0.3-3.8,1.7-4.4,3.7c-0.7,2.1-0.2,4.2,1.3,5.7
	l16.7,16.5c0.6,0.6,0.8,1.3,0.7,2.2l-4.1,23.2c-0.3,1.5,0.1,3.2,1.1,4.4c1.5,2,4.4,2.5,6.7,1.3l20.8-10.8c0.7-0.4,1.5-0.4,2.3,0
	l20.7,11.1c0.8,0.4,1.6,0.6,2.6,0.6c1.6,0,3.2-0.7,4.2-2s1.5-2.8,1.2-4.4l-3.8-23.2c-0.1-0.7,0.2-1.5,0.7-2.1L88.3,40.4z"/>
</svg>
