<?xml version="1.0" encoding="utf-8"?>
<!-- Generator: Adobe Illustrator 26.0.1, SVG Export Plug-In . SVG Version: 6.00 Build 0)  -->
<svg version="1.1" id="Layer_1" xmlns="http://www.w3.org/2000/svg" xmlns:xlink="http://www.w3.org/1999/xlink" x="0px" y="0px"
	 viewBox="0 0 1920 475.6" style="enable-background:new 0 0 1920 475.6;" xml:space="preserve">
<style type="text/css">
	.st0{fill:#FFFFFF;}
</style>
<g>
	<path class="st0" d="M1517.1,28.1c13.1-5.3,26.2-2.4,39.6-0.4c-38.2,5.3-61.1,32.2-85.3,57.3c0.5,0.7,0.9,1.4,1.4,2
		c1.7-1.3,3.7-2.3,5.2-3.8c8.1-8.1,16.3-16.1,24.2-24.4c16.3-17.2,36.8-26.6,59.8-29.4c10.9-1.3,22.3,1.9,33.3,4.7
		c-8.4,1.9-16.7,3.8-25.1,5.8c0.1,0.8,0.1,1.7,0.2,2.5c20.2-6.7,40.4-9.4,61-0.3c-4.9,0.9-9.5,1.7-14.1,2.7c-4.9,1-9.6,2.5-14.5,3.4
		c-21.7,4.2-38.3,15.4-50.7,33.8c-7.8,11.5-17.6,21.6-26.2,32.5c-8.2,10.3-16.6,20.5-24.1,31.3c-9.3,13.3-21,23.1-36.4,28.5
		c-4.7,1.6-9.3,3.6-14,5.2c-15.1,5.2-27,14.6-36.4,27.4c-10.2,14-18.4,29.7-34.5,38.7c0.4,0.5,0.8,1,1.2,1.5
		c1.6-0.7,3.5-1.1,4.7-2.3c7.4-7.2,15.1-14.3,21.9-22.1c6.5-7.5,11.9-16,18.2-23.6c8.1-9.6,18.9-15.6,30.6-19.2
		c23.8-7.2,41.6-21.2,54.7-42.4c6.5-10.5,15.9-19.1,23.8-28.7c8.6-10.6,17.2-21.3,25.3-32.3c9-12.1,20.3-20.5,34.9-24
		c12.1-2.9,24.1-6,36.3-8.4c4-0.8,8.4,0.6,12.6,0.6c9.3,0.1,18.9,1.2,27.9-0.4c21.9-3.8,43.7-8.5,65.3-13.7
		c10.3-2.5,20.2-6.5,30.1-10.4c17.6-6.9,35.8-7.4,54.3-5.9c0.9,0.1,1.7,0.8,2.8,1.3c-22.8,10.4-46.5,44.8-43.8,65.4
		c0.8-2.1,1.6-4.2,2.5-6.2c5.9-12.3,11.1-25,17.9-36.8c5.5-9.6,13.8-17,25-20.2c2.9-0.8,6.2-1.6,9.1-1.1c7.1,1.2,14.1,3.1,22.3,5
		c-30.5,11.5-42.4,36.8-53.8,62.6c0.8,0.6,1.5,1.1,2.3,1.7c1.2-2,2.3-4,3.6-6c8.5-13.4,16.2-27.4,25.8-39.9
		c11.1-14.4,25.9-19.8,43.7-11.8c3.1,1.4,6.5,2.1,10.2,3.2c-30.8,10.3-45.2,34.9-58.8,60.1c0.7,0.6,1.5,1.3,2.2,1.9
		c1.2-1.7,2.3-3.5,3.6-5.2c9.4-12.8,18.1-26.1,28.2-38.3c14.3-17.2,32.3-20.1,51.6-10.3c-28.6,11.9-45.8,34.9-59.2,61.6
		c0.8,0.6,1.6,1.3,2.4,1.9c1.1-1.9,2.4-3.7,3.4-5.6c8.6-17.2,20.4-32,35.2-44c6.2-5,14.2-7.8,21.3-11.5c0,6.5,0,13,0,19.4
		c-2.4,1.5-5.2,2.6-7.2,4.5c-13.6,13.4-22.6,30-30.8,47c-36.5-5.2-67.9,2.9-92.2,32.9c-11.6,14.3-25.1,27-38.2,39.9
		c-13.8,13.6-25.1,28.8-33.9,46.1c-6.6,13.1-12.7,26.7-21,38.7c-7.5,10.8-16.6,21.4-27.1,29.2c-18.1,13.4-38.7,22.9-60.7,27.8
		c-12.9,2.9-26.6,2.8-39.9,3c-6.8,0.1-13.6-1.8-20.4-2.9c14.2,5.2,28.7,7.4,43.8,6.3c25.8-1.9,48.4-12.7,70.7-24.7
		c16.7-8.9,29.8-21.6,39-38.1c6.6-11.7,12.8-23.7,18.8-35.7c8-15.9,17.6-30.6,30-43.4c16.7-17.1,33.3-34.3,49.5-51.8
		c13.8-15,30.4-23.9,50.8-25.5c10.4-0.8,20.8-1.4,31.1-2.1c3.6,1.8,3.6,1.8,5.4-2.2c7.8-18,18-34.3,32.5-47.7c0,12.5,0,24.9,0,37.4
		c-7,6.8-9.1,15.6-10,24.9c2.5-2.7,3.7-6,5.2-9.2c1.5-3.3,3.2-6.5,4.9-9.7c0,8.5,0,16.9,0,25.4c-32.1-10.2-83.6,1.7-91.9,23.1
		c3-1.8,4.9-2.5,6.2-3.7c25.1-22.8,55.2-21.4,85.7-17.9c0,12.5,0,24.9,0,37.4c-16.7,2.9-28.5,13-39,25.5
		c-13.6,16.1-27.8,31.8-41.7,47.7c-1.8,2.1-3.8,4-5.3,6.2c-0.8,1.2-0.7,2.9-1,4.4c1.6-0.4,3.8-0.3,4.7-1.4
		c13.6-15.2,27-30.5,40.5-45.7c6.2-7.1,11.8-15.1,19.1-20.8c6.5-5.1,15.1-7.7,22.8-11.4c0,10.5,0,20.9,0,31.4
		c-10.3,9.1-23.3,27.4-23.1,35c8.4-10.6,15.7-19.8,23.1-29c0,17.4,0,34.9,0,52.3c-11.5,14-23.2,27.9-34.4,42.2
		c-17.9,22.7-40,39-67.8,47.9c-27.4,8.8-45.3,31.2-67.3,48.2c2.5,0.1,4.8-0.3,6.4-1.6c7-5.5,14.1-11.1,20.7-17.1
		c14.5-13.3,30.7-23.7,49.5-29.7c23.2-7.4,42.1-20.9,57.6-39.6c11.6-13.9,23.5-27.6,35.3-41.4c0,15.9,0,31.9,0,47.8
		c-1.5,1.2-3.3,2.2-4.5,3.6c-19.5,23-43.6,38.8-72.7,47.5c-16.2,4.8-29.7,14.8-41.9,26.5c-7.7,7.4-15.5,14.8-23.8,21.5
		c-13.9,11.3-30,15.1-47.6,12.2c-1-0.2-2-0.4-2.9-0.5c-1,0-1.9,0.2-2.9,0.3c16.9,6,33.5,6,48.6-3.7c8.7-5.6,17-12.3,24.2-19.7
		c17.3-18,37.4-31,61.2-38.6c19.8-6.3,36.6-17.8,51-32.7c3.6-3.7,7.6-7,11.4-10.4c0,11.5,0,22.9,0,34.4c-0.9,0.3-1.9,0.4-2.6,0.9
		c-16.6,10.5-32.7,21.7-49.7,31.5c-16.5,9.5-32,20-45.4,33.7c-6.2,6.4-12.9,12.5-19.8,18.2c-13.9,11.5-30.1,15.7-47.6,11.9
		c-38.9-8.6-77.6-17.6-116.4-26.9c-20.2-4.8-40.3-10-61.2-7.4c-20,2.5-39.8,6.2-59.7,9.5c-0.7,0.1-1.4,0.7-2,1c2.6,1.7,5,2,7.2,1.7
		c9.1-1.4,18.2-2.7,27.2-4.7c26.2-5.8,52.1-6.6,78.4,0c39.1,9.8,78.6,18.2,117.6,28.3c27.8,7.2,51.9,2.3,70.7-19.3
		c28.7-32.9,69.9-47.9,103.3-73.8c0,10,0,19.9,0,29.9c-9.6,8.2-19.2,16.5-28.8,24.7c-21.3,18.2-42.6,36.3-63.9,54.5
		c-30.4,0-60.8,0-91.2,0c-1.3-0.6-2.6-1.4-3.9-1.7c-32-8.1-64.1-16.1-96.2-24.1c-3.9-1-7.8-1.7-11.7-2.5c0.6,2.2,1.6,2.9,2.6,3.2
		c30.3,7.8,60.7,15.5,91,23.3c1.6,0.4,3.1,1.2,4.7,1.8c-21.9,0-43.8,0-65.8,0c-21.9-7.5-43.8-6.3-65.8,0c-37.4,0-74.7,0-112.1,0
		c11.1-4,21.9-9.3,33.3-11.7c25.6-5.3,51.4-9.1,77.2-13.4c5.4-0.9,10.8-1.3,16.2-2c0-0.7-0.1-1.4-0.1-2.1c-3.3,0-6.7-0.5-9.9,0.1
		c-30.4,5-61,9.4-91.2,15.6c-11.9,2.4-23,8.9-34.4,13.5c-14.9,0-29.9,0-44.8,0c1.6-1.8,3.1-3.8,4.9-5.4c17.1-14.9,36.7-24.5,58.9-29
		c2.7-0.6,5.5-1.1,9.5-2c-14.7-6.9-57.4,13-80.7,36.3c-14.9,0-29.9,0-44.8,0c7.7-7.4,15.2-15.1,23.3-22.1
		c23.2-20.3,49.9-33.5,80.6-38.2c12.1-1.9,24.2-3.3,36.3-4.8c25.9-3.3,52-8.6,78.1-3.9c36.2,6.5,72.2,14.5,108.3,21.9
		c2.5,0.5,4.9,1.2,7.4,1.9c0.2-0.6,0.3-1.2,0.5-1.8c-2.5-0.8-5-1.8-7.5-2.4c-28.2-6.2-56.5-12.1-84.6-18.4c-26.8-6-53.7-7-80.9-3.5
		c-12.4,1.6-24.7,3.4-37.1,4.3c-47.6,3.4-87.8,22.6-121,56.7c-3.2,3.3-6.1,6.9-9.2,10.4c-18.9,0-37.9,0-56.8,0
		c24.9-21.8,48.6-45,77.5-61.9c22.6-13.2,46.1-23.8,72.4-26.4c62.4-6.3,124.3-3,185.5,11.4c20.6,4.8,41,10.3,61.6,14.8
		c10.3,2.2,20.9,1.5,31.2-2.6c-0.8-1.1-1.1-1.7-1.4-1.9c-0.7-0.2-1.5-0.5-2.2-0.3c-19.6,6-38.6,1.7-57.3-3.8
		c-64.1-19.1-129.6-25.6-196.3-23.5c-32.9,1.1-63.3,9.2-91.8,25.4c-25.6,14.5-48,32.8-69.6,52.5c-5.8,5.3-11.4,10.8-17.1,16.2
		c-18.9,0-37.9,0-56.8,0c50.7-50.2,104.5-95.9,175.3-116.5c-2.8-1.1-5.5-1.5-7.8-1c-5.5,1.4-11.1,2.9-16.4,4.9
		c-62.9,23.3-112.4,65.6-158.6,112.5c-16.4,0-32.9,0-49.3,0c16-15.7,32.3-31,47.8-47.2c26-27.3,55.6-49.6,89.5-66.1
		c2.3-1.1,4.5-2.6,6.7-3.8c-0.2-0.7-0.4-1.4-0.7-2.1c-2,0.3-4.4,0.1-6.1,1c-25.2,13.1-50.2,26.5-70.9,46.4
		c-23.6,22.8-46.9,45.9-70.4,68.9c-0.8,0.8-1.3,2-1.9,3c-15.4,0-30.9,0-46.3,0c22.3-22.1,44.9-43.8,66.7-66.4
		c36.9-38.4,82.5-63.7,129.3-87.2c18.4-9.2,38.3-12.7,58.8-9.6c19.7,3,39.2,6.8,58.8,9.9c13.8,2.2,27.7,4,41.6,5.9
		c0.1-0.6,0.2-1.2,0.3-1.8c-2.8-0.6-5.6-1.2-8.4-1.7c-26.3-4.3-52.6-8.3-78.8-12.8c-24.2-4.2-48.4-5.6-71,5.4
		c-41,19.9-81.5,40.9-115.5,72.1c-24.2,22.2-47.5,45.4-71.1,68.3c-5.9,5.7-11.2,11.9-16.7,17.9c-14.9,0-29.9,0-44.8,0
		c7.5-7.6,15.3-14.9,22.5-22.7c52.8-56.6,114.8-101.4,180.6-141.3c14-8.5,28.9-14.8,45.3-16.3c9.3-0.8,18.8-0.1,28.6-0.1
		c-0.5-0.9-0.6-1.3-0.8-1.3c-1.2-0.3-2.4-0.5-3.6-0.7c-26.8-3.4-51.6,2.4-74.2,16.8c-20.6,13.1-41.3,26-61.2,40.2
		c-37.3,26.6-74.1,54-106.2,87c-12.7,13-25.7,25.7-38.6,38.5c-14.4,0-28.9,0-43.3,0c23.7-23.3,47.5-46.5,71.2-69.8
		c1.4-1.4,2.9-2.8,4.5-3.9c49.9-35.5,99.6-71.3,149.8-106.3c19-13.3,41.1-16.9,64.2-15.6c20.6,1.2,41.3,1.7,61.9,3
		c15.6,1,31.2,2.7,46.8,4.4c4.1,0.4,8.1,1.8,12.2,2.7c0.1-0.9,0.3-1.9,0.4-2.8c-15.9-2.1-31.8-5.1-47.8-6.2
		c-23.1-1.6-46.4-0.6-69.4-2.8c-35.1-3.4-65.3,6.7-92.2,28.8c-2.9,2.4-5.8,4.7-8.9,6.8c-32.1,22.7-64.5,45-96.2,68.3
		c-16.4,12-32.5,24.7-47.1,38.9c-18.9,18.3-35.3,39.2-57,54.5c-16.9,0-33.9,0-50.8,0c23.8-8.4,41.5-24.9,57.5-43.6
		c17.9-20.7,35.7-41.6,59.4-56.1c0.3-0.2,0.3-0.9,1.2-3.3c-3.9,1.7-6.7,2.5-9,3.9c-20,12.3-35.4,29.6-50.4,47.3
		c-19.1,22.5-39.1,43.8-69.2,51.7c-35.9,0-71.7,0-107.6,0c-10.9-6.2-21.9-12.4-32.8-18.6c-0.5-0.8-0.8-2-1.5-2.4
		C794,438.1,762,427.3,726.7,432c-38.4,5.1-70.7,25.4-103.9,43.2c-0.2,0.1-0.1,0.5-0.2,0.7c-25.9,0-51.8,0-77.7,0
		c35.6-26.3,73.5-48.4,114.8-64.4c21.8-8.5,44.4-10.5,67.5-6.9c1.4,0.2,2.9,0.2,4.4,0.2c-2.2-2.4-4.6-3.4-7.1-3.9
		c-24.6-4.5-48.6-2.2-71.8,7c-41.5,16.3-79.3,39.1-114.9,65.8c-0.8,0.6-1.2,1.5-1.9,2.2c-17.4,0-34.9,0-52.3,0
		c1-1.6,1.8-3.5,3.1-4.8c36.5-39.3,79.5-69.1,129.5-88.8c28.5-11.2,57.7-12.2,87.2-4.1c7.1,2,14.1,4.2,21.1,6.3
		c-21.4-13.3-63.1-19.6-91.2-12.1c-63.7,17-114.6,53.9-157.1,103.4c-13,0-25.9,0-38.9,0c0.4-1.1,0.5-2.4,1.2-3.4
		c32.1-49.1,74-87,128.1-110.7c27.3-11.9,55.7-16.6,85.3-11.4c8.5,1.5,16.9,3.6,25.4,5.4c-26.6-10.2-54-13.7-82-7.6
		c-45.5,9.9-82.8,34.5-115.9,66.2c-18.9,18.1-35.5,38.3-48.1,61.4c-12,0-23.9,0-35.9,0c13-20.9,26-41.8,39-62.7
		c-2.5-0.1-4.5,0.7-5.5,2.2c-12.8,20.1-25.4,40.3-38,60.5c-11.5,0-22.9,0-34.4,0c1.9-4.1,3.7-8.2,5.6-12.3c-1.2-0.5-2.3-1.1-3.5-1.6
		c-2.2,4.6-4.4,9.2-6.6,13.9c-11.5,0-22.9,0-34.4,0c0-0.7-0.2-1.6,0.2-2.2c17.2-29.1,32.9-59.3,52.2-87
		c27.9-40,65.7-67.6,113.8-79.6c0.9-0.2,1.6-0.9,2.5-1.4c-3.8-0.8-7.2-0.4-10.4,0.5c-28.9,7.7-54.4,21.9-76.8,41.6
		c-40,35.3-63.4,81.9-87.4,128.1c-12,0-23.9,0-35.9,0c7.5-13.5,15.1-26.9,22.6-40.4c14.6-26.4,29.9-52.3,49.5-75.4
		c30.7-36,67.7-61.7,115.5-68.5c15-2.2,30.4-1.7,43.3-2.3c-2.7-0.3-7.8-1.1-13-1.4c-49.2-2.5-91.3,14.3-127.5,47
		c-43.2,39.2-68,90.9-95,141c-12,0-23.9,0-35.9,0c10.2-18.5,20.5-37.1,30.7-55.6c-0.9-0.6-1.8-1.1-2.7-1.7c-1.5,1.9-3.4,3.7-4.6,5.8
		c-5.3,9.2-10.6,18.5-15.7,27.9c-4.2,7.8-8.1,15.7-12.1,23.6c-12,0-23.9,0-35.9,0c15.6-27.4,30.9-55.1,47.1-82.2
		c18.5-31,39.3-60.5,66.2-85.1c1-0.9,1.6-2.2,2.4-3.3c-0.4-0.5-0.7-0.9-1.1-1.4c-2.2,1.4-4.9,2.5-6.7,4.4
		c-11.9,13.1-24.4,25.6-35.1,39.6c-29.8,39.1-53,82.4-76.5,125.3c-0.5,0.8-0.5,1.9-0.8,2.8c-11.5,0-22.9,0-34.4,0
		c0.1-0.7,0.1-1.5,0.4-2.2c28.1-51.1,56.8-101.8,93.4-147.5c7.1-8.9,15.1-17.3,23.4-25.1c38.1-36.2,83.6-49.1,134.9-39.8
		c26.8,4.9,53.3,12.2,79.8,18.7c5.5,1.4,9,0.8,13.8-3.3c9.7-8.3,20.8-15,31.3-22.3c2.2-1.6,4.4-3.3,6.6-4.9
		c27.6-19.9,59-30.4,92.1-36.4c29.9-5.4,59.8-10.3,89.7-15.9c15.9-2.9,31.6-6.9,47.4-10.1c16.8-3.4,33.5-7.1,50.4-9.5
		c23.2-3.3,46.5-5.8,69.9-8c19.7-1.8,39.5-3.5,59.3-3.9c29.3-0.6,58.5,2.1,87.3,7.6c17.3,3.3,34.7,6.8,51.9,10.4
		c4.2,0.9,6.7-0.4,9.4-3.7c13.4-16.4,26.3-33.2,41-48.3c12.9-13.2,28-23.5,45.6-31.2c15.1-6.6,30.6-10.1,46.2-14.3
		c11.6-3.2,23.5-5.7,35.3-8.3c0.9-0.2,2.1,1.2,3.2,1.8c-4.1,3-8.9,5.4-12,9.2c-4.4,5.3-8,11.4-11,17.6c-8.7,17.8-20.2,33.5-33,48.6
		c-11.7,13.8-21.5,29.2-32.1,43.9c-0.5,0.7-0.6,1.9-0.9,3.2c1.3-0.3,1.9-0.3,2.1-0.6c1.2-1.6,2.2-3.3,3.4-4.9
		c12.2-16.3,24.6-32.4,36.7-48.8c7.4-10,15.2-19.7,21.5-30.4c7.8-13.1,13.6-27.5,25.2-38.1c10.4-3,20.7-6.5,31.3-9
		c13.4-3.2,27-5.7,40.5-8.3c22.4-4.4,45-8.3,67.3-13c10.1-2.1,19.8-5.8,29.8-8.6c13.2-3.8,26.4-8,39.8-10.9
		c11.7-2.5,23.8-3.5,35.8-4.8c1.4-0.1,3,2.1,4.4,3.1c-4.4,1-9.7,0.8-13.1,3.2c-21.7,14.8-43.3,29.8-64.2,45.8
		c-6.3,4.8-10.2,12.7-15,19.2c-1,1.3-1.1,3.2-1.7,4.9c0.6,0.4,1.2,0.7,1.9,1.1c1.2-1.6,2.5-3.1,3.6-4.8c3.1-4.5,5.4-9.8,9.3-13.4
		c21.9-20.6,45-39.7,72.1-53.5C1512.3,29.5,1514.7,29,1517.1,28.1z M1283.2,126.1c-18.9,12.3-47.3,56.5-45.7,73.3
		c1.9-3.4,3.3-5.2,4.1-7.3c9.2-24.4,21-47.2,41.2-64.6C1283.1,127.2,1283.1,126.6,1283.2,126.1c4.3-4,8.9-7.8,12.8-12.2
		c5-5.5,9.3-11.6,14-17.4c4.9-6,9.4-12.3,14.8-17.7c5-5,11-9.1,16.5-13.6C1313.5,77.6,1302.7,105.9,1283.2,126.1z M1290.3,201.9
		c2-2.5,4.6-4.7,5.9-7.5c12.5-27,11.9-58.4,28.5-84.1c-2.9,2.9-5.7,5.8-6.9,9.3C1308.5,147.1,1299.5,174.5,1290.3,201.9
		c-13,0-20.3,10.1-30,16.1c3-0.4,5.3-2,7.7-3.4C1275.5,210.3,1282.9,206.1,1290.3,201.9z M1334.1,187.4c3.3-2.4,7.4-4.1,9.6-7.2
		c10-13.7,12.1-30.3,15.9-46.2c5-20.8,8.4-42.5,25.6-58.2c-3.9,2.6-8.3,5.2-10.4,9c-5.2,9.5-10.3,19.3-13.5,29.6
		c-4.6,14.7-7.1,30-11,44.9c-2.8,10.7-6.7,21.1-16.1,28.2c-18.7,7.4-29.8,24.1-44.9,35.8c0.7,0.8,1.4,1.6,2,2.4
		C1305.5,213,1319.8,200.2,1334.1,187.4z M826.3,429.1c34.7,7,65.7,0.8,92-22.4c12.1-10.7,23.2-22.5,34.3-34.3
		c18.6-19.8,39.5-36.4,63.9-48.5c23.9-11.8,45.1-27.3,64.2-45.8c8.4-8.2,16.9-16.2,25.6-24c15.1-13.6,31-25.9,51.1-31.3
		c0.8-0.2,1.5-1,2.2-1.6c-2.7-0.8-5.3-0.8-7.4,0.2c-10.5,5.1-21.6,9.3-31,16.1c-12.7,9.1-24.3,19.8-35.6,30.7
		c-23.1,22.3-48.1,41.8-76.9,56.1c-23.3,11.6-42.8,28.1-60.7,46.7c-10.4,10.8-20.8,21.5-31.8,31.5c-16.9,15.4-36.8,24.6-59.7,26.4
		C846.8,429.7,836.8,429.1,826.3,429.1z M1910.5,151.6c-1.4-1.2-1.7-1.7-2.1-1.8c-1-0.2-2-0.3-2.9-0.2c-19.4,0.8-36.5,6.8-49.6,22.1
		c-11.4,13.2-22.9,26.3-35.2,38.7c-17.9,18-32.8,38-45,60.2c-6.7,12.2-13.3,24.8-22.1,35.5c-31.5,38.5-70.3,62.9-122.4,59.4
		c-0.9-0.1-1.8,0.2-4.8,0.5c27.5,5.2,51.1,0.1,73.7-11.5c30.6-15.9,54.8-38.3,72.2-68.3c11.1-19.1,22.8-38.1,36.5-55.4
		c16.1-20.2,34.7-38.4,52.1-57.6c10.9-12.1,24.3-18.6,40.5-20C1904,152.8,1906.7,152.2,1910.5,151.6z M1821.2,165.1
		c-0.5-0.6-1.1-1.3-1.6-1.9c-1.9,1.3-4,2.4-5.6,4c-9,9.3-17.6,19-26.8,28.1c-17.1,16.7-30.8,35.7-41.3,57.2
		c-5.7,11.9-12.3,23.3-18.5,35c-20.9,39.5-88.2,70.6-130,61.8c-3.7-0.8-7.5-1.1-11.3-1.6c-0.1,0.8-0.1,1.7-0.2,2.5
		c13.5,0.8,27.4,3.8,40.5,2c48.5-6.6,87.6-28.5,111.1-73.4c3.9-7.5,8-14.9,11.6-22.6c10.7-22.8,25.3-42.7,43.4-60.3
		c8.4-8.1,16.2-16.9,24.2-25.4C1818.5,168.8,1819.8,166.9,1821.2,165.1z M898,462.1c31.3,7.6,59.7,1.3,83.4-21.9
		c10.1-9.9,19.6-20.5,28.5-31.6c20.5-25.5,44.8-45.6,75.1-58.6c22-9.4,41-23.4,58.1-40c1.3-1.2,2.3-2.8,3.4-4.2
		c-0.4-0.6-0.9-1.2-1.3-1.8c-2,1.1-4.3,1.9-5.9,3.4c-18.7,18.3-40,32.8-64,43.2c-25.4,11.1-46.2,28-63.9,49.1
		c-10.7,12.8-21.7,25.4-33.2,37.4C965.1,450.9,949,460,930,461.9C919.2,463,908.2,462.1,898,462.1z M986.2,175.7
		c-0.9,0.1-3.2,0.1-5.1,0.8c-12.2,4.8-24.8,9-36.4,15c-37.6,19.3-68.7,46.4-93.2,81c-21,29.7-47.8,53.3-79.4,71.3
		c-15.3,8.7-30.9,17.2-46.3,25.7c-1.8,1-3.6,2.1-5.4,3.1c2.5,0.5,4.6,0,6.3-1c22.3-12.5,44.9-24.7,66.9-37.9
		c19.4-11.6,35.7-26.9,49.8-44.7c9.6-12.1,18.9-24.4,28.8-36.3C903,215.9,942.9,192.5,986.2,175.7z M1397.9,265.1
		c0-0.3,0.1-0.6,0.1-0.9c-13-0.7-26.1-2-39.1-1.9c-27.6,0.1-55.2,1-82.8,1.4c-19.2,0.3-37,5.1-52.8,16.1
		c-10.2,7.1-20,14.8-29.3,23.1c-25.1,22.1-50.1,44.1-80.5,59c-1,0.5-1.7,1.4-2.5,2.2c3.1,0.7,5.5,0,7.7-1.1
		c23.5-11.9,44.2-27.7,64.1-44.8c13.8-11.8,27.7-23.6,42.2-34.5c17.6-13.2,37.9-17.9,59.7-17.8c23.1,0.1,46.3-0.4,69.4-0.6
		C1368.8,265,1383.3,265.1,1397.9,265.1z M1642.9,277.2c0.5,0.8,0.9,1.6,1.4,2.4c2.1-0.9,4.8-1.3,6.2-2.8
		c7.2-7.8,14.9-15.4,20.9-24.1c6.9-10,11.9-21.3,18.5-31.5c7.7-11.9,15.1-24.2,24.6-34.5c19.6-21.2,40.6-41.1,60.8-61.6
		c13.3-13.4,29.2-21.4,47.8-24.1c5.5-0.8,11.1-1.1,16.7-1.7c-1.8-1.2-3.5-1.4-5.2-1.4c-2.5,0-5,0.1-7.5,0.3
		c-24,1.8-43.6,12.1-60,29.7c-14.8,15.8-29.9,31.3-45.7,46.1c-14,13.1-25.8,27.5-35.2,44.1C1674.2,239.6,1663.8,262.2,1642.9,277.2z
		 M1377.8,177.5c-11.9,3.5-20.7,11.3-28.4,20.5c-7,8.4-13.8,17-20.6,25.6c-5.4,6.9-11.4,10.9-20.9,8c-4.6-1.4-9.9-0.5-14.9-0.4
		c-26.6,0.3-53.2,1.3-79.8,0.9c-27.2-0.3-51,7.8-71.2,25.8c-14.1,12.6-27.4,26-41.1,39.1c-0.7,0.7-0.9,1.9-1.4,2.9
		c0.4,0.5,0.9,1,1.3,1.4c2.2-1.5,4.6-2.7,6.5-4.5c14.2-13.2,27.8-27.1,42.5-39.7c17.8-15.4,38.9-22.5,62.5-22.6
		c29.6-0.1,59.3-2.6,88.7-0.7c20.1,1.3,32-6.3,42.2-21.8C1352.3,198.3,1362.7,185.5,1377.8,177.5z M1083,318.3
		c-0.3-0.9-0.7-1.8-1-2.8c-2.1,0.8-4.3,1.4-6.3,2.4c-10,5.6-19.5,12.1-29.9,16.8c-27.4,12.4-49.7,30.8-69,53.6
		c-10.4,12.3-21.3,24.4-33,35.5c-16.6,15.8-36.9,23.3-59.9,22.3c-6.7-0.3-13.3-0.9-20-1.4c29.3,7.9,56.7,4.5,80.4-15.4
		c9.3-7.8,18-16.6,25.6-26.1c24.4-30.8,52.9-56,89.6-71.3C1067.7,328.6,1075.1,323,1083,318.3z M1887.5,251.1
		c-0.7-0.3-1.3-0.5-2-0.8c-1.7,1.8-3.4,3.5-4.9,5.3c-12.7,15-24.9,30.5-38.3,44.8c-10.8,11.6-22.1,23-34.8,32.4
		c-22,16.1-45.4,30.5-68,45.8c-17.1,11.6-35.8,17.2-56.5,15c-8.1-0.9-16.1-2.6-24.1-3.9c13.8,4.8,27.9,7.6,42.6,6.4
		c18.1-1.5,32.9-10.2,47.4-20.3c18.4-12.8,37.4-24.5,55.9-37.1c9.8-6.7,20.4-13,28.4-21.6c18.4-19.6,35.4-40.4,52.9-60.8
		C1887.1,255.1,1887.1,252.9,1887.5,251.1z M1351.7,242.7c2.8-1.8,5.4-2.9,7-4.7c6.6-7.7,14.1-15,19.2-23.7
		c13.1-22.2,31-37,56.6-42.7c19.5-4.4,33-16.9,43.4-34c8.5-14,18.2-27.4,28.9-39.8c15.1-17.4,26.8-38.2,47.4-50.6
		c-10.1,2.5-17.7,8.7-24,16.3c-21,25.5-44.5,49.1-60.2,78.7c-7,13.3-18.7,21.8-33,26.5c-5.4,1.8-10.9,3.6-16.4,5.1
		c-16.6,4.6-29.2,14.3-39.1,28.3C1372,215.5,1362.2,228.5,1351.7,242.7z M1028.8,177.5c-16.2,0.4-30,7.1-42.9,15.9
		c-15.2,10.4-30,21.4-45.6,31.2c-19.9,12.5-37,27.7-51.5,46.1c-6.5,8.2-13.1,16.3-19.4,24.6c-15.9,20.8-35.6,36.8-58.8,48.6
		c-5.5,2.8-10.9,5.7-16.4,8.5c1.5,0.9,2.7,0.9,3.7,0.4c28.6-13.2,54.7-29.5,74.2-55.1c7.1-9.3,13.9-18.9,22-27.3
		c12.1-12.5,24.3-25.1,37.9-35.7c18.7-14.5,38.8-27,58.2-40.5C1002.1,186.1,1014.8,180.1,1028.8,177.5z M925,351.4
		c0.8,0.9,1.6,1.8,2.3,2.8c1.9-1.1,3.9-2.2,5.7-3.4c19.5-13.7,39.1-27.4,58.5-41.2c21.1-14.9,42.5-29.5,63.1-45.1
		c15.9-12,30.5-25.6,46.1-38c18-14.3,38.7-21.1,61.9-19.9c4.4,0.2,8.9,0,14.6,0c-29.6-5.3-55.7-0.3-78.7,17.6
		c-6.5,5-13,10.1-19.2,15.5c-32.5,28.4-66.8,54.2-103.9,76.4c-15.7,9.4-29.9,21.4-44.8,32.2C928.8,349.5,926.8,350.3,925,351.4z
		 M703.7,364.8c6.5-3.7,12.4-6.6,17.9-10.2c43.5-29,83.8-61.8,117.5-102.1c27-32.3,56.5-61.1,98.5-73.3c-1.4-0.3-2.6-0.2-3.7,0.1
		c-33.6,9.2-60.3,29-82.7,55c-24.1,28-49.2,54.9-78.4,77.7C750.2,329.7,727.3,346.8,703.7,364.8z M1436.4,226.3
		c0.6,0.6,1.1,1.2,1.7,1.8c1.5-1.3,3.3-2.5,4.5-4.1c14.4-19.2,33-32.8,54.8-42.5c12.9-5.8,23.5-14.8,32.5-25.8
		c20.7-25.5,41.6-50.8,62.4-76.2c7.5-9.2,16.6-16.1,28.2-18.5c16-3.3,32.2-5.7,48.4-8.6c2.1-0.4,4.2-1.2,6.2-1.8
		c-2.6-0.3-4.9,1.1-7.1,1c-18-1.2-34.9,4.2-52,8.6c-10.5,2.7-19,8.6-25.8,16.9c-20.5,25-41.2,49.9-61.4,75.1
		c-9.5,11.9-20.5,21.6-34.3,28.2c-6.7,3.2-13.4,6.6-20,10.1C1458.3,198.8,1447.1,212.3,1436.4,226.3z M584.3,315.3
		c-37.1-7.5-77.3,0.3-115.3,20.7c-37.6,20.2-65.3,50.4-86.4,87c2.9-0.8,4.9-2.5,6.4-4.5c9.7-12.3,18.5-25.4,29-36.9
		c35.8-38.8,79.5-62.6,132.8-66.2C563.9,314.5,577,315.3,584.3,315.3z M1024.8,232.4c-0.5-0.7-1-1.4-1.5-2.1
		c-1.8,1.1-3.6,2.1-5.3,3.2c-7,4.8-13.7,9.9-21,14.3c-24.4,14.6-47,31.7-67.9,51c-20,18.5-40.9,35.7-65.2,48.2
		c-32.7,16.9-65.7,33.1-98.6,49.6c-0.6,0.3-1.1,0.9-1.7,1.4c5.6-0.9,10.8-2.7,15.6-5.1c24.5-12.2,48.9-24.5,73.2-37.1
		c24.4-12.6,47.5-27.3,67.9-45.7c26.9-24.2,55.2-46.4,86.4-64.9C1013.1,241.5,1018.8,236.7,1024.8,232.4z M1492.2,250.3
		c3.6-0.9,7.1-1.7,10.7-2.7c26.2-6.9,45.5-23.6,62.8-43.5c15.8-18.2,32.1-36.1,48.2-54c14.5-16.1,29.6-31.6,43.6-48
		c12.1-14.2,25.3-26.2,44.7-29c-16,0.1-29.1,7-42.4,21.8c-33.9,37.7-68,75.4-101.9,113.1C1539.9,228.1,1518.9,243.3,1492.2,250.3z
		 M285.4,381.6c0.6,0.6,1.2,1.2,1.8,1.8c1.8-1.9,3.9-3.5,5.4-5.6c14.2-20.8,29.9-40.4,48.8-57.3c26.5-23.7,57-39,92.7-42.5
		c9.2-0.9,18.5-1,27.8-1.5c-37.1-4.2-71.3,4.3-102.3,24.7c-30.5,20.1-53.2,47.7-73.3,77.7C285.8,379.8,285.7,380.8,285.4,381.6z
		 M1415.3,262.3c27.6,2,58.7,1,89.8-4.2c39.8-6.6,71.8-24.8,93.9-59.6c13.1-20.8,30.5-38,49.3-53.7c2.2-1.8,4.5-3.4,6.8-5.1
		c-0.6-0.7-1.1-1.4-1.7-2.1c-1,0.5-2.3,0.7-3,1.4c-15.1,15.1-30.5,30-45,45.7c-8.7,9.5-15.8,20.5-23.8,30.6
		c-11.4,14.4-25.6,25.3-43,31c-14.1,4.6-28.6,9.4-43.2,11C1467.7,260.3,1439.8,260.9,1415.3,262.3z M1470,289.2
		c10.1,1.5,19.2,3.1,28.3,4.2c31.6,3.8,60.1-6.6,89.1-17.6c31.2-11.9,52.9-32.7,68.1-61.5c0.7-1.2,0.8-2.8,1.1-4.2
		c-0.6-0.3-1.2-0.6-1.8-0.9c-1.7,2.2-3.5,4.2-5,6.5c-9.3,14.5-17.5,30.2-32.4,39.6c-29.5,18.7-61.3,32.5-96.5,35.5
		C1504.4,292,1487.7,289.8,1470,289.2z M1061.8,181.3c-3.2,0.4-6.4,0.6-9.5,1.2c-13.9,2.8-25,10.7-35.8,19.3
		c-13,10.4-25.2,22.3-39.5,30.6c-30.4,17.7-56,40.4-78.5,67.1c-4.8,5.8-10.2,11.1-15.3,16.6c0.4,0.5,0.9,0.9,1.3,1.4
		c1.9-1.6,4-3.1,5.7-4.9c8.2-8.7,16-17.9,24.7-26c13.4-12.6,26.3-26.2,41.5-36.3c23.7-15.7,47-31.7,68.3-50.6
		C1035.2,190.3,1047.7,184.2,1061.8,181.3z M992.4,281.7c-0.5-0.7-1.1-1.4-1.6-2.1c-2.4,1.3-5,2.4-7.3,4
		c-22.8,16.4-45.5,33.1-68.5,49.4c-42.5,30.2-84.7,61.3-136.7,74.3c7.4-0.9,14.6-2.1,21.6-4.3c27.8-8.9,53.1-22.7,76.8-39.5
		c37.4-26.4,74.7-53.1,112-79.6C989.8,283,991.1,282.4,992.4,281.7z M1822.8,268.6c-0.9-0.2-1.8-0.5-2.7-0.7
		c-2.3,3.2-4.8,6.3-6.8,9.6c-21.7,36.5-53.2,62.7-88.8,84.6c-16.4,10.1-33.8,17.1-53.3,17.3c-8.3,0.1-16.7-0.9-26.1-1.5
		c24.7,6.3,47.8,4.9,69.2-6.9c43.3-23.8,81.4-53.8,107.3-97C1822.5,272.6,1822.4,270.5,1822.8,268.6z M883.9,186
		c-0.9,0.3-1.8,0.5-2.7,0.9c-18.3,6.9-31.8,19.8-44.4,34.2c-10.6,12.2-20.4,25.7-33.1,35.4c-38.8,29.5-77.2,59.5-113.4,92.1
		c-0.9,0.8-2.1,1.3-3,2.2c-0.8,0.8-1.4,1.9-2.1,2.8c0.5,0.5,1.1,1.1,1.6,1.6c10.3-8.5,20.6-17,30.8-25.5
		c19.9-16.4,39.3-33.6,60-49.1c19.4-14.6,37.7-30.1,53.3-48.7C846.2,213.8,861.8,195.9,883.9,186z M1579.3,357.2
		c-8.7-1.9-19.7-5-31-6.7c-31.2-4.9-62.6-8.8-93.8-13.9c-19.9-3.2-39.6-7.9-60-5.7c-16.5,1.8-31.5,7.7-45.6,16.6
		c3,0.7,5.9,0.4,8.3-0.8c24.2-12.1,49.6-16,76.2-11.3c14.5,2.5,28.9,5.4,43.4,7.5C1511.7,347.9,1546.4,352.6,1579.3,357.2z
		 M1769.1,81.2c-3.4,0.3-6.8,0.3-10.1,0.8c-19.8,3.1-35.3,13.6-49,27.8c-15.5,16.1-31,32.4-47.7,47.1
		c-16.7,14.6-30.4,31.4-42.4,49.8c-0.6,1-0.6,2.4-0.9,3.6c3.3-1.2,4.9-3.4,6.7-5.5c12.1-14.4,23.7-29.4,36.6-43.1
		c15.2-16,32.2-30.3,47.3-46.5C1726,97.6,1744.4,84.3,1769.1,81.2z M1161.7,286.4c0.5,0.9,1,1.7,1.4,2.6c2.4-1.5,5.1-2.7,7.2-4.7
		c22.5-21.4,48.1-34.4,80.1-34.3c36.9,0.2,73.9-1.4,110.8-2.2c-15.3-1.8-30.6-2-45.9-1.7c-20.4,0.5-40.7,1.5-61.1,2.2
		c-7.5,0.3-15-0.2-22.4,0.4C1202.9,251,1181.4,267.1,1161.7,286.4z M460.6,385.3c2.2-1.2,4.7-2.2,6.7-3.7c9-6.7,17.5-14.1,26.9-20.1
		c36.4-23.4,75.7-36.3,119.6-30.6c3.6,0.5,7.3,0.9,10.9,1.4C573.8,317.3,481.1,346.7,460.6,385.3z M1807.8,88.6c0-0.2,0-0.5-0.1-0.7
		c-0.7-0.1-1.4-0.2-2.1-0.2c-25.8,0.2-47.1,10.2-65.1,28.5c-18.9,19.1-38.5,37.4-57.7,56.2c-5.1,5-9.9,10.5-14.7,15.9
		c-1,1.1-1.3,2.7-1.9,4.1c0.5,0.4,1,0.8,1.6,1.2c1.4-1.3,2.9-2.6,4.2-4c3.7-4,7-8.4,10.9-12.2c21.5-21.1,43.2-42,64.7-63
		c12.8-12.5,27.9-20.7,45.6-23.9C1798,89.8,1802.9,89.3,1807.8,88.6z M1608.5,227.6c-0.5-0.7-1.1-1.5-1.6-2.2
		c-20.2,24.7-49,32.6-77.3,41.4c-29,8.9-58.7,8.8-88.6,6.5c2.4,0.8,4.8,1.5,7.2,1.9c1.7,0.3,3.5,0.3,5.2,0.5
		c44.6,5.4,86.1-5.4,125.8-24.4c9.6-4.6,17.6-12.7,26.3-19.3C1606.8,230.9,1607.5,229.1,1608.5,227.6z M635.5,320.9
		c0.5,0.5,1,0.9,1.5,1.4c2.1-2,4.2-3.9,6.3-5.9c17.8-17.3,29.3-38.8,40.7-60.4c9.3-17.6,18.6-35.2,35.2-47.6
		c-4.4,2-9.2,4.1-11.9,7.7c-8.9,11.6-18.1,23.1-25.3,35.7C668.2,276.1,656.4,301.5,635.5,320.9z M1437.7,355.9
		c61.8,8.2,124.5,9.8,185.8,23.5C1562.7,363.1,1499.9,362,1437.7,355.9z M1542.8,194.1c0.3,0.4,0.7,0.7,1,1.1
		c1.6-1.2,3.5-2.2,4.8-3.7c26.8-29,53.6-58.1,80.3-87.2c6.2-6.8,11.2-14.8,18.1-20.8c6.5-5.7,14.7-9.6,21.2-13.7
		c-13.4,1.9-24.1,10.6-32.8,21.8c-27.8,35.8-58.7,68.8-91.1,100.5C1543.6,192.5,1543.3,193.4,1542.8,194.1z M1631.4,286.7
		c-8.6,0.2-15.7,5.4-23.4,8.4c-8.4,3.2-16.5,7.1-25,9.7c-8.5,2.6-17.3,4.8-26.1,5.7c-8.8,0.9-17.9,0.4-26.7-0.4
		c-8.8-0.8-17.5-2.7-26.7-4.1C1549.9,323.4,1591.6,310.6,1631.4,286.7z M1559.4,149.1c0.5,0.5,1,1,1.5,1.5c1.5-1.3,3.1-2.6,4.3-4.1
		c16.7-19.7,33.6-39.3,49.9-59.4c10.1-12.4,22.3-20.3,38.2-22.5c12.6-1.7,25.2-3.5,37.8-5.2c-11.9,0.5-23.7,2.1-35.5,3.2
		c-21.4,2.1-36.5,13.3-49,30.4c-10.6,14.6-23.1,28-34.8,41.8C1567.7,139.6,1563.5,144.3,1559.4,149.1z M907.3,372.9
		c-0.5-0.8-1-1.6-1.5-2.3c-10.5,7.6-20.4,16.1-31.5,22.6c-11.1,6.5-22.9,12.2-35.1,16.1c-12.1,3.9-25,5.3-39.1,8.1
		C843.7,418.3,877.7,400.8,907.3,372.9z M681.9,297c0.5,0.5,1.1,0.9,1.6,1.4c2.2-1.9,4.4-3.8,6.5-5.8c15.8-14.7,25.6-33.5,35.7-52.1
		c8.7-16.3,18-32.2,35.8-40.8c-4.5,1.5-8.8,3.3-12.6,5.8c-11.4,7.5-18.5,18.7-24.9,30.3C711.9,257.6,701.2,280.2,681.9,297z
		 M1425.9,65.5c-13.7,4.8-24.5,13.2-30.2,26.5c-5,11.6-8.7,23.7-12.4,35.8c-4.9,15.8-8.3,32.1-18.8,45.7
		c5.6-6.7,11.1-13.7,14.3-21.6c4.9-12.2,8.3-25,12-37.6C1396.8,94,1405.5,75.7,1425.9,65.5z M1124.6,194.2
		c-4.6,0.5-9.3,0.8-13.8,1.7c-16.4,3.3-29.2,13.1-41.8,23.3c-18.4,14.8-37.1,29.2-55.6,43.8c-1.2,0.9-2.2,1.9-3.3,2.9
		c0.4,0.5,0.9,1,1.3,1.5c2.2-1.3,4.6-2.4,6.6-4c19.3-15.2,38.7-30.4,57.8-45.8C1090.1,205.9,1105.6,197,1124.6,194.2z M1445.6,245.1
		c0.3,0.5,0.7,1.1,1,1.6c6.8-4.5,14-8.6,20.5-13.7c21.9-17.2,43.5-34.7,65.2-52.2c4.3-3.4,8.3-7.1,12.4-10.8
		c1.3-1.2,2.2-2.7,3.3-4.1c-0.4-0.4-0.8-0.8-1.2-1.2C1513,191.5,1479.3,218.3,1445.6,245.1z M588.6,311.7c0.8,0.5,1.6,1,2.3,1.6
		c1.2-1.9,2.5-3.8,3.5-5.9c5.9-13.2,11.7-26.4,17.6-39.5c7.7-17.2,17.3-33,32.4-44.9c0.1-0.1-0.1-0.7-0.4-1.9
		C611.6,243.4,605.1,280.6,588.6,311.7z M1163,198.1c0.5,0.4,1.1,0.8,1.6,1.1c23.2-36.7,46.4-73.4,70.8-111.9c-4.2,3.9-7.5,6-9.4,9
		C1204.8,130.2,1184,164.2,1163,198.1z M1201.7,206.1c0.6,0.5,1.2,0.9,1.8,1.4c1.7-2.7,3.8-5.2,5.1-8c11.2-24.5,26.5-46,46.7-64.1
		c7.1-6.4,12.2-15,18.1-22.7c1.1-1.4,1.6-3.3,2.3-5c-2.4,0.5-3.6,1.8-4.7,3.1c-9.1,11.1-17.2,23.3-27.6,33.1
		C1224.8,161.8,1213,183.6,1201.7,206.1z M794.5,195.7c-13.7,3.9-23.4,12.7-30.7,24.3c-12.2,19.6-24.2,39.4-36.3,59.1
		c2.1-2.9,5.7-5.3,7.9-8.6c7.8-11.2,15.6-22.4,22.5-34.2C767.4,220.2,776.2,203.8,794.5,195.7z M1408.9,167.3
		c15.1-3.7,25.4-13.2,32.7-26.3c6.5-11.7,12.5-23.7,18.8-35.6c0.6-1.2,0.9-2.5,1.3-3.7c-0.5-0.4-1-0.8-1.5-1.1
		c-1.6,1.7-3.6,3.2-4.7,5.2c-4.5,8.3-8.8,16.7-12.8,25.3C1435.2,146.7,1425.8,160.4,1408.9,167.3z M1262.6,206.2
		c16.6-25.6,17.6-58.4,38.3-82.2C1277.4,146.3,1275.2,178.6,1262.6,206.2z M1320,189.7c1.5-2.7,3.2-4.7,3.9-7.1
		c2.6-8.3,5.4-16.5,7.3-25c5.2-23.4,8.1-47.5,24.5-69.1c-9.5,7.9-15.3,18-19.9,35.5C1330.2,145.5,1325.3,167.2,1320,189.7z
		 M749.6,389.4c0.4,0.7,0.8,1.5,1.2,2.2c37.2-21.1,77.6-35.9,113.8-58.9C826.3,351.6,787.9,370.5,749.6,389.4z M567.9,305.8
		c14.5-27.2,21.4-59,47.8-79.1C586.7,245.2,579.3,276.7,567.9,305.8z M758.7,276.2c-39.1,11.4-63.9,41.6-90.8,69
		C697,320.9,720.7,289.4,758.7,276.2z M611.9,321.5c8.2-5.2,32.4-48.9,31.9-61.4C633.2,280.5,622.6,300.9,611.9,321.5z M1732.1,77.6
		c-23.4-0.2-59.3,26.3-67.1,49.8C1684.9,107.4,1700,80.8,1732.1,77.6z M1384.9,297.9c33.8,4.6,67.7,9.2,100.5,13.6
		C1453.4,301,1418.8,301.2,1384.9,297.9z M764.8,260.2c20.7-18.2,27.9-47.3,51.2-63.5C790,210.6,782.9,239.9,764.8,260.2z
		 M423.5,266.1c-29.8-3.6-57.7,1.5-83.5,16.9C366.6,271.2,394.3,264.2,423.5,266.1z M1790.3,18.6c-16.3,4.8-34.9,39-32.1,57.9
		C1765.2,55.7,1769.4,33.2,1790.3,18.6z M1385,168.6c20.7-10.1,27-29.8,32.4-50.1C1408,136,1403.4,156.8,1385,168.6z M1164.5,126.4
		c-15.2,17.2-23,41.3-31.5,65.1C1143.9,168.9,1154.9,146.3,1164.5,126.4z M1180.3,217.4c0,0.7,0.1,1.5,0.1,2.2
		c27.7,0.9,55.4,1.8,83,2.7c0-0.4,0-0.8,0-1.2C1235.8,219.8,1208,218.6,1180.3,217.4z M794.7,248.2c18.1-16.7,28.1-40.7,49.5-54.3
		C820.6,205.5,810.7,229.6,794.7,248.2z M1531.1,207.7c-1.6-0.6-2.3-1-2.5-0.9c-16.4,12.6-32.7,25.3-48,37.2
		C1499.4,236.8,1514.7,222.1,1531.1,207.7z M1180,137.3c-0.9-0.4-1.7-0.9-2.6-1.3c-9.8,19.5-19.6,39-29.4,58.6c0.7,0.3,1.3,0.7,2,1
		C1160.1,176.2,1170,156.8,1180,137.3z M1097.7,187c-21.8,0.1-48.1,13.3-54.9,28C1058.9,201.1,1075.6,188.4,1097.7,187z
		 M549.3,298.2c9.5-19.1,18.9-38.1,27.9-56.2C562.6,257.2,555.9,277.7,549.3,298.2z M553.4,248.3c-10,9.3-23.6,35.5-22.3,43.6
		C538.5,277.4,546.2,262.4,553.4,248.3z M1754,29c-11,10.7-13.9,26.4-16.2,42.4C1743.4,56.7,1749,42.2,1754,29z M657,238.6
		c8.2-9.4,16.4-18.9,24.6-28.3c0.8,0.7,1.6,1.5,2.3,2.2C672.4,218.4,663.5,227.2,657,238.6z M1383.1,252.5c0,0.1,0,0.2,0,0.4
		c18.8,0,37.5,0,56.3,0c0-0.1,0-0.2,0-0.4C1420.6,252.5,1401.9,252.5,1383.1,252.5z M758.8,410.1c-0.3,0.6-0.6,1.2-0.9,1.8
		c12.1,5.6,24.2,11.2,36.3,16.8c0.2-0.4,0.4-0.7,0.5-1.1C782.8,421.8,770.8,415.9,758.8,410.1z M1332.9,91.9
		c0.4,0.4,0.8,0.9,1.2,1.3c8.9-8.2,17.9-16.3,26.8-24.5c-0.5-0.5-1-1-1.4-1.6C1350.6,75.4,1341.8,83.7,1332.9,91.9z M1302.8,72.7
		c-0.5-0.5-0.9-1-1.4-1.4c-6.8,6.7-13.6,13.5-20.4,20.2c0.7,0.7,1.3,1.4,2,2.1C1289.6,86.6,1296.2,79.6,1302.8,72.7z M735.6,381.2
		c0.3,0.6,0.6,1.2,0.9,1.8c11-5.5,22.1-11,33.1-16.6c-0.3-0.6-0.6-1.1-0.9-1.7C757.7,370.2,746.7,375.7,735.6,381.2z M1131.8,157.4
		c-0.5-0.3-1-0.5-1.4-0.8c-4.9,10.4-9.8,20.7-14.6,31.1c0.6,0.3,1.2,0.6,1.8,0.9C1122.3,178.2,1127.1,167.8,1131.8,157.4z
		 M1730.6,38.7c-0.6-0.3-1.3-0.5-1.9-0.8c-3.4,9.2-6.7,18.4-10.1,27.5c0.7,0.3,1.4,0.5,2.1,0.8C1724.1,57,1727.3,47.8,1730.6,38.7z
		 M516.3,299.9c0,0.7,0,1.5-0.1,2.2c8.6,0,17.1,0,25.7,0c0-0.3,0-0.6,0-0.8C533.4,300.8,524.9,300.3,516.3,299.9z M510.7,285.2
		c0.8,0.4,1.5,0.7,2.3,1.1c3.2-6.3,6.4-12.7,9.6-19c-0.6-0.3-1.1-0.6-1.7-0.9C517.5,272.7,514.1,278.9,510.7,285.2z M1185.1,121.7
		c0.6,0.5,1.3,1.1,1.9,1.6c4.6-6.3,9.2-12.5,13.9-18.8c-0.5-0.4-0.9-0.7-1.4-1.1C1194.7,109.6,1189.9,115.7,1185.1,121.7z"/>
	<path class="st0" d="M6.7,298C23,280.1,42,265.7,66.1,261.6c18-3.1,36.6-2.9,54.9-3.5c9.2-0.3,18.5,0.9,27.8,1.9
		c27.2,3.2,54.3,6.9,81.5,9.9c6.5,0.7,13.3-0.4,20.2-0.7c-0.4,0.6-1.1,1.4-1.7,2.2c-0.9,0.4-1.8,0.8-2.6,1.1
		c-11.2,6.2-23.1,11.4-33.4,18.9c-18.7,13.7-32,32.6-45.1,51.4c-26.1,37.3-52.3,74.5-78.4,111.8c-4.8,6.9-9.1,14.1-13.7,21.2
		c-9.5,0-18.9,0-28.4,0c3.9-5.2,7.4-10.6,11.6-15.4c30.8-34.7,57.7-72.3,81.9-111.8c14-22.8,30-44,52.2-59.7
		c0.2-0.1,0.1-0.7,0.2-3.7c-9.8,8.8-19.4,15.3-26.3,24c-13.8,17.3-26.9,35.2-38.7,53.8c-19.4,30.8-40.4,60.3-64.7,87.5
		c-7.3,8.2-13.9,16.9-20.8,25.4c-7,0-14,0-20.9,0c2.4-3.1,4.4-6.4,7.1-9.2c30.2-30.4,55.6-64.3,75.7-102.3c6.5-12.3,14.3-24,22-35.6
		c15.4-23.2,35.4-41,62.1-50.3c0.4-0.1,0.7-0.5,1.1-0.8c-18.4,4.3-34.8,12.6-46.7,26.6c-13.8,16.2-25.9,34-37.6,51.8
		c-10.9,16.6-18.8,35.4-30.7,51.2c-18,23.8-38.3,45.8-57.6,68.5c-3.5,0-7,0-10.5,0c0-11.5,0-22.9,0-34.4c1.6-2.2,3.5-4.2,4.6-6.6
		c9-19.7,17.6-39.5,26.9-59c9.4-19.7,18.3-39.9,29.6-58.4c16.1-26.2,40.3-42.2,70.6-48.4c2.2-0.5,4.4-1.1,6.6-1.7
		c-2.9-0.7-5.6-0.5-8.2,0c-34.1,6.4-60.3,24.9-77.2,54.8c-11.8,20.9-20.6,43.6-30.7,65.4c-7.4,16-14.8,32-22.3,47.9
		c0-23.4,0-46.8,0-70.3c2.7-6.4,5.5-12.7,8.2-19.1c19-44.9,48.1-78.1,99.6-85.1c-27.9,1.8-51.8,12.4-71.4,32.5
		c-13.4,13.7-22.8,30-30.6,47.3c-1.7,3.7-3.8,7.3-5.7,11C6.7,333.9,6.7,316,6.7,298z M170.2,272.5c-1.9,0.3-3.8,0.5-5.7,0.9
		c-29.9,6.8-53.2,23.6-69.4,49.2c-11,17.4-20.8,35.7-29.7,54.3c-14.5,30.5-30.7,59.8-53.7,84.8c-0.8,0.9-1.3,2.2-1.9,3.3
		c2.8-1.4,4.6-3.3,6.5-5.3c20.3-22.3,36-47.5,49.1-74.6c8.5-17.7,17.5-35.2,27.3-52.2C110.3,302.6,135.1,281.1,170.2,272.5z"/>
	<path class="st0" d="M299.2,263.1c18.7-6.4,38.1-5.7,58.3-6.5c-1,1.2-1.4,2-1.8,2.1c-41,4.1-73.2,24.6-99.6,54.7
		c-13.1,14.9-25.8,30.5-36.4,47.3c-23.9,37.9-46.3,76.7-69.4,115.1c-11,0-21.9,0-32.9,0c0.5-1.4,0.9-2.9,1.6-4.1
		c30.4-47,60.1-94.5,91.8-140.5c11.7-16.9,27.9-30.9,43.1-45.1c7.3-6.8,16.8-11.2,25.4-16.7C285.9,267.4,292.5,265.3,299.2,263.1z"
		/>
	<path class="st0" d="M299.2,263.1c-6.6,2.1-13.3,4.3-19.9,6.4c-10.5,5.9-21.8,10.7-31.4,17.8c-21.6,15.7-38,36.7-52.6,58.7
		c-28.4,43-56,86.5-83.9,129.8c-10.5,0-20.9,0-31.4,0c1.8-3,3.4-6,5.4-8.9c30.2-43.5,60.3-87,90.5-130.4
		c18.5-26.7,40.4-49.7,70.2-64c0.9-0.4,1.8-0.8,2.6-1.1c15-3.4,29.9-6.9,44.9-10C295.3,261.1,297.3,262.5,299.2,263.1z"/>
	<path class="st0" d="M825.9,457.3c10.9,6.2,21.9,12.4,32.8,18.6c-7,0-14,0-20.9,0c-8.4-3.3-16.7-7.4-25.4-9.6
		c-30.5-7.5-60-4.7-88.2,9.6c-29.9,0-59.8,0-89.7,0c23-11.1,45.7-22.7,69-33c14.9-6.6,31.1-8.1,47.4-7.7
		C777.9,435.9,802.4,445,825.9,457.3z"/>
	<path class="st0" d="M1887.1,475.9c-17.4,0-34.9,0-52.3,0c28.4-24.4,56.8-48.8,85.2-73.2c0,14,0,27.9,0,41.9
		C1909,455,1898.1,465.4,1887.1,475.9z"/>
	<path class="st0" d="M831.8,475.9c-30.9,0-61.8,0-92.7,0c20.9-9.6,43-11.3,65.3-7.9C813.8,469.4,822.7,473.2,831.8,475.9z"/>
	<path class="st0" d="M6.7,271.1c3.3-0.8,6.7-1.5,10-2.3c15.1-3.7,30.2-7.4,45.3-11.1c0.2,0.8,0.5,1.6,0.7,2.3
		c-0.6,0.3-1.2,0.8-1.9,1c-20.2,5.2-37.6,15.4-52.2,30.3c-0.5,0.5-1.3,0.5-2,0.8C6.7,285.1,6.7,278.1,6.7,271.1z"/>
	<path class="st0" d="M1920,452c0,8,0,15.9,0,23.9c-8.5,0-16.9,0-25.4,0C1903.1,467.9,1911.5,459.9,1920,452z"/>
</g>
</svg>
