<svg id="b9d6373c-075c-4c16-8032-1a02c233f486" data-name="Layer 1" xmlns="http://www.w3.org/2000/svg" viewBox="0 0 512 512"><defs><style>.b09db14f-4822-44e9-9ed0-a5f05e0f16c7{fill:#fff;}</style></defs><title>Artboard 6</title><path d="M263.61,454.08c59.05-5.65,116.37-78.53,109.28-138.8-1.51,1.36-2.68,2.34-3.79,3.39a486.81,486.81,0,0,1-98.31,71.63c-7.35,4.1-9.09,3.81-15.18-2.27-5.9-5.89-11.91-11.68-17.63-17.74-2.26-2.39-4.09-2.48-6.86-1-6.91,3.66-14,7.08-21,10.5-11.09,5.39-21,3.82-29.72-4.8q-21.82-21.68-43.5-43.49c-8.44-8.49-10.07-18.48-4.84-29.28,3.56-7.34,7.14-14.67,10.93-21.89,1.31-2.51,1.05-4.08-1-6-5.1-4.79-9.78-10-15-14.68a10,10,0,0,0-6.88-2.46c-23,2.55-46,5.36-69,8.23-9.08,1.13-13.1-2.56-11.25-11.6C52.09,194.4,85.11,152.05,142.49,130.33c20.92-7.91,42.88-9.25,65-6.71a9.53,9.53,0,0,0,8.45-2.69c40.3-37.26,86.47-64.2,139.63-78.64A296.92,296.92,0,0,1,469.54,34c5.56.66,7.82,3.17,8.62,9.17,6.19,46.73-.23,92-16,136.13S423.05,263,390.63,297.12a8.59,8.59,0,0,0-2.17,6c11.43,98.3-65.85,159.08-131.92,169.36-6.68,1-11-3.14-10.18-9.9q2.28-18.84,4.68-37.68c.72-5.67,3.82-8.45,8.8-8s7.73,4.13,7.07,10C265.92,435.87,264.76,444.75,263.61,454.08ZM264.66,375a15.59,15.59,0,0,0,1.75-.54C321,343.14,368.83,304.12,405.88,252.83c43-59.47,63-125.66,57.25-199.2-.23-2.9-.8-4.44-4.19-4.73a281,281,0,0,0-81.08,4.56c-58.65,12.12-109.07,40-152.57,80.68-5.3,5-10.36,6.7-17.43,5.68a126.29,126.29,0,0,0-44.74,1.65C116.31,151.56,84.78,180,65.91,223.23c-3.42,7.83-5.86,16.08-9,24.93,3.14-.16,4.94-.14,6.71-.35,18.19-2.22,36.39-4.38,54.54-6.85a9.08,9.08,0,0,0,5.63-3.7c6.89-10.61,13-21.72,20.23-32.11,9-13,18.63-25.58,28.29-38.11,4.38-5.67,12.5-4.53,14,2,.63,2.66-.87,6.44-2.56,8.91-13.57,19.76-27.45,39.3-41.14,59-2.15,3.09-3.8,6.52-5.62,9.69ZM156.55,288.89c-3.74,7.51-7.06,14.21-10.4,20.9-1.87,3.76-1.21,7.13,1.69,10q22.22,22.26,44.5,44.47a7.76,7.76,0,0,0,9.61,1.63l21.72-10.72Z"/><path d="M109.73,361.89c14.16,1.52,27.21,9.72,35.46,25.2,7.74,14.5,6.35,28.61-2.48,42-10,15.22-24.57,25.14-40.41,33.31-17.29,8.92-35.52,15-55,17.12a56.78,56.78,0,0,1-6,.38c-6.32,0-9.53-3.14-9.32-9.58.45-13.43,3.58-26.36,8.12-38.93,7.59-21,17.81-40.53,34.56-55.93C84.73,366.31,95.62,361.74,109.73,361.89ZM48.84,463.17c4.48-.84,8.22-1.42,11.89-2.26,24.4-5.52,45.93-16.64,63.87-34.09,12.41-12.06,12.49-29,.89-40.47s-28.37-11.31-40.12.82C65.08,408.13,53.31,433.39,48.84,463.17Z"/><path class="b09db14f-4822-44e9-9ed0-a5f05e0f16c7" d="M48.84,463.17c4.47-29.78,16.24-55,36.53-76C97.12,375,114,375,125.49,386.35s11.52,28.41-.89,40.47c-17.94,17.45-39.47,28.57-63.87,34.09C57.06,461.75,53.32,462.33,48.84,463.17Z"/><path d="M328.6,119.49c35.61.24,64.16,28.75,63.85,63.77-.31,36.65-28.8,64.94-65.16,64.69-35.4-.23-63.54-29.73-63.2-66.24C264.41,147.52,293.72,119.25,328.6,119.49Zm.07,112.63c25.57.13,48.21-22.54,48.22-48.27s-22.84-48.61-48.62-48.73c-25.45-.11-48.16,22.25-48.37,47.63C279.69,209.23,302.18,232,328.67,232.12Z"/></svg>