<svg id="af4624a1-8fc3-49b3-805a-c01595f68b56" data-name="Layer 1" xmlns="http://www.w3.org/2000/svg" viewBox="0 0 512 512"><defs><style>.bcedce14-430d-4860-93fa-dc788c793746{fill:#fff;}</style></defs><title>design</title><path d="M512,151c-9.38,12-18.86,24-28.12,36.09Q374,331,264.16,475c-5.19,6.81-11.12,6.8-16.32,0Q126.76,316.34,5.69,157.67C3.91,155.34,1.9,153.2,0,151v-7c.7-.92,1.37-1.87,2.11-2.76,28.05-33.65,56-67.36,84.32-100.82a13.77,13.77,0,0,1,9.38-4.24Q256,35.82,416.2,35.91a11.73,11.73,0,0,1,9.86,4.72c6.07,7.52,12.29,14.92,18.47,22.34q33.72,40.52,67.47,81ZM255.38,441l1.27,0q44.93-142.26,89.92-284.78H165.46Q210.57,299,255.38,441Zm-24.06-16.3.65-.34c-.36-1.42-.65-2.85-1.09-4.24q-41-129.94-81.93-259.9c-1.17-3.71-3-4.3-6.38-4.29q-55.5.13-111,.05H26.28ZM485.73,155.93h-6c-36.67,0-73.33.08-110-.1-4.06,0-5.63,1.17-6.84,5q-40.62,129.27-81.53,258.46c-.51,1.62-.92,3.28-1.37,4.92l.76.33ZM256.29,58.05l-79.8,79.71H336ZM109,53.53l45.7,78.37L233,53.53Zm294,.21H279Q317.91,92.62,357.28,132Zm-375.52,84H138.3L92.63,59.47Zm346.31,0H484.59L419.36,59.47Z"/><path class="bcedce14-430d-4860-93fa-dc788c793746" d="M512,142q-33.74-40.5-67.47-81c-6.18-7.42-12.4-14.82-18.47-22.34a11.73,11.73,0,0,0-9.86-4.72Q256,34,95.81,34.15a13.77,13.77,0,0,0-9.38,4.24C58.15,71.85,30.16,105.56,2.11,139.21,1.37,140.1.7,141.05,0,142V0H512Z"/></svg>