<?xml version="1.0" encoding="utf-8"?>
<!-- Generator: Adobe Illustrator 24.0.0, SVG Export Plug-In . SVG Version: 6.00 Build 0)  -->
<svg version="1.1" id="Layer_1" xmlns="http://www.w3.org/2000/svg" xmlns:xlink="http://www.w3.org/1999/xlink" x="0px" y="0px"
	 viewBox="0 0 100 100" style="enable-background:new 0 0 100 100;" xml:space="preserve">
<path d="M14.5,9.9h18c-6.7,4-11.7,10.3-14.3,17.7h5.3c2.8-7,8.5-12.7,15.5-15.5V4.9H14.5c-1-2.8-3.8-5-7-5C3.3-0.1,0,3.3,0,7.4
	s3.3,7.5,7.5,7.5C10.7,14.9,13.3,12.8,14.5,9.9z M7.5,9.9C6.2,9.9,5,8.8,5,7.4s1.2-2.5,2.5-2.5S10,6.1,10,7.4S8.8,9.9,7.5,9.9z
	 M92.5,0.1c-3.2,0-6,2-7,5H61v7.2c7,2.8,12.7,8.5,15.5,15.5h5.3c-2.5-7.5-7.7-13.7-14.3-17.7h18c1,2.8,3.8,5,7,5
	c4.2,0,7.5-3.3,7.5-7.5S96.7,0.1,92.5,0.1z M92.5,9.9c-1.3,0-2.5-1.2-2.5-2.5s1.2-2.5,2.5-2.5S95,6.1,95,7.4S93.8,9.9,92.5,9.9z
	 M72,62.6c-15-5.8-19.5-35.5-19.5-35.8l0,0c0-0.3-0.2-0.5-0.3-0.8c0,0,0,0,0-0.2c-0.2-0.2-0.3-0.5-0.5-0.7c0,0,0,0-0.2,0
	c-0.2-0.2-0.5-0.3-0.7-0.3l0,0c-0.3,0-0.5-0.2-0.8-0.2s-0.5,0-0.8,0.2l0,0c-0.2,0.2-0.5,0.2-0.7,0.3c0,0,0,0-0.2,0
	c-0.2,0.2-0.3,0.3-0.5,0.7c0,0,0,0,0,0.2c-0.2,0.2-0.2,0.5-0.3,0.7l0,0c0,0.3-4.5,29.8-19.5,35.8c-0.7,0.3-1.3,0.8-1.5,1.7
	c-0.2,0.8-0.2,1.5,0.3,2.2c0.2,0.2,8.5,12.5,13,28.5h-4c-1.3,0-2.5,1.2-2.5,2.5c0,1.3,1.2,2.5,2.5,2.5H57l0,0h7.3
	c1.3,0,2.5-1.2,2.5-2.5c0-1.3-1.2-2.5-2.5-2.5h-4c4.5-15.8,12.8-28.3,13-28.5c0.5-0.7,0.5-1.5,0.3-2.2C73.3,63.4,72.7,62.8,72,62.6z
	 M50,68.3c1.8,0,3.2,1.5,3.2,3.2c0,1.7-1.5,3.2-3.2,3.2s-3.2-1.5-3.2-3.2C46.8,69.8,48.2,68.3,50,68.3z M55,94.8H45
	c-3.5-13.2-9.5-24.2-12.5-28.8c7.2-4.2,11.8-12.3,15-20v20.8c-3.3,1-5.7,4.2-5.7,7.8c0,4.5,3.7,8.2,8.2,8.2s8.2-3.7,8.2-8.2
	c0-3.7-2.5-6.7-5.7-7.8v-21c3,7.8,7.8,16,15,20C64.7,70.6,58.5,81.6,55,94.8z M44.8,15.1h10.3c1.3,0,2.5-1.2,2.5-2.5V2.3
	c0-1.3-1.2-2.5-2.5-2.5H44.8c-1.3,0-2.5,1.2-2.5,2.5v10.3C42.3,14.1,43.5,15.1,44.8,15.1z M47.3,4.8h5.3v5.3h-5.3V4.8z M26.5,33.6
	c0-1.3-1.2-2.5-2.5-2.5H13.7c-1.3,0-2.5,1.2-2.5,2.5v10.3c0,1.3,1.2,2.5,2.5,2.5H24c1.3,0,2.5-1.2,2.5-2.5V33.6z M21.5,41.4h-5.3
	v-5.3h5.3V41.4z M86.3,31.1H76c-1.3,0-2.5,1.2-2.5,2.5v10.3c0,1.3,1.2,2.5,2.5,2.5h10.3c1.3,0,2.5-1.2,2.5-2.5V33.6
	C88.8,32.1,87.8,31.1,86.3,31.1z M83.8,41.4h-5.3v-5.3h5.3V41.4z"/>
</svg>
