<svg id="addd4aee-fe24-4a8c-a24b-c390852e3e51" data-name="Layer 1" xmlns="http://www.w3.org/2000/svg" viewBox="0 0 512 512"><title>motion</title><path d="M0,486V26c2.49-6,7.13-8,13.47-8q242.54.12,485.06,0c6.34,0,11,2,13.47,8V486c-2.49,6-7.13,8.05-13.47,8q-242.53-.1-485.06,0C7.13,494.05,2.49,492,0,486Zm491.19-75.48V101.46H20.81V410.52ZM102.61,38.81V80.54h61V38.81Zm143,0h-61V80.46h61Zm81.87,41.8V38.84H266.42V80.6Zm20.89-41.72V80.53H409.7c0-12.66-.13-25,.08-37.26.06-3.71-1-4.89-4.78-4.85-17.5.17-35,.07-52.5.09C351.21,38.51,349.92,38.74,348.37,38.88ZM102.3,431.37c0,12.74.13,25.05-.08,37.35-.06,3.7,1,4.89,4.78,4.85,17.5-.18,35-.07,52.5-.1,1.29,0,2.58-.22,4.12-.36V431.37Zm82.23,41.75h60.9V431.36h-60.9Zm81.91,0h61V431.41h-61Zm81.94-41.87v41.5c.58.28.87.55,1.16.55,19,.07,38,.09,57,.21,3.33,0,3.19-2.05,3.19-4.32,0-10.83,0-21.66,0-32.49,0-1.78-.16-3.55-.24-5.45ZM20.92,38.8V80.54H81.65V38.8Zm470.27,42v-42H430.44v42ZM20.74,473.07H81.62V431.36H20.74Zm470.42.14V431.39H430.31v41.82Z"/></svg>