<svg id="e3ba8feb-d0f9-4f7a-b921-4b40aee3ac36" data-name="Layer 1" xmlns="http://www.w3.org/2000/svg" viewBox="0 0 512 512"><title>social</title><path d="M512,388c-.59,1.14-1.21,2.27-1.76,3.43-4.29,9.19-11.71,13.16-21.63,13.14q-43.49,0-87,0h-6.59c0,2,0,3.64,0,5.24-.21,16.29-11.31,27.52-27.64,27.94-2.33.05-4.66,0-7,0H148.49c-19.21,0-28.46-7.64-32-26.87h-5.3c-28,0-56-.34-84,.14C14,411.25,4.64,406.74,0,394V352c1.19-5.31,2.14-10.69,3.59-15.93,17.45-62.79,89.42-93,146.6-61.56l5.14,2.85c55.22-57.25,145.1-53.86,196.09-4.84,12.44-4.83,24-10.74,36.2-13.8,57.72-14.45,115.74,25.59,123.49,84.51A15.66,15.66,0,0,0,512,346ZM256.14,421.08H365.61c9.35,0,12.92-3.58,13-13,0-4.82-.09-9.64-.05-14.46.13-17.49.61-35-4.18-52.09a122.7,122.7,0,0,0-152.52-84.94c-50.22,14.54-85,57.63-88.06,109.84-.81,13.77-.32,27.63-.41,41.44-.06,9.62,3.54,13.22,13.29,13.22Zm138.64-33h24q34.74,0,69.47,0c3.69,0,7.1-.65,7.08-5.07-.05-13,1-26.19-.95-38.91-7.5-48.64-52.84-79.65-101.1-69.93a75,75,0,0,0-29.15,12.23C388.16,316.18,397.28,350.12,394.78,388ZM144.54,290.69c-1.44-1-2.47-1.76-3.6-2.38-47.8-26-109.92,1.42-121.7,54.57-3.08,13.93-2.06,28.78-2.65,43.22-.29,7.11.93,8.07,8.06,8.08q43.5,0,87,0c1.62,0,3.23-.15,5.75-.28C114.35,356.25,121.27,321.33,144.54,290.69Z"/><path d="M253.14,225.54c-42.09,0-76.24-33.87-76.25-75.61s34.18-75.66,76.22-75.67,76.23,33.91,76.27,75.65S295.2,225.54,253.14,225.54ZM252.76,209c32.94.11,60-26.32,60.2-58.7.15-32.55-26.6-59.27-59.45-59.38-33-.1-60,26.12-60.25,58.63C193,181.84,220.05,208.89,252.76,209Z"/><path d="M470.06,185.18c-.07,32.29-27,58.84-59.58,58.68s-59.41-27-59.21-59.17c.2-32.29,27.12-58.73,59.7-58.62S470.12,152.71,470.06,185.18Zm-59.07,42c23.61-.11,42.91-19.35,42.62-42.49a42.85,42.85,0,0,0-85.68.54C368,208.55,387.23,227.26,411,227.16Z"/><path d="M101.07,247.92c-32.63-.12-59.19-26.67-59.13-59.11s26.88-58.75,59.54-58.68c32.51.06,59.4,26.89,59.24,59.09S133.6,248,101.07,247.92Zm0-16.69c23.76.1,42.93-18.62,43-42a42.85,42.85,0,0,0-85.68-.43C58.16,212,77.45,231.14,101.06,231.23Z"/></svg>