<?xml version="1.0" encoding="utf-8"?>
<!-- Generator: Adobe Illustrator 24.0.0, SVG Export Plug-In . SVG Version: 6.00 Build 0)  -->
<svg version="1.1" id="Layer_1" xmlns="http://www.w3.org/2000/svg" xmlns:xlink="http://www.w3.org/1999/xlink" x="0px" y="0px"
	 viewBox="0 0 100 100" style="enable-background:new 0 0 100 100;" xml:space="preserve">
<title>1</title>
<g>
	<path d="M37.4,81.4c-2.9,0-5.3,2.4-5.3,5.3s2.4,5.3,5.3,5.3c2.9,0,5.3-2.4,5.3-5.3c0,0,0,0,0,0C42.7,83.7,40.3,81.4,37.4,81.4z
		 M37.4,88.3c-0.9,0-1.6-0.7-1.6-1.6c0-0.9,0.7-1.6,1.6-1.6c0.9,0,1.6,0.7,1.6,1.6l0,0C39,87.6,38.3,88.3,37.4,88.3z"/>
	<path d="M85.8,18.5c-3.5,0-6.5,2.4-7.2,5.8l-10.3,1.8V9.9c0-5.5-4.5-9.9-9.9-9.9H16.6c-5.5,0-9.9,4.4-9.9,9.9v80.2
		c0,5.5,4.4,9.9,9.9,9.9h41.7c5.5,0,9.9-4.4,9.9-9.9V68.3l10.3,1.8c0.9,4,4.9,6.5,8.8,5.6c3.3-0.8,5.7-3.7,5.8-7.2V25.9
		C93.2,21.8,89.8,18.5,85.8,18.5L85.8,18.5z M38.6,59.5V34.9l39.7-6.8v38.1L38.6,59.5z M34.9,54.6H24.8V39.8h10.2V54.6z M30.4,59.6
		c0-0.4,0.1-0.9,0.2-1.3h4.4V61c0,0.9,0.7,1.7,1.6,1.8l0,0l22.2,3.7c-2.6,6.4-9.4,10.2-16.2,9C34.9,74.1,29.7,67.2,30.4,59.6
		L30.4,59.6z M64.5,90.1c0,3.4-2.8,6.2-6.2,6.2H16.6c-3.4,0-6.2-2.8-6.2-6.2V9.8c0-3.4,2.8-6.2,6.2-6.2h41.7c3.4,0,6.2,2.8,6.2,6.2
		v16.9l-28,4.7c-0.9,0.2-1.5,0.9-1.6,1.8v2.8H23c-1,0.1-1.8,0.9-1.8,1.8v18.3c0.1,1,0.9,1.8,1.8,1.8h3.8c0,0.3-0.1,0.6-0.1,0.9
		c-1,9.6,5.6,18.3,15.1,20c1.1,0.2,2.2,0.3,3.3,0.3c7.8,0,14.8-4.9,17.4-12.2l2,0.3V90.1z M89.5,68.4c0,2-1.7,3.7-3.7,3.7
		c-2,0-3.7-1.7-3.7-3.7V25.9c0-2,1.7-3.7,3.7-3.7c2,0,3.7,1.7,3.7,3.7V68.4z"/>
</g>
</svg>
