<svg id="bbef32d0-5646-414e-bdd6-9e7f6cfce97c" data-name="Layer 1" xmlns="http://www.w3.org/2000/svg" viewBox="0 0 512 512"><title>strategy</title><path d="M436.39,457.78c-6.68-5.27-15-8.5-23.45-13.16,1.57-21.11-6.92-37.91-29.09-46.65.68-.72,1.21-1.38,1.84-1.92,18.86-16.13,27.39-36.65,27.27-61.4-.26-55.38.08-110.76-.22-166.15a211.38,211.38,0,0,0-3-34.34C396.83,58.48,326.68-.1,249.63.07,242.55.08,239.54,3,239.5,10c-.06,10.49.19,21-.16,31.47a12,12,0,0,1-3.13,7.44c-8,8-16.38,15.71-24.62,23.52-30.82,29.23-61.91,58.18-92.35,87.81-17,16.54-20.1,44.09-8.84,65.53s35.52,33.86,59.09,29.86c13.38-2.27,26.69-4.93,40-7.4l38.16-7.05c-1.17,7.13-5.22,10.3-10.7,13-13,6.49-26.69,12.31-38.35,20.79-39.77,28.9-61.45,68.55-65.93,117.5-.31,3.42-1.4,4.84-4.74,5.95-15.46,5.17-25,15.88-28,32-1,5.18-.83,10.56-1.2,15.84-28.93,9.71-40.91,25.26-40.91,53.1C57.84,509.85,60,512,70.54,512h371a35.31,35.31,0,0,0,5.15-.11c4.25-.62,7-3.14,7.35-7.42C455.44,486.16,451.31,469.57,436.39,457.78ZM154.57,363.85c14-45,43.08-76.24,86.85-93.71,14.94-6,20.84-13.62,23.24-31.22,14-2.48,26.07-8.88,35.41-19.94a56.82,56.82,0,0,0,13.66-35.89c.16-5.69-3-9.39-7.83-9.62s-8.23,3.3-8.63,8.88c-1.72,24.09-17.58,38.83-41.55,40.84-13.95,1.16-27.69,4.9-41.52,7.5-15.87,3-31.68,6.29-47.61,8.91a40.42,40.42,0,0,1-34.47-69c11.19-10.93,22.66-21.58,34-32.34Q208.68,98,251.27,57.79a14,14,0,0,0,4.8-11.34c-.24-9.76-.07-19.54-.07-29.95,37.31,2.73,69.08,16.32,95.29,42,29.39,28.79,44.64,64.06,44.95,105.2.42,58.13.24,116.26.07,174.39-.1,32.51-25,58.05-57.22,58.2-62.43.29-124.85.09-187.28.09-.84,0-1.67-.09-4-.23C150.05,385.08,151.37,374.17,154.57,363.85ZM121,422.32c5-6.06,11.37-9.41,19.23-9.41q115.77-.06,231.53,0c13.8,0,24.26,10.79,24.59,24.65,0,2.55,0,5.1,0,8H115.88C115.11,437,115.46,429.1,121,422.32ZM74.68,495.18c-.66-16.8,13.56-31.79,30.79-32.7,1.2-.06,2.41-.06,3.61-.06q147,0,294.05,0c18,0,31.63,11.46,34.24,28.66.18,1.18.13,2.39.22,4.09Z"/></svg>