<svg id="b48b4449-ac85-46b2-b32f-c3ddfa67e4e6" data-name="Layer 1" xmlns="http://www.w3.org/2000/svg" viewBox="0 0 512 512"><title>web</title><path d="M512,442c-4.14,12.77-13,17.5-26.24,17.33-36-.45-72-.14-108-.16-15.26,0-23.71-8.51-23.72-23.87q0-34,0-68v-5.78H232.22v47h5.89q40,0,80,0a30.28,30.28,0,0,1,5.48.27c3.82.71,5.74,3.25,5.72,7.06s-2.18,6.21-5.89,7a22.27,22.27,0,0,1-4.48.15H130a23.06,23.06,0,0,1-4-.1c-4-.71-6.22-3.12-6.19-7.21,0-3.83,2.06-6.28,5.88-6.91a33.42,33.42,0,0,1,5.48-.24q39.75,0,79.49,0h6.22V361.17h-5.93c-54.82,0-109.65-.56-164.46.27C22.61,361.8,5.82,352.21,0,329V85a3,3,0,0,0,.56-.81C6.61,62.52,19.39,52.8,41.89,52.8c122,0,243.93.26,365.89-.24,23.87-.09,42,17.9,41.45,41.71-.79,34-.2,68-.2,102v6.18c12.34,0,24,.48,35.63-.13,13.23-.68,22.59,4,27.34,16.7ZM434.21,202.42c.11-2.34.25-4,.25-5.6q0-51.48,0-103c0-17.44-9.4-26.69-27-26.69H41.58c-17.63,0-26.94,9.2-26.94,26.7q0,102.72,0,205.44v5.5H354.05V299c0-24.66,0-49.32,0-74,0-13.39,8.74-22.29,22.09-22.56,8.33-.17,16.66,0,25,0Zm62.86,196.39c.11-1.52.29-2.81.29-4.1q0-84.24,0-168.48c0-7.16-2.11-9.23-9.22-9.24q-54.74,0-109.48,0c-8.1,0-9.9,1.81-9.9,10q0,83.23,0,166.48v5.31ZM15,320.13c-1.19,16.05,9.16,26.6,25.69,26.6q153.9,0,307.81,0h5.26V320.13ZM368.75,414c0,7.15,0,13.78,0,20.41,0,8.67,1.79,10.43,10.58,10.43H486.7c1.66,0,3.66.43,4.9-.32,2.09-1.27,5.14-3.24,5.27-5.08.56-8.38.24-16.81.24-25.44Z"/><path d="M432.05,239c-4.15,0-8.3.12-12.44,0-4.48-.16-7.43-3-7.61-6.92a6.86,6.86,0,0,1,7-7.49q13.17-.45,26.36,0c4.55.17,7,3.42,6.82,7.58-.21,4-3.08,6.67-7.67,6.82C440.35,239.08,436.2,239,432.05,239Z"/><path d="M432.4,422c4.16,0,8.33-.12,12.5,0,4.49.17,7.36,3.08,7.25,7.21-.12,4.36-2.55,7-6.83,7.07q-13.24.31-26.49,0c-4.28-.12-6.67-2.82-6.8-7.13-.12-4,2.92-6.87,7.37-7.17.33,0,.66,0,1,0Z"/></svg>