<?xml version="1.0" encoding="utf-8"?>
<!-- Generator: Adobe Illustrator 24.0.0, SVG Export Plug-In . SVG Version: 6.00 Build 0)  -->
<svg version="1.1" id="Layer_1" xmlns="http://www.w3.org/2000/svg" xmlns:xlink="http://www.w3.org/1999/xlink" x="0px" y="0px"
	 viewBox="0 0 100 100" style="enable-background:new 0 0 100 100;" xml:space="preserve">
<style type="text/css">
	.st0{fill-rule:evenodd;clip-rule:evenodd;}
</style>
<path class="st0" d="M75.3,90.5H64.2c-0.8-3.5-1-7.1-0.7-10.1h27.6c4.9,0,8.9-4,8.9-8.9V16.4c0-4.9-4-8.9-8.9-8.9
	c-27.4,0-54.9,0-82.3,0C4,7.6,0,11.6,0,16.4v55.2c0,4.9,4,8.9,8.9,8.9h27.4c0.3,3,0.1,6.6-0.6,10.1h-11c-1.1,0-2,0.9-2,2s0.9,2,2,2
	h50.6c1.1,0,2-0.9,2-2C77.3,91.4,76.4,90.5,75.3,90.5L75.3,90.5z M40.7,44.7c0.8,0.7,0.8,2,0.1,2.8c-0.4,0.4-0.9,0.6-1.4,0.6
	c-0.5,0-1-0.2-1.3-0.5l-10.2-9.7c-0.4-0.4-0.6-0.9-0.6-1.5c0-0.6,0.3-1.1,0.7-1.4l10.2-8.9c0.8-0.7,2-0.6,2.8,0.2
	c0.7,0.8,0.6,2-0.2,2.8L32,36.5L40.7,44.7L40.7,44.7z M68,36.6l-8.5-6.9c-0.8-0.7-1-1.9-0.3-2.7c0.7-0.8,1.9-1,2.7-0.3L72.1,35
	c0.4,0.4,0.7,0.9,0.7,1.4c0,0.6-0.2,1.1-0.6,1.5L62,48.1c-0.4,0.4-0.9,0.6-1.4,0.6s-1-0.2-1.4-0.6c-0.8-0.8-0.8-2,0-2.8L68,36.6
	L68,36.6z M49.3,49.3c-0.2,0.9-1,1.5-1.9,1.5c-0.1,0-0.3,0-0.4,0c-1.1-0.2-1.7-1.3-1.5-2.3l5.2-23.4c0.2-1.1,1.3-1.7,2.3-1.5
	c1.1,0.2,1.7,1.3,1.5,2.3L49.3,49.3L49.3,49.3z M39.7,90.5c0.6-3.5,0.8-7,0.5-10.1h19.4c-0.3,3-0.1,6.6,0.6,10.1H39.7L39.7,90.5z
	 M91.1,76.5H8.9c-2.7,0-4.9-2.2-4.9-4.9v-4.9h92.2v4.9C96.1,74.3,93.9,76.5,91.1,76.5L91.1,76.5z M96.1,62.8H3.9V16.4
	c0-2.7,2.2-4.9,4.9-4.9c27.4,0,54.9,0,82.3,0c2.7,0,4.9,2.2,4.9,4.9V62.8z"/>
</svg>
